SplineFontDB: 3.2
FontName: SeriousShannsLightItalic
FullName: Serious Shanns Light Italic
FamilyName: Serious Shanns Light Italic
Weight: Light
Copyright: https://github.com/kaBeech/serious-sans/blob/main/LICENSE
Version: 6.0.0
ItalicAngle: -11.8
UnderlinePosition: 0
UnderlineWidth: 0
Ascent: 800
Descent: 200
InvalidEm: 0
sfntRevision: 0x00001999
LayerCount: 2
Layer: 0 0 "Back" 1
Layer: 1 0 "Fore" 0
XUID: [1021 329 -1817886000 6804199]
StyleMap: 0x0040
FSType: 4
OS2Version: 3
OS2_WeightWidthSlopeOnly: 0
OS2_UseTypoMetrics: 0
CreationTime: 1532631502
ModificationTime: 315532800
PfmFamily: 81
TTFWeight: 300
TTFWidth: 5
LineGap: 0
VLineGap: 0
Panose: 0 0 0 0 0 0 0 0 0 0
OS2TypoAscent: 613
OS2TypoAOffset: 0
OS2TypoDescent: -188
OS2TypoDOffset: 0
OS2TypoLinegap: 98
OS2WinAscent: 778
OS2WinAOffset: 0
OS2WinDescent: 308
OS2WinDOffset: 0
HheadAscent: 796
HheadAOffset: 0
HheadDescent: -317
HheadDOffset: 0
OS2SubXSize: 317
OS2SubYSize: 293
OS2SubXOff: 0
OS2SubYOff: 37
OS2SupXSize: 317
OS2SupYSize: 293
OS2SupXOff: 0
OS2SupYOff: 171
OS2StrikeYSize: 0
OS2StrikeYPos: 132
OS2CapHeight: 576
OS2XHeight: 485
OS2Vendor: 'NONE'
OS2CodePages: 00000001.00000000
OS2UnicodeRanges: 00000001.00000000.00000000.00000000
MarkAttachClasses: 1
DEI: 91125
LangName: 1033 "" "" "Normal" "FontForge 2.0 : Serious Shanns Light Italic : 11-6-2024" "" "Version 0.1.2"
Encoding: UnicodeBmp
Compacted: 1
UnicodeInterp: none
NameList: AGL For New Fonts
DisplaySize: -48
AntiAlias: 1
FitToEm: 0
WinInfo: 64 16 4
BeginPrivate: 8
BlueValues 32 [-39 -6 490 521 685 718 765 769]
OtherBlues 11 [-304 -292]
BlueScale 9 0.0291667
BlueShift 1 3
StdHW 4 [67]
StdVW 4 [65]
StemSnapH 23 [61 62 63 65 67 94 130]
StemSnapV 14 [40 58 65 125]
EndPrivate
BeginChars: 65537 122

StartChar: .notdef
Encoding: 65536 -1 0
Width: 620
GlyphClass: 1
Flags: HMW
HStem: 688 20G<306.348 629.348 306.348 306.348>
LayerCount: 2
Fore
SplineSet
288.34765625 737 m 1
 661.34765625 737 l 1
 432.34765625 -255 l 1
 59.34765625 -255 l 1
 288.34765625 737 l 1
629.34765625 708 m 1
 306.34765625 708 l 1
 90.34765625 -226 l 1
 414.34765625 -226 l 1
 629.34765625 708 l 1
EndSplineSet
EndChar

StartChar: exclam
Encoding: 33 33 11
Width: 620
GlyphClass: 2
Flags: HMW
HStem: -13 130<289.281 352.281>
VStem: 255.781 131<27.5 80.5>
LayerCount: 2
Fore
SplineSet
406.78125 274 m 0
 402.78125 262 396.78125 253 387.78125 247 c 0
 378.78125 241 370.78125 237 361.78125 237 c 2
 358.78125 237 l 2
 349.78125 237 343.78125 240 340.78125 245 c 0
 338.78125 247 337.78125 250 337.78125 254 c 0
 337.78125 258 338.78125 264 340.78125 272 c 0
 343.78125 281 346.78125 290 350.78125 300 c 0
 354.78125 310 357.78125 318 359.78125 325 c 0
 361.78125 332 364.78125 347 370.78125 371 c 0
 376.78125 395 382.78125 423 388.78125 454 c 0
 394.78125 485 400.78125 515 407.78125 544 c 0
 414.78125 573 419.78125 593 421.78125 603 c 0
 423.78125 613 429.78125 634 438.78125 668 c 0
 447.78125 702 452.78125 724 454.78125 732 c 0
 458.78125 747 465.78125 759 473.78125 766 c 0
 481.78125 773 491.78125 777 501.78125 777 c 2
 504.78125 777 l 2
 512.78125 777 518.78125 775 521.78125 771 c 0
 523.78125 769 524.78125 764 524.78125 759 c 0
 524.78125 754 522.78125 748 521.78125 742 c 0
 520.78125 736 508.78125 691 487.78125 609 c 0
 466.78125 527 450.78125 462 439.78125 411 c 0
 428.78125 360 421.78125 330 418.78125 320 c 0
 415.78125 310 410.78125 295 406.78125 274 c 0
386.78125 75 m 0
 386.78125 70 385.78125 64 384.78125 57 c 0
 380.78125 39 372.78125 24 357.78125 11 c 0
 342.78125 -2 324.78125 -10 303.78125 -12 c 0
 301.78125 -12 298.78125 -13 296.78125 -13 c 0
 281.78125 -13 270.78125 -7 263.78125 3 c 0
 257.78125 12 255.78125 22 255.78125 33 c 0
 255.78125 38 256.78125 44 257.78125 51 c 0
 262.78125 68 271.78125 83 288.78125 96 c 0
 307.78125 110 325.78125 117 344.78125 117 c 0
 359.78125 117 372.78125 112 379.78125 102 c 0
 384.78125 95 386.78125 86 386.78125 75 c 0
EndSplineSet
EndChar

StartChar: quotedbl
Encoding: 34 34 12
Width: 620
GlyphClass: 2
Flags: HMW
HStem: 448 323<316.546 405.046 321.046 405.046 399.046 470.046 399.046 471.046>
LayerCount: 2
Fore
SplineSet
405.045898438 771 m 2
 413.045898438 771 420.045898438 769 426.045898438 765 c 0
 427.045898438 763 429.045898438 760 430.045898438 756 c 0
 431.045898438 752 431.045898438 748 430.045898438 741 c 0
 424.045898438 714 413.045898438 669 397.045898438 607 c 0
 381.045898438 545 370.045898438 502 362.045898438 479 c 0
 358.045898438 468 352.045898438 461 344.045898438 456 c 0
 336.045898438 451 329.045898438 448 322.045898438 448 c 2
 321.045898438 448 l 2
 312.045898438 448 304.045898438 452 298.045898438 457 c 0
 296.045898438 459 294.045898438 462 294.045898438 466 c 0
 294.045898438 470 295.045898438 474 296.045898438 478 c 0
 307.045898438 512 318.045898438 556 329.045898438 609 c 0
 340.045898438 662 349.045898438 706 356.045898438 741 c 0
 357.045898438 748 360.045898438 753 363.045898438 757 c 0
 366.045898438 762 370.045898438 765 374.045898438 766 c 0
 383.045898438 769 392.045898438 771 399.045898438 771 c 2
 405.045898438 771 l 2
547.045898438 607 m 0
 532.045898438 545 520.045898438 502 512.045898438 479 c 0
 508.045898438 468 502.045898438 461 494.045898438 456 c 0
 486.045898438 451 478.045898438 448 471.045898438 448 c 2
 470.045898438 448 l 2
 461.045898438 448 453.045898438 452 447.045898438 457 c 0
 445.045898438 459 444.045898438 463 444.045898438 466 c 0
 444.045898438 469 445.045898438 473 446.045898438 478 c 0
 456.045898438 512 467.045898438 556 478.045898438 609 c 0
 489.045898438 662 498.045898438 706 505.045898438 741 c 0
 506.045898438 748 509.045898438 753 513.045898438 757 c 0
 517.045898438 761 520.045898438 765 524.045898438 766 c 0
 533.045898438 769 541.045898438 771 548.045898438 771 c 2
 554.045898438 771 l 2
 559.045898438 771 563.045898438 771 566.045898438 770 c 0
 569.045898438 769 573.045898438 767 576.045898438 765 c 0
 579.045898438 763 580.045898438 758 580.045898438 751 c 0
 580.045898438 743 569.045898438 695 547.045898438 607 c 0
EndSplineSet
EndChar

StartChar: numbersign
Encoding: 35 35 13
Width: 620
GlyphClass: 2
Flags: HMW
HStem: 205 57<488.476 526.476 465.476 545.476> 457 60<389.476 499.476 365.476 523.476 389.476 607.476 389.476 564.476>
LayerCount: 2
Fore
SplineSet
269.475585938 203 m 1
 260.475585938 203 l 1
 228.475585938 126 206.475585938 74 194.475585938 47 c 0
 187.475585938 36 178.475585938 26 165.475585938 18 c 0
 156.475585938 13 148.475585938 10 142.475585938 10 c 0
 140.475585938 10 136.475585938 11 134.475585938 12 c 0
 130.475585938 12 128.475585938 14 127.475585938 16 c 0
 125.475585938 20 123.475585938 26 123.475585938 34 c 0
 123.475585938 44 125.475585938 55 131.475585938 67 c 0
 140.475585938 86 162.475585938 131 193.475585938 202 c 1
 146.475585938 202 l 2
 134.475585938 202 126.475585938 204 122.475585938 208 c 0
 120.475585938 210 117.475585938 214 117.475585938 217 c 0
 117.475585938 218 118.475585938 221 118.475585938 223 c 0
 120.475585938 232 125.475585938 241 132.475585938 247 c 0
 139.475585938 253 151.475585938 257 164.475585938 257 c 0
 169.475585938 257 176.475585938 258 186.475585938 258 c 0
 196.475585938 258 205.475585938 260 216.475585938 260 c 1
 298.475585938 456 l 1
 279.475585938 456 l 1
 241.475585938 455 l 1
 237.475585938 455 l 2
 227.475585938 455 220.475585938 457 217.475585938 461 c 0
 215.475585938 464 214.475585938 468 214.475585938 473 c 2
 214.475585938 480 l 2
 215.475585938 489 220.475585938 497 228.475585938 503 c 0
 236.475585938 509 246.475585938 514 259.475585938 514 c 2
 260.475585938 514 l 2
 272.475585938 514 291.475585938 515 315.475585938 515 c 2
 322.475585938 515 l 1
 388.475585938 677 l 2
 395.475585938 692 405.475585938 702 414.475585938 707 c 0
 421.475585938 710 426.475585938 712 431.475585938 712 c 0
 433.475585938 712 438.475585938 711 440.475585938 711 c 0
 449.475585938 709 455.475585938 705 457.475585938 698 c 0
 458.475585938 696 459.475585938 692 459.475585938 689 c 0
 459.475585938 683 456.475585938 675 452.475585938 666 c 2
 389.475585938 517 l 1
 523.475585938 517 l 1
 584.475585938 670 l 2
 591.475585938 685 599.475585938 695 609.475585938 700 c 0
 615.475585938 703 621.475585938 705 627.475585938 705 c 0
 629.475585938 705 632.475585938 704 635.475585938 704 c 0
 644.475585938 702 651.475585938 698 653.475585938 691 c 0
 653.475585938 689 654.475585938 686 654.475585938 684 c 0
 654.475585938 677 653.475585938 669 648.475585938 659 c 0
 635.475585938 633 615.475585938 586 589.475585938 519 c 1
 608.475585938 519 l 1
 618.475585938 519 l 2
 629.475585938 519 639.475585938 515 644.475585938 509 c 0
 649.475585938 504 651.475585938 500 651.475585938 495 c 0
 651.475585938 494 650.475585938 492 650.475585938 491 c 0
 648.475585938 482 642.475585938 473 635.475585938 467 c 0
 628.475585938 461 619.475585938 457 607.475585938 457 c 2
 564.475585938 457 l 1
 488.475585938 262 l 1
 545.475585938 262 l 2
 555.475585938 262 561.475585938 260 562.475585938 258 c 0
 564.475585938 254 565.475585938 248 564.475585938 239 c 0
 562.475585938 228 556.475585938 219 551.475585938 214 c 0
 545.475585938 208 537.475585938 205 526.475585938 205 c 2
 465.475585938 205 l 1
 434.475585938 124 413.475585938 70 401.475585938 43 c 0
 394.475585938 31 384.475585938 22 372.475585938 16 c 0
 364.475585938 12 357.475585938 10 351.475585938 10 c 0
 349.475585938 10 344.475585938 11 341.475585938 12 c 0
 335.475585938 13 332.475585938 18 331.475585938 25 c 0
 331.475585938 28 330.475585938 32 330.475585938 34 c 0
 330.475585938 43 333.475585938 52 338.475585938 63 c 0
 351.475585938 90 371.475585938 137 398.475585938 204 c 1
 379.475585938 204 l 1
 269.475585938 203 l 1
499.475585938 457 m 1
 365.475585938 457 l 1
 283.475585938 261 l 1
 321.475585938 262 365.475585938 263 413.475585938 263 c 2
 421.475585938 263 l 1
 446.475585938 323 472.475585938 387 499.475585938 457 c 1
EndSplineSet
EndChar

StartChar: dollar
Encoding: 36 36 14
Width: 620
GlyphClass: 2
Flags: HMW
HStem: -17 60<254.847 288.847 264.847 288.847 268.847 288.847>
VStem: 233.847 63 499.847 69<235 287>
LayerCount: 2
Fore
SplineSet
210.84765625 -8 m 0
 193.84765625 -2 180.84765625 4 169.84765625 13 c 0
 148.84765625 31 134.84765625 52 127.84765625 76 c 0
 126.84765625 82 125.84765625 89 125.84765625 95 c 0
 125.84765625 101 127.84765625 107 129.84765625 112 c 0
 133.84765625 121 139.84765625 127 148.84765625 131 c 0
 155.84765625 134 161.84765625 137 164.84765625 137 c 0
 167.84765625 137 171.84765625 138 172.84765625 138 c 2
 177.84765625 138 l 2
 178.84765625 138 180.84765625 135 182.84765625 133 c 0
 184.84765625 131 188.84765625 125 191.84765625 118 c 0
 200.84765625 96 211.84765625 77 226.84765625 64 c 0
 241.84765625 50 261.84765625 43 286.84765625 43 c 2
 288.84765625 43 l 1
 296.84765625 43 l 1
 323.84765625 161 346.84765625 268 366.84765625 365 c 1
 355.84765625 366 346.84765625 368 340.84765625 369 c 0
 334.84765625 370 328.84765625 371 324.84765625 371 c 0
 306.84765625 373 291.84765625 378 278.84765625 387 c 0
 265.84765625 396 255.84765625 406 248.84765625 419 c 0
 238.84765625 438 233.84765625 458 233.84765625 480 c 0
 233.84765625 487 234.84765625 494 236.84765625 503 c 0
 241.84765625 526 249.84765625 548 260.84765625 569 c 0
 270.84765625 590 283.84765625 610 299.84765625 628 c 0
 315.84765625 646 335.84765625 661 357.84765625 674 c 0
 379.84765625 687 404.84765625 697 431.84765625 702 c 2
 438.84765625 704 l 1
 443.84765625 725 449.84765625 747 454.84765625 769 c 0
 457.84765625 784 462.84765625 795 468.84765625 803 c 0
 474.84765625 811 480.84765625 815 489.84765625 815 c 2
 491.84765625 815 l 2
 498.84765625 815 503.84765625 814 505.84765625 811 c 0
 507.84765625 808 508.84765625 803 508.84765625 797 c 0
 508.84765625 791 506.84765625 785 505.84765625 778 c 2
 491.84765625 711 l 1
 504.84765625 710 l 2
 517.84765625 710 535.84765625 706 557.84765625 700 c 0
 579.84765625 694 595.84765625 689 606.84765625 684 c 0
 613.84765625 681 618.84765625 676 620.84765625 670 c 0
 620.84765625 668 621.84765625 664 621.84765625 660 c 0
 621.84765625 656 619.84765625 651 617.84765625 644 c 0
 616.84765625 639 614.84765625 634 610.84765625 631 c 0
 606.84765625 628 602.84765625 626 599.84765625 626 c 2
 590.84765625 626 l 2
 584.84765625 626 578.84765625 627 572.84765625 629 c 0
 567.84765625 630 561.84765625 634 554.84765625 638 c 0
 547.84765625 642 538.84765625 646 527.84765625 649 c 0
 516.84765625 652 502.84765625 655 487.84765625 655 c 2
 478.84765625 656 l 1
 465.84765625 596 447.84765625 518 426.84765625 421 c 1
 438.84765625 419 l 2
 462.84765625 415 482.84765625 408 499.84765625 399 c 0
 517.84765625 389 530.84765625 378 540.84765625 366 c 0
 550.84765625 354 557.84765625 341 561.84765625 326 c 0
 565.84765625 311 568.84765625 295 568.84765625 279 c 0
 568.84765625 263 566.84765625 247 561.84765625 227 c 0
 554.84765625 198 544.84765625 170 528.84765625 144 c 0
 512.84765625 118 495.84765625 96 475.84765625 76 c 0
 455.84765625 56 434.84765625 40 411.84765625 26 c 0
 388.84765625 12 364.84765625 1 339.84765625 -6 c 2
 333.84765625 -8 l 1
 324.84765625 -52 318.84765625 -82 316.84765625 -96 c 0
 312.84765625 -107 306.84765625 -117 298.84765625 -123 c 0
 290.84765625 -129 282.84765625 -132 273.84765625 -132 c 2
 272.84765625 -132 l 2
 270.84765625 -132 267.84765625 -131 265.84765625 -131 c 0
 262.84765625 -129 260.84765625 -125 260.84765625 -118 c 0
 260.84765625 -113 261.84765625 -106 263.84765625 -97 c 0
 268.84765625 -81 274.84765625 -54 282.84765625 -17 c 1
 268.84765625 -17 l 1
 264.84765625 -17 l 2
 244.84765625 -17 227.84765625 -14 210.84765625 -8 c 0
310.84765625 468 m 0
 323.84765625 450 342.84765625 437 368.84765625 429 c 2
 379.84765625 426 l 1
 391.84765625 480 407.84765625 555 427.84765625 651 c 1
 409.84765625 645 l 2
 381.84765625 636 357.84765625 623 337.84765625 603 c 0
 317.84765625 583 304.84765625 560 299.84765625 533 c 0
 297.84765625 526 296.84765625 520 296.84765625 513 c 0
 296.84765625 496 301.84765625 481 310.84765625 468 c 0
499.84765625 241 m 0
 499.84765625 253 497.84765625 266 492.84765625 281 c 0
 488.84765625 294 480.84765625 306 468.84765625 317 c 0
 456.84765625 328 441.84765625 338 422.84765625 346 c 2
 410.84765625 352 l 1
 407.84765625 338 l 1
 407.84765625 338 396.84765625 287 375.84765625 188 c 0
 363.84765625 133 353.84765625 88 345.84765625 53 c 1
 365.84765625 62 l 2
 397.84765625 76 425.84765625 95 449.84765625 120 c 0
 473.84765625 145 488.84765625 173 495.84765625 205 c 0
 497.84765625 217 499.84765625 229 499.84765625 241 c 0
EndSplineSet
EndChar

StartChar: percent
Encoding: 37 37 15
Width: 620
GlyphClass: 2
Flags: HMW
HStem: -16 52<400.432 435.932 408.932 435.932> 184 49<463.432 464.432> 444 51<268.432 302.932 276.932 302.932> 645 48<332.432 336.932>
VStem: 211.932 41<522.5 546.5> 343.932 41<63.5 86.5> 374.932 41<589.5 628> 505.932 35<99 143> 505.932 45<129.5 169>
LayerCount: 2
Fore
SplineSet
234.932617188 461 m 0xfa
 223.932617188 472 215.932617188 486 213.932617188 503 c 0
 212.932617188 510 211.932617188 518 211.932617188 527 c 0
 211.932617188 536 212.932617188 548 215.932617188 561 c 0
 224.932617188 600 240.932617188 631 263.932617188 656 c 0
 286.932617188 681 315.932617188 693 348.932617188 693 c 0
 374.932617188 693 393.932617188 683 405.932617188 664 c 0
 412.932617188 653 415.932617188 638 415.932617188 618 c 0
 415.932617188 601 412.932617188 581 406.932617188 559 c 0
 397.932617188 521 381.932617188 493 360.932617188 473 c 0
 339.932617188 453 312.932617188 444 277.932617188 444 c 2
 276.932617188 444 l 2
 259.932617188 444 245.932617188 450 234.932617188 461 c 0xfa
111.932617188 12 m 0
 133.932617188 44 177.932617188 104 242.932617188 192 c 2
 437.932617188 470 l 2
 503.932617188 563 549.932617188 629 575.932617188 670 c 0
 583.932617188 680 592.932617188 686 602.932617188 688 c 0
 605.932617188 688 609.932617188 689 611.932617188 689 c 0
 616.932617188 689 620.932617188 687 625.932617188 684 c 0
 628.932617188 683 630.932617188 681 631.932617188 680 c 0
 632.932617188 679 633.932617188 675 633.932617188 673 c 0
 633.932617188 665 629.932617188 654 618.932617188 641 c 0
 585.932617188 600 509.932617188 497 391.932617188 330 c 0
 276.932617188 163 197.932617188 51 155.932617188 -9 c 0
 146.932617188 -21 138.932617188 -29 131.932617188 -34 c 0
 126.932617188 -37 121.932617188 -39 117.932617188 -39 c 0
 113.932617188 -39 110.932617188 -38 107.932617188 -36 c 0
 104.932617188 -34 100.932617188 -31 99.9326171875 -29 c 0
 98.9326171875 -27 97.9326171875 -24 97.9326171875 -21 c 0
 97.9326171875 -12 102.932617188 -1 111.932617188 12 c 0
300.932617188 495 m 2
 302.932617188 495 l 2
 319.932617188 495 333.932617188 501 344.932617188 514 c 0
 355.932617188 527 364.932617188 543 370.932617188 563 c 0
 372.932617188 574 374.932617188 585 374.932617188 594 c 0
 374.932617188 605 373.932617188 615 368.932617188 623 c 0
 359.932617188 638 346.932617188 645 326.932617188 645 c 0
 309.932617188 645 294.932617188 638 282.932617188 623 c 0
 271.932617188 610 262.932617188 592 256.932617188 570 c 0
 254.932617188 560 252.932617188 551 252.932617188 542 c 0
 252.932617188 533 253.932617188 526 256.932617188 519 c 0
 263.932617188 505 278.932617188 497 300.932617188 495 c 2
366.932617188 1 m 0
 355.932617188 12 348.932617188 26 345.932617188 43 c 0
 344.932617188 50 343.932617188 59 343.932617188 68 c 0xfc80
 343.932617188 77 345.932617188 88 347.932617188 101 c 0
 355.932617188 140 372.932617188 171 395.932617188 196 c 0
 418.932617188 221 446.932617188 233 479.932617188 233 c 0
 492.932617188 233 504.932617188 231 513.932617188 226 c 0
 523.932617188 221 532.932617188 214 539.932617188 204 c 0
 546.932617188 194 550.932617188 179 550.932617188 159 c 0
 550.932617188 142 547.932617188 122 540.932617188 100 c 1xfd
 540.932617188 99 l 1
 529.932617188 61 513.932617188 32 492.932617188 12 c 0
 471.932617188 -7 444.932617188 -16 411.932617188 -16 c 2
 408.932617188 -16 l 2
 391.932617188 -16 377.932617188 -10 366.932617188 1 c 0
432.932617188 36 m 2
 435.932617188 36 l 2
 451.932617188 36 465.932617188 42 476.932617188 55 c 0
 487.932617188 68 496.932617188 83 501.932617188 103 c 0
 503.932617188 114 505.932617188 125 505.932617188 134 c 0
 505.932617188 152 501.932617188 165 490.932617188 174 c 0
 481.932617188 181 470.932617188 184 457.932617188 184 c 0
 440.932617188 184 426.932617188 176 414.932617188 162 c 0
 402.932617188 149 393.932617188 131 388.932617188 110 c 0
 386.932617188 100 384.932617188 91 384.932617188 82 c 0
 384.932617188 73 386.932617188 66 389.932617188 59 c 0
 396.932617188 45 410.932617188 37 432.932617188 36 c 2
EndSplineSet
EndChar

StartChar: ampersand
Encoding: 38 38 16
Width: 620
GlyphClass: 2
Flags: HMW
HStem: -29 69 657 55
VStem: 108.865 71<105.001 142.501> 286.866 64<541.001 542.001> 453.866 71<8.00098 34>
LayerCount: 2
Fore
SplineSet
520.866210938 5 m 0
 515.866210938 -11 508.866210938 -20.9990234375 500.866210938 -23.9990234375 c 0
 495.866210938 -25.9990234375 491.866210938 -27.9990234375 487.866210938 -27.9990234375 c 0
 482.866210938 -27.9990234375 478.866210938 -25.9990234375 474.866210938 -23.9990234375 c 0
 465.866210938 -17.9990234375 458.866210938 -6.9990234375 453.866210938 8.0009765625 c 0
 453.866210938 12.0009765625 451.866210938 22.0009765625 449.866210938 38.0009765625 c 0
 447.866210938 54.0009765625 445.866210938 65.0009765625 443.866210938 73.0009765625 c 2
 438.866210938 97.0009765625 l 1
 422.866210938 79.0009765625 l 2
 420.866210938 77.0009765625 415.866210938 70.0009765625 407.866210938 62.0009765625 c 2
 389.866210938 44.0009765625 l 2
 370.866210938 25.0009765625 357.866210938 13.0009765625 349.866210938 8.0009765625 c 0
 343.866210938 4.0009765625 335.866210938 0.0009765625 326.866210938 -5.9990234375 c 0
 317.866210938 -11.9990234375 308.866210938 -16.9990234375 300.866210938 -18.9990234375 c 0
 292.866210938 -20.9990234375 283.866210938 -23.9990234375 272.866210938 -25.9990234375 c 0
 261.866210938 -27.9990234375 251.866210938 -28.9990234375 241.866210938 -28.9990234375 c 0
 209.866210938 -28.9990234375 182.866210938 -19.9990234375 160.866210938 -2.9990234375 c 0
 138.866210938 14.0009765625 122.866210938 37.0009765625 114.866210938 66.0009765625 c 0
 110.866210938 81.0009765625 108.866210938 97.0009765625 108.866210938 113.000976562 c 0
 108.866210938 129.000976562 110.866210938 145.000976562 114.866210938 162.000976562 c 0
 142.866210938 284.000976562 207.866210938 367.000976562 311.866210938 411.000976562 c 2
 322.866210938 416.000976562 l 1
 306.866210938 460.000976562 297.866210938 486.000976562 295.866210938 491.000976562 c 0
 293.866210938 497.000976562 291.866210938 505.000976562 289.866210938 513.000976562 c 0
 287.866210938 521.000976562 286.866210938 528.000976562 286.866210938 533.000976562 c 0
 286.866210938 551.000976562 288.866210938 569.000976562 292.866210938 587.000976562 c 0
 297.866210938 609.000976562 308.866210938 632.000976562 326.866210938 653.000976562 c 0
 335.866210938 664.000976562 346.866210938 675.000976562 358.866210938 683.000976562 c 0
 370.866210938 691.000976562 385.866210938 698.000976562 403.866210938 704.000976562 c 0
 421.866210938 710.000976562 439.866210938 712.000976562 460.866210938 712.000976562 c 0
 477.866210938 712.000976562 493.866210938 710.000976562 507.866210938 704.000976562 c 0
 521.866210938 698.000976562 533.866210938 690.000976562 543.866210938 680.000976562 c 0
 553.866210938 670.000976562 559.866210938 657.000976562 563.866210938 640.000976562 c 0
 565.754882812 631.974609375 566.751953125 623.279296875 566.751953125 614.020507812 c 0
 566.751953125 603.668945312 565.505859375 592.61328125 562.866210938 581 c 0
 557.866210938 561 550.866210938 542 541.866210938 525 c 0
 532.866210938 508 523.866210938 493 513.866210938 481 c 0
 503.866210938 469 491.866210938 458 477.866210938 447 c 0
 463.866210938 436 450.866210938 427 439.866210938 421 c 0
 428.866210938 415 416.866210938 409 401.866210938 402 c 2
 392.866210938 397 l 1
 395.866210938 387 l 2
 402.866210938 366 414.866210938 335 431.866210938 294 c 0
 448.866210938 253 459.866210938 227 464.866210938 214 c 2
 472.866210938 191 l 1
 487.866210938 213 499.866210938 232 507.866210938 244 c 0
 515.866210938 256 522.866210938 266 527.866210938 273 c 0
 532.866210938 280 536.866210938 286 538.866210938 289 c 0
 552.866210938 305 563.866210938 315 572.866210938 318 c 0
 574.866210938 319 578.866210938 320 580.866210938 320 c 0
 584.866210938 320 588.866210938 318 593.866210938 316 c 0
 598.866210938 313 600.866210938 307 600.866210938 300 c 0
 600.866210938 287 593.866210938 272 582.866210938 255 c 0
 578.866210938 249 566.866210938 236 546.866210938 215 c 0
 526.866210938 194 507.866210938 174 490.866210938 153 c 1
 495.866210938 137 502.866210938 116 509.866210938 93 c 0
 516.866210938 70 520.866210938 55 521.866210938 50 c 0
 522.866210938 45 524.866210938 38 524.866210938 30 c 0
 524.866210938 22 522.866210938 14 520.866210938 5 c 0
439.866210938 657.000976562 m 0
 414.866210938 657.000976562 394.866210938 648.000976562 379.866210938 631.000976562 c 0
 367.866210938 617.000976562 358.866210938 598.000976562 353.866210938 575.000976562 c 0
 351.866210938 566.000976562 350.866210938 556.000976562 350.866210938 546.000976562 c 0
 350.866210938 536.000976562 351.866210938 526.000976562 353.866210938 515.000976562 c 0
 356.866210938 493.000976562 363.866210938 474.000976562 372.866210938 458.000976562 c 2
 377.866210938 450.000976562 l 1
 387.866210938 453.000976562 l 2
 402.866210938 458.000976562 416.866210938 463.000976562 427.866210938 468.000976562 c 0
 438.866210938 473.000976562 449.866210938 480.000976562 460.866210938 489.000976562 c 0
 471.866210938 498.000976562 481.866210938 508.000976562 488.866210938 521.000976562 c 0
 495.866210938 534.000976562 501.866210938 550.000976562 505.866210938 567.000976562 c 0
 507.866210938 576.000976562 509.866210938 585.000976562 509.866210938 593.000976562 c 0
 509.866210938 610.000976562 504.866210938 623.000976562 495.866210938 634.000976562 c 0
 481.866210938 649.000976562 462.866210938 657.000976562 439.866210938 657.000976562 c 0
192.866210938 82.0009765625 m 0
 207.866210938 54.0009765625 232.866210938 40.0009765625 265.866210938 40.0009765625 c 0
 280.866210938 40.0009765625 297.866210938 43.0009765625 317.866210938 49.0009765625 c 0
 324.866210938 51.0009765625 332.866210938 56.0009765625 340.866210938 61.0009765625 c 0
 348.866210938 66.0009765625 353.866210938 69.0009765625 358.866210938 72.0009765625 c 0
 363.866210938 75.0009765625 368.866210938 80.0009765625 375.866210938 87.0009765625 c 0
 382.866210938 94.0009765625 388.866210938 99.0009765625 390.866210938 102.000976562 c 0
 392.866210938 105.000976562 397.866210938 109.000976562 403.866210938 116.000976562 c 0
 409.866210938 123.000976562 413.866210938 127.000976562 414.866210938 128.000976562 c 2
 419.866210938 133.000976562 l 1
 413.866210938 163.000976562 408.866210938 186.000976562 404.866210938 201.000976562 c 0
 399.866210938 217.000976562 389.866210938 242.000976562 375.866210938 277.000976562 c 0
 361.866210938 312.000976562 351.866210938 337.000976562 345.866210938 354.000976562 c 2
 340.866210938 366.000976562 l 1
 328.866210938 361.000976562 l 2
 307.866210938 352.000976562 288.866210938 341.000976562 271.866210938 327.000976562 c 0
 254.866210938 313.000976562 240.866210938 298.000976562 229.866210938 282.000976562 c 0
 218.866210938 266.000976562 209.866210938 249.000976562 202.866210938 232.000976562 c 0
 195.866210938 215.000976562 190.866210938 197.000976562 185.866210938 177.000976562 c 0
 181.866210938 162.000976562 179.866210938 149.000976562 179.866210938 136.000976562 c 0
 179.866210938 115.000976562 183.866210938 97.0009765625 192.866210938 82.0009765625 c 0
EndSplineSet
EndChar

StartChar: quotesingle
Encoding: 39 39 17
Width: 620
GlyphClass: 2
Flags: HMW
HStem: 458 302<397.354 476.354 397.354 476.354>
LayerCount: 2
Fore
SplineSet
477.353515625 760 m 2
 485.353515625 760 492.353515625 758 498.353515625 754 c 0
 499.353515625 753 501.353515625 750 502.353515625 746 c 0
 503.353515625 742 502.353515625 737 501.353515625 730 c 0
 495.353515625 704 486.353515625 663 472.353515625 608 c 0
 458.353515625 553 447.353515625 513 439.353515625 490 c 0
 435.353515625 479 429.353515625 470 421.353515625 465 c 0
 413.353515625 460 406.353515625 458 399.353515625 458 c 2
 397.353515625 458 l 2
 387.353515625 459 379.353515625 463 374.353515625 468 c 0
 372.353515625 470 371.353515625 473 371.353515625 477 c 0
 371.353515625 481 372.353515625 484 373.353515625 489 c 0
 383.353515625 524 393.353515625 563 403.353515625 609 c 0
 413.353515625 655 422.353515625 696 429.353515625 731 c 0
 429.353515625 737 431.353515625 743 435.353515625 747 c 0
 439.353515625 751 443.353515625 754 447.353515625 755 c 0
 456.353515625 758 464.353515625 760 471.353515625 760 c 2
 476.353515625 760 l 1
 477.353515625 760 l 2
EndSplineSet
EndChar

StartChar: parenleft
Encoding: 40 40 18
Width: 620
GlyphClass: 2
Flags: HMW
HStem: -119 60<349.692 392.192> 745 57<557.692 590.692>
VStem: 222.192 71<140.5 147.5>
LayerCount: 2
Fore
SplineSet
388.192382812 -59 m 0
 396.192382812 -59 401.192382812 -61 403.192382812 -64 c 0
 404.192382812 -65 406.192382812 -67 406.192382812 -71 c 0
 406.192382812 -75 404.192382812 -81 403.192382812 -90 c 0
 401.192382812 -98 397.192382812 -104 389.192382812 -110 c 0
 381.192382812 -116 374.192382812 -119 368.192382812 -119 c 0
 331.192382812 -119 300.192382812 -105 276.192382812 -76 c 0
 251.192382812 -45 235.192382812 -3 227.192382812 52 c 0
 224.192382812 77 222.192382812 103 222.192382812 130 c 0
 222.192382812 165 224.192382812 203 230.192382812 244 c 0
 237.192382812 293 253.192382812 356 277.192382812 433 c 0
 301.192382812 510 327.192382812 574 356.192382812 623 c 0
 369.192382812 644 384.192382812 666 402.192382812 687 c 0
 420.192382812 708 439.192382812 727 460.192382812 744 c 0
 481.192382812 761 503.192382812 775 525.192382812 786 c 0
 547.192382812 797 567.192382812 802 587.192382812 802 c 0
 594.192382812 802 599.192382812 801 601.192382812 799 c 0
 603.192382812 797 605.192382812 793 605.192382812 788 c 0
 605.192382812 785 605.192382812 781 604.192382812 776 c 0
 602.192382812 765 597.192382812 757 590.192382812 752 c 0
 583.192382812 747 576.192382812 745 567.192382812 745 c 0
 548.192382812 745 531.192382812 740 513.192382812 729 c 0
 495.192382812 718 478.192382812 703 463.192382812 685 c 0
 434.192382812 651 409.192382812 609 387.192382812 558 c 0
 370.192382812 523 353.192382812 475 336.192382812 414 c 0
 319.192382812 353 308.192382812 304 302.192382812 268 c 0
 296.192382812 232 293.192382812 197 293.192382812 164 c 0
 293.192382812 117 298.192382812 76 307.192382812 41 c 0
 314.192382812 12 325.192382812 -11 338.192382812 -29 c 0
 353.192382812 -49 369.192382812 -59 388.192382812 -59 c 0
EndSplineSet
EndChar

StartChar: parenright
Encoding: 41 41 19
Width: 620
GlyphClass: 2
Flags: HMW
HStem: -119 60<191.056 195.056> 745 57<373.056 403.056>
VStem: 475.556 65<551.5 571>
LayerCount: 2
Fore
SplineSet
540.555664062 571 m 0
 540.555664062 532 536.555664062 488 529.555664062 438 c 0
 518.555664062 361 504.555664062 298 488.555664062 250 c 0
 465.555664062 177 437.555664062 113 403.555664062 57 c 0
 369.555664062 1 333.555664062 -42 293.555664062 -73 c 0
 253.555664062 -104 214.555664062 -119 175.555664062 -119 c 0
 170.555664062 -119 165.555664062 -117 161.555664062 -112 c 0
 159.555664062 -110 158.555664062 -106 158.555664062 -102 c 2
 158.555664062 -96 l 2
 161.555664062 -81 166.555664062 -71 172.555664062 -66 c 0
 178.555664062 -61 186.555664062 -59 195.555664062 -59 c 0
 212.555664062 -59 232.555664062 -50 254.555664062 -31 c 0
 275.555664062 -14 295.555664062 10 316.555664062 38 c 0
 337.555664062 66 356.555664062 99 376.555664062 139 c 0
 396.555664062 179 411.555664062 218 424.555664062 259 c 0
 436.555664062 297 448.555664062 348 459.555664062 410 c 0
 470.555664062 472 475.555664062 522 475.555664062 560 c 0
 475.555664062 582 474.555664062 603 471.555664062 624 c 0
 468.555664062 645 463.555664062 663 456.555664062 682 c 0
 449.555664062 701 439.555664062 716 425.555664062 728 c 0
 411.555664062 740 395.555664062 745 376.555664062 745 c 0
 369.555664062 745 363.555664062 747 359.555664062 751 c 0
 357.555664062 753 356.555664062 755 356.555664062 759 c 0
 356.555664062 763 357.555664062 768 358.555664062 773 c 0
 359.555664062 778 362.555664062 784 365.555664062 788 c 0
 368.555664062 792 371.555664062 795 373.555664062 796 c 0
 380.555664062 800 386.555664062 802 393.555664062 802 c 0
 412.555664062 802 430.555664062 797 447.555664062 787 c 0
 464.555664062 777 478.555664062 764 490.555664062 747 c 0
 502.555664062 730 513.555664062 711 521.555664062 690 c 0
 529.555664062 669 535.555664062 648 537.555664062 627 c 0
 539.555664062 610 540.555664062 592 540.555664062 571 c 0
EndSplineSet
EndChar

StartChar: asterisk
Encoding: 42 42 20
Width: 620
GlyphClass: 2
Flags: HMW
HStem: 305 80<181.901 204.401> 313 71<570.401 590.901> 319 52<473.901 483.901 432.401 501.401>
VStem: 300.401 62 400.401 66<145 173>
LayerCount: 2
Fore
SplineSet
426.400390625 129 m 0x98
 419.400390625 129 413.400390625 131 408.400390625 134 c 0
 406.400390625 135 403.400390625 137 402.400390625 139 c 0
 401.400390625 141 400.400390625 144 400.400390625 146 c 0
 399.400390625 173 392.400390625 213 379.400390625 264 c 2
 372.400390625 290 l 1
 357.400390625 268 l 2
 313.400390625 206 285.400390625 165 274.400390625 145 c 0
 271.400390625 139 266.400390625 134 261.400390625 131 c 0
 256.400390625 129 250.400390625 126 245.400390625 126 c 2
 239.400390625 126 l 2
 237.400390625 126 233.400390625 126 229.400390625 127 c 0
 225.400390625 128 220.400390625 130 218.400390625 132 c 0
 216.400390625 134 213.400390625 137 212.400390625 141 c 0
 211.400390625 145 210.400390625 148 210.400390625 151 c 2
 210.400390625 159 l 2
 210.400390625 166 214.400390625 173 220.400390625 182 c 2
 324.400390625 312 l 1
 297.400390625 311 l 2
 246.400390625 307 208.400390625 305 184.400390625 305 c 0
 179.400390625 305 174.400390625 307 171.400390625 308 c 0
 168.400390625 309 165.400390625 312 163.400390625 315 c 0
 160.400390625 320 158.400390625 325 158.400390625 331 c 2
 160.400390625 341 l 2
 160.400390625 346 162.400390625 351 164.400390625 356 c 0
 171.400390625 369 178.400390625 378 187.400390625 382 c 0
 192.400390625 384 196.400390625 385 201.400390625 385 c 2
 204.400390625 385 l 2
 232.400390625 383 279.400390625 379 346.400390625 374 c 1
 340.400390625 391 l 2
 325.400390625 440 311.400390625 477 300.400390625 503 c 0
 298.400390625 509 297.400390625 515 297.400390625 521 c 0
 297.400390625 527 298.400390625 534 300.400390625 540 c 0
 304.400390625 551 310.400390625 559 318.400390625 562 c 0
 324.400390625 566 330.400390625 568 336.400390625 568 c 0
 341.400390625 568 347.400390625 566 352.400390625 562 c 0
 357.400390625 558 361.400390625 552 362.400390625 545 c 0
 365.400390625 529 376.400390625 483 396.400390625 406 c 1
 412.400390625 426 l 2
 447.400390625 471 475.400390625 509 495.400390625 540 c 0
 500.400390625 549 507.400390625 556 514.400390625 560 c 0
 521.400390625 564 528.400390625 566 533.400390625 566 c 0
 538.400390625 566 543.400390625 564 546.400390625 561 c 2
 547.400390625 561 l 2
 549.400390625 560 552.400390625 557 553.400390625 552 c 0
 553.400390625 550 554.400390625 546 554.400390625 543 c 0
 554.400390625 530 550.400390625 518 540.400390625 507 c 0
 513.400390625 476 481.400390625 437 446.400390625 390 c 2
 432.400390625 371 l 1x38
 456.400390625 371 l 2
 511.400390625 371 552.400390625 375 578.400390625 382 c 0
 582.400390625 383 586.400390625 384 588.400390625 384 c 0x58
 593.400390625 384 597.400390625 381 599.400390625 378 c 0
 603.400390625 373 606.400390625 367 606.400390625 362 c 0
 606.400390625 357 604.400390625 350 600.400390625 341 c 0
 593.400390625 328 586.400390625 319 578.400390625 315 c 0
 576.400390625 314 573.400390625 313 571.400390625 313 c 0
 569.400390625 313 567.400390625 314 566.400390625 314 c 0
 550.400390625 317 522.400390625 319 480.400390625 319 c 0x38
 467.400390625 319 448.400390625 318 423.400390625 318 c 1
 464.400390625 187 l 2
 465.400390625 182 466.400390625 176 466.400390625 170 c 0
 466.400390625 164 465.400390625 159 463.400390625 154 c 0
 460.400390625 145 455.400390625 138 449.400390625 134 c 0
 443.400390625 130 435.400390625 129 426.400390625 129 c 0x98
EndSplineSet
EndChar

StartChar: plus
Encoding: 43 43 21
Width: 620
GlyphClass: 2
Flags: HMW
HStem: 370 59<344.64 373.64 344.64 373.64>
LayerCount: 2
Fore
SplineSet
250.639648438 369 m 2
 239.639648438 369 231.639648438 371 229.639648438 376 c 0
 227.639648438 379 225.639648438 383 225.639648438 388 c 0
 225.639648438 390 226.639648438 394 226.639648438 397 c 0
 228.639648438 407 233.639648438 415 240.639648438 422 c 0
 247.639648438 428 255.639648438 431 266.639648438 431 c 2
 269.639648438 431 l 2
 312.639648438 430 343.639648438 429 363.639648438 429 c 2
 373.639648438 429 l 1
 382.639648438 469 391.639648438 508 398.639648438 547 c 0
 399.639648438 557 403.639648438 565 408.639648438 570 c 0
 415.639648438 577 424.639648438 580 436.639648438 580 c 2
 439.639648438 580 l 2
 446.639648438 580 452.639648438 578 456.639648438 575 c 0
 457.639648438 574 458.639648438 571 458.639648438 567 c 0
 458.639648438 563 457.639648438 559 455.639648438 553 c 0
 444.639648438 514 434.639648438 472 423.639648438 427 c 1
 541.639648438 427 l 2
 551.639648438 427 557.639648438 425 558.639648438 423 c 0
 559.639648438 421 561.639648438 418 561.639648438 413 c 0
 561.639648438 406 559.639648438 398 556.639648438 391 c 0
 554.639648438 387 551.639648438 383 548.639648438 379 c 0
 543.639648438 373 536.639648438 370 527.639648438 370 c 2
 527.639648438 370 525.639648438 371 523.639648438 371 c 0
 513.639648438 371 499.639648438 372 479.639648438 372 c 0
 459.639648438 372 436.639648438 371 409.639648438 371 c 1
 404.639648438 347 398.639648438 323 393.639648438 298 c 0
 388.639648438 273 384.639648438 258 383.639648438 253 c 0
 380.639648438 240 375.639648438 232 370.639648438 227 c 0
 364.639648438 223 357.639648438 220 349.639648438 220 c 0
 342.639648438 220 337.639648438 221 334.639648438 223 c 0
 331.639648438 225 330.639648438 229 330.639648438 235 c 0
 330.639648438 239 330.639648438 243 331.639648438 248 c 2
 359.639648438 370 l 1
 344.639648438 370 l 1
 250.639648438 369 l 2
EndSplineSet
EndChar

StartChar: comma
Encoding: 44 44 22
Width: 620
GlyphClass: 2
Flags: HMW
VStem: 186.297 234
LayerCount: 2
Fore
SplineSet
186.296875 -185 m 2
 186.296875 -182 l 2
 186.296875 -176 189.296875 -169 196.296875 -161 c 0
 214.296875 -140 243.296875 -95 282.296875 -27 c 0
 321.296875 41 346.296875 89 357.296875 116 c 0
 359.296875 123 365.296875 129 371.296875 133 c 0
 377.296875 137 383.296875 139 388.296875 139 c 2
 389.296875 139 l 2
 395.296875 139 401.296875 138 406.296875 137 c 0
 411.296875 135 416.296875 131 418.296875 125 c 0
 419.296875 123 420.296875 120 420.296875 117 c 0
 420.296875 114 418.296875 108 416.296875 101 c 0
 403.296875 68 378.296875 19 342.296875 -48 c 0
 306.296875 -115 281.296875 -157 267.296875 -172 c 0
 255.296875 -185 242.296875 -195 227.296875 -200 c 0
 219.296875 -202 212.296875 -204 206.296875 -204 c 0
 203.296875 -204 199.296875 -203 197.296875 -202 c 0
 194.296875 -201 191.296875 -198 189.296875 -196 c 0
 187.296875 -193 186.296875 -189 186.296875 -185 c 2
EndSplineSet
EndChar

StartChar: hyphen
Encoding: 45 45 23
Width: 620
GlyphClass: 2
Flags: HMW
HStem: 255 62<252.372 292.372> 264 56<461.872 489.372>
LayerCount: 2
Fore
SplineSet
274.872070312 317 m 0x80
 309.872070312 317 351.872070312 317 400.872070312 318 c 0
 449.872070312 319 477.872070312 320 484.872070312 320 c 0x40
 493.872070312 320 499.872070312 318 501.872070312 316 c 0
 503.872070312 312 504.872070312 306 503.872070312 298 c 0
 501.872070312 287 495.872070312 278 490.872070312 273 c 0
 484.872070312 267 476.872070312 264 465.872070312 264 c 0
 457.872070312 264 425.872070312 262 370.872070312 259 c 0
 315.872070312 256 276.872070312 255 255.872070312 255 c 0
 248.872070312 255 242.872070312 256 239.872070312 258 c 0
 236.872070312 260 235.872070312 264 235.872070312 270 c 0
 235.872070312 274 236.872070312 278 237.872070312 283 c 0
 238.872070312 294 242.872070312 303 247.872070312 308 c 0
 254.872070312 314 263.872070312 317 274.872070312 317 c 0x80
EndSplineSet
EndChar

StartChar: period
Encoding: 46 46 24
Width: 620
GlyphClass: 2
Flags: HMW
HStem: -2 130<290.475 354.475 297.975 354.475>
VStem: 257.975 131<37.5 90.5>
LayerCount: 2
Fore
SplineSet
388.974609375 85 m 0
 388.974609375 80 387.974609375 74 386.974609375 68 c 0
 382.974609375 49 374.974609375 34 359.974609375 21 c 0
 344.974609375 8 326.974609375 0 305.974609375 -2 c 2
 297.974609375 -2 l 2
 282.974609375 -2 272.974609375 3 265.974609375 13 c 0
 260.974609375 22 257.974609375 32 257.974609375 43 c 0
 257.974609375 49 258.974609375 55 259.974609375 61 c 0
 263.974609375 79 274.974609375 94 291.974609375 107 c 0
 310.974609375 121 327.974609375 128 346.974609375 128 c 0
 361.974609375 128 373.974609375 123 380.974609375 113 c 0
 385.974609375 105 388.974609375 96 388.974609375 85 c 0
EndSplineSet
EndChar

StartChar: slash
Encoding: 47 47 25
Width: 620
GlyphClass: 2
Flags: W
LayerCount: 2
Fore
SplineSet
76.94140625 -31 m 0
 76.94140625 -28 77.94140625 -24 77.94140625 -20 c 0
 79.94140625 -3 87.94140625 12 98.94140625 27 c 0
 226.94140625 187 336.94140625 329 429.94140625 454 c 0
 488.94140625 530 551.94140625 617 618.94140625 714 c 0
 625.94140625 723 631.94140625 730 639.94140625 734 c 0
 647.94140625 738 654.94140625 741 660.94140625 741 c 0
 666.94140625 741 671.94140625 739 677.94140625 737 c 0
 683.94140625 733 687.94140625 727 687.94140625 719 c 0
 687.94140625 710 680.94140625 698 671.94140625 683 c 0
 647.94140625 649 583.94140625 566 478.94140625 433 c 0
 373.94140625 300 309.94140625 218 286.94140625 185 c 0
 271.94140625 164 247.94140625 129 213.94140625 80 c 0
 179.94140625 31 158.94140625 1 150.94140625 -10 c 0
 137.94140625 -27 122.94140625 -38 107.94140625 -45 c 0
 100.94140625 -47 95.94140625 -49 91.94140625 -49 c 0
 87.94140625 -49 83.94140625 -48 81.94140625 -46 c 2
 80.94140625 -46 l 2
 78.94140625 -44 76.94140625 -38 76.94140625 -31 c 0
EndSplineSet
EndChar

StartChar: zero
Encoding: 48 48 26
Width: 620
GlyphClass: 2
Flags: HMW
HStem: -12 60<296.334 296.834> 649 57<455.334 456.334>
VStem: 148.334 77<133.5 211>
LayerCount: 2
Fore
SplineSet
159.333984375 211 m 0
 160.333984375 218 163.333984375 235 169.333984375 261 c 0
 175.333984375 287 180.333984375 308 184.333984375 324 c 0
 188.333984375 340 194.333984375 361 201.333984375 388 c 0
 208.333984375 415 215.333984375 438 221.333984375 458 c 0
 227.333984375 478 235.333984375 500 245.333984375 522 c 0
 255.333984375 544 264.333984375 565 273.333984375 582 c 0
 295.333984375 623 323.333984375 653 358.333984375 674 c 0
 393.333984375 695 433.333984375 706 477.333984375 706 c 0
 499.333984375 706 520.333984375 702 538.333984375 693 c 0
 556.333984375 684 571.333984375 671 583.333984375 655 c 0
 595.333984375 639 603.333984375 618 608.333984375 591 c 0
 610.333984375 578 611.333984375 564 611.333984375 548 c 0
 611.333984375 532 609.333984375 516 607.333984375 496 c 0
 602.333984375 463 594.333984375 425 585.333984375 383 c 0
 576.333984375 341 565.333984375 298 553.333984375 256 c 0
 541.333984375 214 530.333984375 181 519.333984375 159 c 0
 499.333984375 117 479.333984375 82 459.333984375 57 c 0
 450.333984375 45 442.333984375 34 431.333984375 26 c 0
 420.333984375 18 410.333984375 11 400.333984375 6 c 0
 390.333984375 1 379.333984375 -3 367.333984375 -5 c 0
 355.333984375 -7 343.333984375 -10 331.333984375 -11 c 0
 319.333984375 -12 305.333984375 -12 288.333984375 -12 c 0
 263.333984375 -12 240.333984375 -7 219.333984375 3 c 0
 198.333984375 13 183.333984375 27 171.333984375 46 c 0
 159.333984375 65 151.333984375 88 149.333984375 116 c 0
 149.333984375 123 148.333984375 130 148.333984375 137 c 0
 148.333984375 159 152.333984375 184 159.333984375 211 c 0
361.333984375 616 m 0
 338.333984375 594 317.333984375 559 297.333984375 511 c 0
 290.333984375 494 283.333984375 473 277.333984375 451 c 0
 271.333984375 429 264.333984375 402 257.333984375 370 c 0
 250.333984375 338 245.333984375 315 243.333984375 302 c 2
 229.333984375 232 l 2
 229.333984375 230 227.333984375 226 227.333984375 221 c 0
 227.333984375 216 225.333984375 212 225.333984375 210 c 2
 210.333984375 160 l 1
 246.333984375 198 l 1
 348.333984375 321 443.333984375 447 534.333984375 576 c 1
 539.333984375 581 l 1
 536.333984375 588 l 2
 527.333984375 608 515.333984375 622 499.333984375 633 c 0
 484.333984375 644 466.333984375 649 446.333984375 649 c 0
 413.333984375 649 384.333984375 638 361.333984375 616 c 0
349.333984375 53 m 0
 362.333984375 56 376.333984375 61 389.333984375 70 c 0
 416.333984375 86 439.333984375 117 460.333984375 162 c 0
 464.333984375 171 471.333984375 194 481.333984375 230 c 0
 492.333984375 266 504.333984375 307 516.333984375 354 c 0
 528.333984375 401 536.333984375 446 543.333984375 489 c 2
 551.333984375 542 l 1
 521.333984375 498 l 1
 428.333984375 352 331.333984375 230 227.333984375 131 c 1
 222.333984375 127 l 1
 223.333984375 120 l 2
 228.333984375 93 239.333984375 74 256.333984375 62 c 0
 269.333984375 53 286.333984375 48 306.333984375 48 c 0
 322.333984375 48 336.333984375 50 349.333984375 53 c 0
EndSplineSet
EndChar

StartChar: one
Encoding: 49 49 27
Width: 620
GlyphClass: 2
Flags: HMW
HStem: 3 67
LayerCount: 2
Fore
SplineSet
520.346679688 47 m 2
 520.346679688 40 l 2
 518.346679688 29 513.346679688 21 506.346679688 14 c 0
 499.346679688 7 488.346679688 3 473.346679688 3 c 0
 270.346679688 5 155.346679688 7 133.346679688 7 c 0
 124.346679688 7 119.346679688 9 117.346679688 13 c 0
 115.346679688 16 113.346679688 19 113.346679688 23 c 0
 113.346679688 27 115.346679688 31 115.346679688 35 c 0
 117.346679688 46 120.346679688 55 127.346679688 62 c 0
 134.346679688 69 143.346679688 72 154.346679688 72 c 0
 182.346679688 72 230.346679688 71 297.346679688 70 c 1
 304.346679688 103 310.346679688 129 312.346679688 146 c 0
 312.346679688 151 315.346679688 168 321.346679688 197 c 2
 335.346679688 262 l 2
 337.346679688 275 344.346679688 300 352.346679688 336 c 0
 360.346679688 372 367.346679688 399 371.346679688 417 c 0
 386.346679688 481 401.346679688 549 421.346679688 620 c 1
 394.346679688 598 l 2
 347.346679688 558 313.346679688 534 293.346679688 525 c 0
 291.346679688 524 289.346679688 523 287.346679688 523 c 0
 283.346679688 523 278.346679688 527 274.346679688 532 c 0
 269.346679688 539 268.346679688 545 268.346679688 551 c 0
 268.346679688 553 269.346679688 555 269.346679688 557 c 0
 270.346679688 566 273.346679688 574 278.346679688 581 c 0
 283.346679688 588 290.346679688 595 301.346679688 604 c 0
 320.346679688 619 339.346679688 636 360.346679688 653 c 2
 407.346679688 692 l 2
 418.346679688 699 428.346679688 705 437.346679688 710 c 0
 446.346679688 715 453.346679688 718 458.346679688 718 c 0
 467.346679688 718 476.346679688 713 485.346679688 704 c 0
 492.346679688 697 497.346679688 691 497.346679688 686 c 2
 497.346679688 685 l 1
 497.346679688 685 483.346679688 633 456.346679688 529 c 0
 429.346679688 430 414.346679688 373 411.346679688 357 c 0
 397.346679688 290 385.346679688 234 376.346679688 190 c 0
 371.346679688 165 363.346679688 124 354.346679688 67 c 1
 379.346679688 67 413.346679688 66 453.346679688 65 c 0
 475.346679688 65 490.346679688 64 496.346679688 64 c 0
 502.346679688 64 508.346679688 63 511.346679688 62 c 0
 514.346679688 61 517.346679688 59 517.346679688 58 c 0
 519.346679688 56 520.346679688 52 520.346679688 47 c 2
EndSplineSet
EndChar

StartChar: two
Encoding: 50 50 28
Width: 620
GlyphClass: 2
Flags: HMW
HStem: -5 59 0 64<475.989 481.989> 650 60<455.489 467.489>
VStem: 547.989 68<578.5 582>
LayerCount: 2
Fore
SplineSet
297.989257812 -5 m 0xb0
 270.989257812 -6 241.989257812 -7 210.989257812 -7 c 0
 179.989257812 -7 155.989257812 -6 138.989257812 -4 c 0
 134.989257812 -4 132.989257812 -1 130.989257812 1 c 0
 127.989257812 5 124.989257812 12 124.989257812 23 c 0
 124.989257812 38 129.989257812 57 134.989257812 81 c 0
 141.989257812 108 152.989257812 137 170.989257812 167 c 0
 188.989257812 197 211.989257812 227 240.989257812 256 c 0
 267.989257812 284 294.989257812 307 323.989257812 324 c 0
 392.989257812 365 439.989257812 393 460.989257812 409 c 0
 489.989257812 431 511.989257812 456 524.989257812 482 c 0
 531.989257812 496 538.989257812 514 543.989257812 536 c 0
 545.989257812 549 547.989257812 560 547.989257812 571 c 0
 547.989257812 593 541.989257812 610 529.989257812 623 c 0
 512.989257812 641 484.989257812 650 449.989257812 650 c 0
 425.989257812 650 402.989257812 642 377.989257812 625 c 0
 352.989257812 608 332.989257812 590 316.989257812 569 c 0
 303.989257812 553 293.989257812 544 287.989257812 544 c 2
 283.989257812 544 l 2
 282.989257812 544 280.989257812 544 278.989257812 545 c 0
 276.989257812 546 271.989257812 549 266.989257812 551 c 0
 261.989257812 554 260.989257812 559 260.989257812 566 c 0
 260.989257812 572 266.989257812 584 275.989257812 603 c 0
 282.989257812 615 292.989257812 627 305.989257812 639 c 0
 318.989257812 651 333.989257812 662 350.989257812 673 c 0
 367.989257812 684 386.989257812 693 406.989257812 700 c 0
 426.989257812 707 445.989257812 710 464.989257812 710 c 0
 526.989257812 710 568.989257812 695 593.989257812 664 c 0
 608.989257812 645 615.989257812 620 615.989257812 588 c 0
 615.989257812 569 613.989257812 548 608.989257812 525 c 0
 595.989257812 472 572.989257812 430 540.989257812 398 c 0
 516.989257812 374 478.989257812 347 427.989257812 318 c 0
 411.989257812 308 391.989257812 296 364.989257812 281 c 0
 334.989257812 265 307.989257812 246 285.989257812 223 c 0
 263.989257812 200 246.989257812 176 233.989257812 151 c 0
 220.989257812 127 208.989257812 101 200.989257812 73 c 2
 196.989257812 58 l 1
 243.989257812 56 283.989257812 54 316.989257812 54 c 0
 341.989257812 54 360.989257812 55 376.989257812 56 c 0
 392.989257812 57 405.989257812 58 416.989257812 59 c 0
 427.989257812 60 446.989257812 62 475.989257812 64 c 2x70
 484.989257812 64 l 2
 488.989257812 64 492.989257812 65 496.989257812 65 c 0
 500.989257812 65 504.989257812 64 506.989257812 64 c 0
 507.989257812 63 509.989257812 61 511.989257812 60 c 2
 511.989257812 56 l 1
 511.989257812 52 l 2
 511.989257812 45 509.989257812 37 506.989257812 29 c 0
 503.989257812 21 497.989257812 14 491.989257812 8 c 0
 487.989257812 3 483.989257812 0 479.989257812 0 c 0
 439.989257812 0 380.989257812 -1 297.989257812 -5 c 0xb0
EndSplineSet
EndChar

StartChar: three
Encoding: 51 51 29
Width: 620
GlyphClass: 2
Flags: HMW
HStem: -12 60<305.957 327.957> 330 76<335.957 356.457> 650 60<433.957 447.957>
VStem: 473.457 74<214.5 271> 535.457 69<584.5 585.5>
LayerCount: 2
Fore
SplineSet
540.45703125 201 m 0xf0
 525.45703125 136 495.45703125 84 451.45703125 45 c 0
 409.45703125 7 358.45703125 -12 297.45703125 -12 c 0
 278.45703125 -12 260.45703125 -9 242.45703125 -2 c 0
 224.45703125 4 209.45703125 12 196.45703125 22 c 0
 183.45703125 32 172.45703125 44 163.45703125 56 c 0
 154.45703125 68 148.45703125 80 146.45703125 91 c 0
 145.45703125 96 144.45703125 101 144.45703125 107 c 0
 144.45703125 113 146.45703125 119 148.45703125 125 c 0
 153.45703125 135 159.45703125 142 167.45703125 146 c 0
 175.45703125 150 182.45703125 152 187.45703125 152 c 0
 189.45703125 152 192.45703125 151 194.45703125 151 c 0
 201.45703125 149 206.45703125 143 211.45703125 132 c 0
 220.45703125 110 234.45703125 90 254.45703125 73 c 0
 272.45703125 56 293.45703125 48 318.45703125 48 c 0
 354.45703125 48 386.45703125 60 414.45703125 84 c 0
 442.45703125 108 461.45703125 140 469.45703125 179 c 0
 471.45703125 194 473.45703125 208 473.45703125 221 c 0
 473.45703125 248 467.45703125 271 452.45703125 289 c 0
 430.45703125 316 387.45703125 330 325.45703125 330 c 0
 322.45703125 330 318.45703125 332 316.45703125 333 c 0
 314.45703125 334 311.45703125 337 309.45703125 341 c 0
 306.45703125 346 304.45703125 352 304.45703125 359 c 0
 304.45703125 361 305.45703125 365 305.45703125 368 c 0
 307.45703125 380 312.45703125 389 318.45703125 396 c 0
 324.45703125 403 331.45703125 406 340.45703125 406 c 0
 389.45703125 406 430.45703125 418 463.45703125 442 c 0
 499.45703125 466 522.45703125 501 531.45703125 546 c 0
 533.45703125 557 535.45703125 566 535.45703125 575 c 0xe8
 535.45703125 596 528.45703125 612 513.45703125 625 c 0
 493.45703125 642 466.45703125 650 429.45703125 650 c 0
 417.45703125 650 404.45703125 647 390.45703125 642 c 0
 385.45703125 640 379.45703125 636 373.45703125 632 c 0
 367.45703125 628 362.45703125 624 359.45703125 622 c 0
 356.45703125 620 352.45703125 614 346.45703125 608 c 2
 333.45703125 595 l 2
 331.45703125 593 327.45703125 587 322.45703125 580 c 0
 311.45703125 567 302.45703125 560 295.45703125 558 c 0
 293.45703125 558 291.45703125 557 289.45703125 557 c 0
 284.45703125 557 280.45703125 559 275.45703125 562 c 0
 273.45703125 564 270.45703125 566 269.45703125 568 c 0
 268.45703125 570 268.45703125 574 268.45703125 577 c 0
 268.45703125 588 273.45703125 600 282.45703125 615 c 0
 297.45703125 640 318.45703125 662 344.45703125 680 c 0
 357.45703125 689 373.45703125 697 390.45703125 702 c 0
 407.45703125 707 424.45703125 710 443.45703125 710 c 0
 507.45703125 710 553.45703125 695 579.45703125 666 c 0
 596.45703125 648 604.45703125 624 604.45703125 593 c 0
 604.45703125 576 601.45703125 556 596.45703125 535 c 0
 592.45703125 516 586.45703125 500 578.45703125 485 c 0
 570.45703125 470 561.45703125 458 551.45703125 448 c 0
 541.45703125 438 530.45703125 429 517.45703125 421 c 0
 504.45703125 413 492.45703125 408 480.45703125 403 c 0
 469.45703125 398 457.45703125 394 444.45703125 392 c 2
 396.45703125 381 l 1
 444.45703125 368 l 2
 465.45703125 363 482.45703125 356 496.45703125 348 c 0
 510.45703125 340 522.45703125 330 531.45703125 317 c 0
 542.45703125 302 547.45703125 283 547.45703125 259 c 0
 547.45703125 242 545.45703125 222 540.45703125 201 c 0xf0
EndSplineSet
EndChar

StartChar: four
Encoding: 52 52 30
Width: 620
GlyphClass: 2
Flags: HMW
HStem: 236 55<338.087 442.587 429.587 430.587>
VStem: 386.587 50 386.587 63<17 62 19 62>
LayerCount: 2
Fore
SplineSet
393.586914062 -1 m 0xa0
 388.586914062 5 386.586914062 11 386.586914062 17 c 2
 386.586914062 19 l 1
 391.586914062 40 399.586914062 78 410.586914062 134 c 2
 430.586914062 236 l 1
 378.586914062 236 l 2
 297.586914062 236 237.586914062 232 196.586914062 223 c 0
 192.586914062 223 188.586914062 222 185.586914062 222 c 0
 182.586914062 222 178.586914062 222 176.586914062 223 c 0
 172.586914062 225 169.586914062 228 167.586914062 231 c 0
 165.586914062 238 163.586914062 246 163.586914062 255 c 0
 163.586914062 260 165.586914062 266 166.586914062 274 c 0
 167.586914062 282 170.586914062 290 174.586914062 297 c 0
 185.586914062 315 208.586914062 345 245.586914062 387 c 0
 280.586914062 429 322.586914062 480 372.586914062 542 c 0
 422.586914062 604 460.586914062 650 484.586914062 679 c 0
 494.586914062 690 504.586914062 699 514.586914062 705 c 0
 524.586914062 711 533.586914062 713 540.586914062 713 c 2
 541.586914062 713 l 1
 547.586914062 713 l 2
 554.586914062 713 561.586914062 711 566.586914062 708 c 0
 571.586914062 705 573.586914062 699 573.586914062 691 c 2
 573.586914062 691 572.586914062 689 572.586914062 688 c 0
 571.586914062 665 565.586914062 629 556.586914062 581 c 0
 547.586914062 533 539.586914062 491 532.586914062 458 c 2
 496.586914062 291 l 1
 517.586914062 291 534.586914062 290 547.586914062 290 c 0
 557.586914062 290 563.586914062 287 565.586914062 285 c 0
 567.586914062 281 567.586914062 275 566.586914062 267 c 0
 564.586914062 256 559.586914062 247 554.586914062 242 c 0
 548.586914062 235 540.586914062 232 528.586914062 232 c 0
 516.586914062 232 501.586914062 233 484.586914062 234 c 1
 462.586914062 129 449.586914062 69 449.586914062 55 c 0
 449.586914062 36 444.586914062 20 436.586914062 7 c 0xc0
 429.586914062 -5 421.586914062 -11 412.586914062 -11 c 0
 405.586914062 -11 399.586914062 -8 393.586914062 -1 c 0xa0
511.586914062 640 m 1
 483.586914062 610 l 1
 374.586914062 481 296.586914062 380 250.586914062 308 c 2
 236.586914062 287 l 1
 261.586914062 289 l 2
 293.586914062 291 332.586914062 292 376.586914062 292 c 0
 394.586914062 292 416.586914062 291 442.586914062 291 c 1
 471.586914062 423 491.586914062 526 504.586914062 600 c 2
 511.586914062 640 l 1
EndSplineSet
EndChar

StartChar: five
Encoding: 53 53 31
Width: 620
GlyphClass: 2
Flags: HMW
HStem: -6 60<294.027 311.027> 433 64<415.527 476.027> 633 62<583.027 641.027 625.527 641.027> 639 61
VStem: 508.527 70<327 379.5>
LayerCount: 2
Fore
SplineSet
571.526367188 299 m 0xd8
 560.526367188 250 544.526367188 207 524.526367188 168 c 0
 505.526367188 129 483.526367188 97 460.526367188 72 c 0
 437.526367188 47 411.526367188 27 383.526367188 14 c 0
 355.526367188 1 326.526367188 -6 295.526367188 -6 c 0
 271.526367188 -6 248.526367188 -3 228.526367188 3 c 0
 207.526367188 9 191.526367188 17 179.526367188 26 c 0
 167.526367188 35 159.526367188 45 152.526367188 56 c 0
 145.526367188 67 139.526367188 78 136.526367188 89 c 0
 135.526367188 96 135.526367188 102 135.526367188 108 c 0
 135.526367188 114 135.526367188 121 137.526367188 126 c 0
 141.526367188 134 148.526367188 140 157.526367188 145 c 0
 168.526367188 150 176.526367188 152 180.526367188 152 c 0
 181.526367188 152 183.526367188 151 185.526367188 151 c 0
 187.526367188 151 190.526367188 150 191.526367188 148 c 0
 193.526367188 144 196.526367188 138 199.526367188 131 c 0
 210.526367188 103 226.526367188 83 247.526367188 70 c 0
 264.526367188 59 283.526367188 54 304.526367188 54 c 0
 349.526367188 54 391.526367188 75 427.526367188 117 c 0
 462.526367188 159 487.526367188 213 502.526367188 282 c 0
 506.526367188 302 508.526367188 319 508.526367188 335 c 0
 508.526367188 356 504.526367188 374 497.526367188 389 c 0
 490.526367188 405 480.526367188 417 465.526367188 424 c 0
 453.526367188 430 439.526367188 433 423.526367188 433 c 0
 407.526367188 433 390.526367188 430 373.526367188 426 c 0
 363.526367188 424 351.526367188 418 335.526367188 409 c 0
 331.526367188 407 325.526367188 403 318.526367188 398 c 0
 311.526367188 393 306.526367188 389 304.526367188 387 c 0
 302.526367188 385 293.526367188 376 278.526367188 363 c 0
 267.526367188 354 254.526367188 348 240.526367188 347 c 0
 239.526367188 347 238.526367188 346 237.526367188 346 c 0
 232.526367188 346 227.526367188 348 222.526367188 350 c 0
 215.526367188 353 212.526367188 364 212.526367188 383 c 0
 212.526367188 396 214.526367188 412 218.526367188 432 c 0
 222.526367188 452 227.526367188 473 233.526367188 494 c 0
 239.526367188 515 246.526367188 538 253.526367188 563 c 0
 260.526367188 588 264.526367188 606 266.526367188 619 c 1
 265.526367188 623 l 2
 263.526367188 627 262.526367188 632 262.526367188 638 c 0
 262.526367188 640 263.526367188 644 263.526367188 646 c 0
 263.526367188 656 266.526367188 665 270.526367188 673 c 0
 274.526367188 681 278.526367188 687 284.526367188 692 c 0
 290.526367188 697 296.526367188 700 301.526367188 700 c 0
 322.526367188 700 370.526367188 699 448.526367188 698 c 0
 529.526367188 697 592.526367188 696 636.526367188 696 c 0
 637.526367188 696 639.526367188 695 640.526367188 695 c 0xe8
 641.526367188 695 642.526367188 693 642.526367188 692 c 0
 644.526367188 687 646.526367188 682 646.526367188 676 c 2
 646.526367188 672 l 2
 646.526367188 664 643.526367188 657 641.526367188 650 c 0
 640.526367188 647 638.526367188 644 637.526367188 642 c 0
 636.526367188 640 634.526367188 637 632.526367188 636 c 0
 630.526367188 635 628.526367188 633 626.526367188 633 c 0
 624.526367188 633 620.526367188 631 617.526367188 631 c 2
 610.526367188 631 l 2
 609.526367188 631 605.526367188 632 600.526367188 632 c 0
 595.526367188 632 590.526367188 633 585.526367188 633 c 0
 580.526367188 633 567.526367188 634 546.526367188 636 c 0
 525.526367188 638 506.526367188 640 490.526367188 641 c 0
 474.526367188 642 453.526367188 643 424.526367188 643 c 0
 395.526367188 643 361.526367188 641 324.526367188 639 c 1
 321.526367188 626 316.526367188 604 308.526367188 572 c 0
 300.526367188 540 295.526367188 517 292.526367188 502 c 0
 289.526367188 487 283.526367188 454 273.526367188 403 c 1
 298.526367188 430 l 2
 318.526367188 450 341.526367188 465 370.526367188 478 c 0
 399.526367188 491 431.526367188 497 464.526367188 497 c 0
 487.526367188 497 507.526367188 492 523.526367188 482 c 0
 541.526367188 473 552.526367188 459 561.526367188 442 c 0
 572.526367188 421 578.526367188 395 578.526367188 364 c 0
 578.526367188 343 576.526367188 321 571.526367188 299 c 0xd8
EndSplineSet
EndChar

StartChar: six
Encoding: 54 54 32
Width: 620
GlyphClass: 2
Flags: HMW
HStem: -10 60<291.332 325.832> 405 64<389.332 456.332>
VStem: 157.832 58<186.5 192> 500.832 71<299 358>
LayerCount: 2
Fore
SplineSet
559.83203125 248 m 0
 551.83203125 213 537.83203125 178 518.83203125 146 c 0
 499.83203125 114 478.83203125 86 455.83203125 64 c 0
 434.83203125 42 411.83203125 23 385.83203125 10 c 0
 359.83203125 -3 333.83203125 -10 307.83203125 -10 c 0
 274.83203125 -10 245.83203125 -3 222.83203125 12 c 0
 199.83203125 27 183.83203125 48 173.83203125 75 c 0
 163.83203125 102 157.83203125 134 157.83203125 171 c 0
 157.83203125 213 164.83203125 260 177.83203125 313 c 0
 190.83203125 370 207.83203125 421 228.83203125 465 c 0
 249.83203125 509 271.83203125 547 293.83203125 578 c 0
 314.83203125 609 338.83203125 635 364.83203125 656 c 0
 390.83203125 677 418.83203125 693 446.83203125 704 c 0
 476.83203125 715 509.83203125 722 546.83203125 725 c 2
 553.83203125 725 l 2
 562.83203125 725 570.83203125 723 575.83203125 720 c 0
 577.83203125 719 578.83203125 716 579.83203125 714 c 0
 580.83203125 712 581.83203125 709 581.83203125 708 c 2
 581.83203125 704 l 2
 581.83203125 699 576.83203125 692 567.83203125 684 c 0
 558.83203125 676 550.83203125 670 541.83203125 668 c 0
 534.83203125 667 523.83203125 664 508.83203125 661 c 0
 493.83203125 658 480.83203125 654 469.83203125 651 c 0
 459.83203125 648 447.83203125 643 434.83203125 637 c 0
 407.83203125 624 377.83203125 601 346.83203125 567 c 0
 330.83203125 549 314.83203125 525 297.83203125 494 c 0
 280.83203125 463 267.83203125 436 258.83203125 412 c 2
 240.83203125 362 l 1
 278.83203125 399 l 2
 299.83203125 422 324.83203125 440 352.83203125 452 c 0
 380.83203125 464 411.83203125 469 443.83203125 469 c 0
 468.83203125 469 490.83203125 466 509.83203125 458 c 0
 528.83203125 450 541.83203125 438 552.83203125 421 c 0
 565.83203125 401 571.83203125 375 571.83203125 341 c 0
 571.83203125 314 567.83203125 283 559.83203125 248 c 0
316.83203125 378 m 0
 287.83203125 360 260.83203125 337 236.83203125 309 c 2
 234.83203125 307 l 1
 226.83203125 276 220.83203125 251 218.83203125 232 c 0
 216.83203125 221 215.83203125 209 215.83203125 197 c 0
 215.83203125 176 218.83203125 156 224.83203125 136 c 0
 229.83203125 120 235.83203125 105 244.83203125 92 c 0
 253.83203125 79 264.83203125 69 279.83203125 61 c 0
 292.83203125 54 307.83203125 50 323.83203125 50 c 2
 325.83203125 50 l 2
 347.83203125 50 371.83203125 59 393.83203125 78 c 0
 415.83203125 97 435.83203125 119 452.83203125 147 c 0
 471.83203125 175 483.83203125 203 490.83203125 232 c 0
 497.83203125 262 500.83203125 288 500.83203125 310 c 0
 500.83203125 335 495.83203125 355 485.83203125 369 c 0
 475.83203125 382 463.83203125 392 450.83203125 397 c 0
 437.83203125 402 422.83203125 405 403.83203125 405 c 0
 374.83203125 405 345.83203125 396 316.83203125 378 c 0
EndSplineSet
EndChar

StartChar: seven
Encoding: 55 55 33
Width: 620
GlyphClass: 2
Flags: HMW
HStem: 634 68
LayerCount: 2
Fore
SplineSet
632.108398438 631 m 0
 619.108398438 611 596.108398438 581 564.108398438 541 c 0
 533.108398438 501 500.108398438 459 469.108398438 417 c 0
 438.108398438 375 398.108398438 319 351.108398438 249 c 0
 304.108398438 179 257.108398438 107 210.108398438 33 c 0
 199.108398438 16 188.108398438 4 176.108398438 -3 c 0
 167.108398438 -8 160.108398438 -11 153.108398438 -11 c 2
 148.108398438 -11 l 2
 144.108398438 -10 140.108398438 -7 138.108398438 -4 c 0
 136.108398438 -1 135.108398438 3 135.108398438 9 c 0
 135.108398438 15 138.108398438 24 144.108398438 37 c 0
 191.108398438 105 240.108398438 173 289.108398438 241 c 0
 336.108398438 309 376.108398438 362 407.108398438 403 c 0
 438.108398438 444 465.108398438 483 492.108398438 522 c 0
 519.108398438 561 540.108398438 592 553.108398438 616 c 2
 561.108398438 633 l 1
 541.108398438 634 l 2
 516.108398438 634.5 490.608398438 634.75 464.233398438 634.75 c 0
 437.858398438 634.75 410.608398438 634.5 382.108398438 634 c 0
 325.108398438 633 287.108398438 629 267.108398438 624 c 0
 265.108398438 624 263.108398438 623 262.108398438 623 c 0
 261.108398438 623 259.108398438 624 258.108398438 624 c 0
 256.108398438 625 253.108398438 628 252.108398438 630 c 0
 250.108398438 637 248.108398438 646 249.108398438 658 c 0
 251.108398438 666 256.108398438 673 261.108398438 679 c 0
 266.108398438 685 273.108398438 690 286.108398438 692 c 0
 317.108398438 699 369.108398438 702 439.108398438 702 c 0
 461.108398438 702 506.108398438 700 572.108398438 697 c 0
 604.108398438 696 621.108398438 695 623.108398438 695 c 0
 633.108398438 695 640.108398438 691 645.108398438 682 c 0
 646.108398438 680 648.108398438 676 648.108398438 673 c 0
 648.108398438 670 647.108398438 667 647.108398438 665 c 0
 646.108398438 656 641.108398438 644 632.108398438 631 c 0
EndSplineSet
EndChar

StartChar: eight
Encoding: 56 56 34
Width: 620
GlyphClass: 2
Flags: HMW
HStem: -16 61<306.405 310.905> 658 48<423.405 463.405 437.905 463.405>
VStem: 138.905 58<122.5 164> 245.905 60 495.905 67<217.5 249.5> 534.905 62<550 586>
LayerCount: 2
Fore
SplineSet
562.905273438 244 m 0xf8
 562.905273438 233 560.905273438 221 557.905273438 207 c 0
 547.905273438 163 527.905273438 122 496.905273438 85 c 0
 479.905273438 65 463.905273438 49 444.905273438 34 c 0
 425.905273438 19 403.905273438 7 377.905273438 -2 c 0
 351.905273438 -11 324.905273438 -16 296.905273438 -16 c 0
 267.905273438 -16 241.905273438 -12 220.905273438 -3 c 0
 199.905273438 6 182.905273438 16 171.905273438 29 c 0
 160.905273438 42 151.905273438 58 146.905273438 77 c 0
 141.905273438 96 138.905273438 113 138.905273438 132 c 0
 138.905273438 151 140.905273438 172 145.905273438 194 c 0
 150.905273438 215 160.905273438 237 176.905273438 262 c 0
 192.905273438 287 213.905273438 310 237.905273438 331 c 0
 259.905273438 353 283.905273438 368 305.905273438 376 c 2
 329.905273438 384 l 1
 307.905273438 398 l 2
 283.905273438 413 266.905273438 432 256.905273438 457 c 0
 249.905273438 473 245.905273438 489 245.905273438 505 c 0
 245.905273438 514 246.905273438 523 248.905273438 531 c 0
 250.905273438 539 253.905273438 547 256.905273438 556 c 0
 258.905273438 565 263.905273438 574 269.905273438 586 c 0
 275.905273438 598 280.905273438 609 287.905273438 620 c 0
 294.905273438 631 304.905273438 641 315.905273438 652 c 0
 326.905273438 663 337.905273438 672 350.905273438 680 c 0
 363.905273438 688 378.905273438 694 396.905273438 699 c 0
 414.905273438 704 432.905273438 706 452.905273438 706 c 0
 473.905273438 706 491.905273438 704 509.905273438 699 c 0
 527.905273438 694 541.905273438 688 551.905273438 681 c 0
 561.905273438 674 569.905273438 664 576.905273438 654 c 0
 583.905273438 644 589.905273438 634 591.905273438 624 c 0
 594.905273438 611 596.905273438 595 596.905273438 577 c 0xf4
 596.905273438 563 594.905273438 548 591.905273438 533 c 0
 590.905273438 526 587.905273438 519 584.905273438 512 c 0
 581.905273438 505 577.905273438 499 573.905273438 493 c 0
 569.905273438 487 563.905273438 481 557.905273438 475 c 0
 551.905273438 469 545.905273438 464 540.905273438 459 c 0
 532.905273438 452 516.905273438 441 493.905273438 426 c 2
 448.905273438 396 l 1
 466.905273438 386 l 2
 485.905273438 376 501.905273438 365 514.905273438 352 c 0
 527.905273438 339 537.905273438 327 544.905273438 315 c 0
 551.905273438 303 556.905273438 292 558.905273438 279 c 0
 560.905273438 266 562.905273438 255 562.905273438 244 c 0xf8
494.905273438 638 m 0
 477.905273438 651 459.905273438 658 438.905273438 658 c 2
 437.905273438 658 l 2
 408.905273438 658 382.905273438 646 356.905273438 622 c 0
 330.905273438 598 314.905273438 570 308.905273438 541 c 0
 306.905273438 534 305.905273438 527 305.905273438 521 c 0
 305.905273438 502 311.905273438 486 323.905273438 471 c 0
 338.905273438 453 364.905273438 435 401.905273438 417 c 2
 405.905273438 415 l 1
 409.905273438 416 l 1
 436.905273438 428 461.905273438 444 485.905273438 465 c 0
 512.905273438 486 527.905273438 506 531.905273438 526 c 0
 533.905273438 535 534.905273438 545 534.905273438 555 c 0
 534.905273438 565 532.905273438 576 529.905273438 587 c 0
 523.905273438 608 511.905273438 625 494.905273438 638 c 0
206.905273438 114 m 0
 217.905273438 92 232.905273438 74 253.905273438 63 c 0
 273.905273438 51 294.905273438 45 317.905273438 45 c 0
 334.905273438 45 351.905273438 49 369.905273438 55 c 0
 387.905273438 61 404.905273438 70 420.905273438 81 c 0
 436.905273438 92 450.905273438 107 463.905273438 126 c 0
 476.905273438 145 485.905273438 165 490.905273438 186 c 0
 493.905273438 199 495.905273438 212 495.905273438 223 c 0xf8
 495.905273438 233 493.905273438 244 490.905273438 257 c 0
 487.905273438 270 482.905273438 282 474.905273438 294 c 0
 467.905273438 306 456.905273438 318 442.905273438 330 c 0
 428.905273438 342 411.905273438 353 390.905273438 363 c 2
 387.905273438 365 l 1
 383.905273438 364 l 2
 339.905273438 351 300.905273438 328 267.905273438 295 c 0
 231.905273438 262 208.905273438 227 199.905273438 189 c 0
 197.905273438 179 196.905273438 169 196.905273438 159 c 0
 196.905273438 143 199.905273438 128 206.905273438 114 c 0
EndSplineSet
EndChar

StartChar: nine
Encoding: 57 57 35
Width: 620
GlyphClass: 2
Flags: HMW
HStem: 248 64<324.433 388.433> 667 60<432.433 477.933 443.433 477.933>
VStem: 204.433 68<412.5 427> 553.433 57<522.5 530.5>
LayerCount: 2
Fore
SplineSet
587.432617188 382 m 0
 574.432617188 330 557.432617188 283 536.432617188 241 c 0
 515.432617188 199 491.432617188 162 467.432617188 133 c 0
 444.432617188 104 418.432617188 79 390.432617188 58 c 0
 362.432617188 37 333.432617188 22 303.432617188 11 c 0
 271.432617188 0 237.432617188 -7 200.432617188 -10 c 0
 198.432617188 -10 196.432617188 -11 194.432617188 -11 c 0
 185.432617188 -11 178.432617188 -8 172.432617188 -5 c 0
 170.432617188 -4 167.432617188 -2 166.432617188 0 c 0
 165.432617188 2 165.432617188 6 165.432617188 10 c 0
 165.432617188 16 170.432617188 22 178.432617188 30 c 0
 186.432617188 38 196.432617188 44 205.432617188 46 c 0
 212.432617188 48 223.432617188 51 239.432617188 55 c 0
 255.432617188 59 271.432617188 62 284.432617188 65 c 0
 295.432617188 68 309.432617188 73 324.432617188 79 c 0
 357.432617188 92 387.432617188 114 416.432617188 145 c 0
 434.432617188 165 450.432617188 188 467.432617188 214 c 0
 484.432617188 241 498.432617188 265 507.432617188 286 c 2
 529.432617188 341 l 1
 487.432617188 300 l 2
 468.432617188 280 447.432617188 266 423.432617188 259 c 0
 399.432617188 252 370.432617188 248 335.432617188 248 c 0
 313.432617188 248 292.432617188 253 274.432617188 266 c 0
 254.432617188 279 239.432617188 295 228.432617188 316 c 0
 217.432617188 337 209.432617188 362 206.432617188 390 c 0
 205.432617188 399 204.432617188 408 204.432617188 417 c 0
 204.432617188 437 206.432617188 456 211.432617188 476 c 0
 220.432617188 512 232.432617188 546 251.432617188 577 c 0
 270.432617188 608 290.432617188 635 312.432617188 657 c 0
 333.432617188 679 356.432617188 696 382.432617188 708 c 0
 408.432617188 720 436.432617188 727 463.432617188 727 c 0
 492.432617188 727 517.432617188 721 538.432617188 710 c 0
 564.432617188 696 583.432617188 673 595.432617188 642 c 0
 605.432617188 615 610.432617188 583 610.432617188 546 c 0
 610.432617188 499 602.432617188 444 587.432617188 382 c 0
544.432617188 581 m 0
 539.432617188 597 533.432617188 611 524.432617188 624 c 0
 515.432617188 637 503.432617188 647 488.432617188 655 c 0
 475.432617188 663 460.432617188 667 444.432617188 667 c 2
 443.432617188 667 l 2
 421.432617188 667 397.432617188 659 374.432617188 642 c 0
 351.432617188 625 332.432617188 603 315.432617188 577 c 0
 298.432617188 551 286.432617188 523 280.432617188 494 c 0
 274.432617188 468 272.432617188 445 272.432617188 425 c 0
 272.432617188 400 277.432617188 378 286.432617188 361 c 0
 303.432617188 328 333.432617188 312 375.432617188 312 c 0
 401.432617188 312 428.432617188 319 455.432617188 333 c 0
 483.432617188 347 507.432617188 366 529.432617188 391 c 1
 532.432617188 393 l 1
 537.432617188 415 542.432617188 445 549.432617188 485 c 0
 551.432617188 496 553.432617188 508 553.432617188 520 c 0
 553.432617188 541 550.432617188 561 544.432617188 581 c 0
EndSplineSet
EndChar

StartChar: colon
Encoding: 58 58 36
Width: 620
GlyphClass: 2
Flags: HMW
HStem: 52 131<307.271 351.771 311.771 351.771> 319 131<376.771 412.771 376.771 412.771>
VStem: 277.771 108<80 151.5 84 151.5> 338.771 109<343 424 351 424>
LayerCount: 2
Fore
SplineSet
338.771484375 351 m 2xd0
 340.771484375 369 346.771484375 392 353.771484375 419 c 0
 354.771484375 426 357.771484375 432 361.771484375 436 c 0
 365.771484375 440 371.771484375 443 377.771484375 445 c 0
 387.771484375 448 396.771484375 450 405.771484375 450 c 2
 412.771484375 450 l 2
 422.771484375 450 431.771484375 448 439.771484375 443 c 0
 444.771484375 440 447.771484375 433 447.771484375 424 c 2
 447.771484375 419 l 1
 443.771484375 398 435.771484375 376 424.771484375 352 c 0
 419.771484375 341 412.771484375 332 402.771484375 327 c 0
 392.771484375 322 385.771484375 319 378.771484375 319 c 2
 376.771484375 319 l 2
 364.771484375 320 355.771484375 323 348.771484375 327 c 0
 344.771484375 329 341.771484375 331 340.771484375 334 c 0
 339.771484375 337 338.771484375 340 338.771484375 343 c 2
 338.771484375 351 l 2xd0
277.771484375 80 m 2xe0
 277.771484375 84 l 1
 282.771484375 110 l 2
 282.771484375 112 285.771484375 117 286.771484375 122 c 0
 287.771484375 127 290.771484375 137 295.771484375 152 c 0
 296.771484375 158 299.771484375 163 303.771484375 167 c 0
 307.771484375 171 312.771484375 175 317.771484375 177 c 0
 328.771484375 181 337.771484375 183 345.771484375 183 c 2
 351.771484375 183 l 2
 357.771484375 183 363.771484375 182 368.771484375 180 c 0
 373.771484375 178 376.771484375 175 380.771484375 170 c 0
 384.771484375 165 386.771484375 160 386.771484375 153 c 2
 386.771484375 153 385.771484375 152 385.771484375 151 c 0
 384.771484375 129 377.771484375 106 366.771484375 83 c 0
 361.771484375 73 353.771484375 65 342.771484375 60 c 0
 331.771484375 55 322.771484375 52 314.771484375 52 c 2
 311.771484375 52 l 2
 302.771484375 52 293.771484375 56 285.771484375 62 c 0
 280.771484375 67 277.771484375 73 277.771484375 80 c 2xe0
EndSplineSet
EndChar

StartChar: semicolon
Encoding: 59 59 37
Width: 620
GlyphClass: 2
Flags: HMW
HStem: 277 131<398.863 432.863 398.863 432.863>
VStem: 359.863 109<306 382 310 382>
LayerCount: 2
Fore
SplineSet
432.86328125 408 m 2
 441.86328125 408 451.86328125 406 460.86328125 401 c 0
 462.86328125 400 465.86328125 398 466.86328125 394 c 0
 467.86328125 390 468.86328125 386 468.86328125 382 c 2
 468.86328125 377 l 1
 464.86328125 356 456.86328125 334 445.86328125 310 c 0
 440.86328125 299 432.86328125 290 423.86328125 285 c 0
 414.86328125 280 406.86328125 277 399.86328125 277 c 2
 398.86328125 277 l 2
 382.86328125 279 370.86328125 285 363.86328125 294 c 0
 361.86328125 297 359.86328125 301 359.86328125 306 c 2
 359.86328125 310 l 2
 361.86328125 328 366.86328125 351 373.86328125 378 c 0
 375.86328125 384 379.86328125 390 383.86328125 394 c 0
 387.86328125 398 393.86328125 401 399.86328125 403 c 0
 405.86328125 405 410.86328125 407 415.86328125 407 c 0
 420.86328125 407 425.86328125 408 427.86328125 408 c 2
 432.86328125 408 l 2
380.86328125 77 m 0
 374.86328125 56 334.86328125 -30 260.86328125 -182 c 0
 255.86328125 -193 248.86328125 -201 240.86328125 -206 c 0
 232.86328125 -211 225.86328125 -213 218.86328125 -213 c 2
 216.86328125 -213 l 2
 207.86328125 -213 199.86328125 -210 193.86328125 -204 c 0
 191.86328125 -202 189.86328125 -198 189.86328125 -194 c 0
 189.86328125 -190 190.86328125 -187 191.86328125 -183 c 0
 196.86328125 -168 211.86328125 -129 237.86328125 -67 c 0
 263.86328125 -5 283.86328125 41 298.86328125 74 c 0
 302.86328125 83 305.86328125 90 309.86328125 95 c 0
 313.86328125 100 318.86328125 103 320.86328125 104 c 0
 327.86328125 106 333.86328125 107 338.86328125 107 c 0
 339.86328125 107 342.86328125 106 344.86328125 106 c 0
 355.86328125 106 365.86328125 104 374.86328125 99 c 0
 379.86328125 97 382.86328125 92 382.86328125 87 c 0
 382.86328125 85 381.86328125 81 380.86328125 77 c 0
EndSplineSet
EndChar

StartChar: less
Encoding: 60 60 38
Width: 620
GlyphClass: 2
Flags: HMW
HStem: 680 20G<640.046 646.046>
LayerCount: 2
Fore
SplineSet
669.045898438 669 m 0
 669.045898438 663 666.045898438 657 661.045898438 650 c 0
 652.045898438 639 635.045898438 626 612.045898438 611 c 0
 572.045898438 585 509.045898438 543 425.045898438 483 c 0
 341.045898438 423 282.045898438 383 251.045898438 362 c 1
 261.045898438 352 l 2
 281.045898438 332 302.045898438 307 325.045898438 279 c 0
 348.045898438 251 368.045898438 226 385.045898438 203 c 0
 402.045898438 180 420.045898438 155 441.045898438 131 c 0
 462.045898438 107 481.045898438 88 498.045898438 74 c 0
 518.045898438 58 527.045898438 45 527.045898438 35 c 0
 527.045898438 32 525.045898438 27 522.045898438 20 c 0
 519.045898438 15 515.045898438 10 509.045898438 7 c 0
 503.045898438 4 495.045898438 1 486.045898438 0 c 2
 480.045898438 0 l 2
 473.045898438 0 465.045898438 2 456.045898438 5 c 0
 443.045898438 10 428.045898438 21 410.045898438 38 c 0
 392.045898438 55 373.045898438 77 352.045898438 102 c 0
 331.045898438 127 312.045898438 152 292.045898438 178 c 0
 272.045898438 204 250.045898438 230 227.045898438 258 c 0
 204.045898438 286 185.045898438 308 168.045898438 324 c 0
 165.045898438 327 163.045898438 333 163.045898438 341 c 0
 163.045898438 351 165.045898438 361 170.045898438 370 c 0
 175.045898438 379 180.045898438 385 187.045898438 389 c 0
 229.045898438 418 279.045898438 454 336.045898438 496 c 0
 393.045898438 538 446.045898438 576 493.045898438 610 c 0
 540.045898438 644 581.045898438 671 616.045898438 691 c 0
 627.045898438 697 636.045898438 700 644.045898438 700 c 0
 648.045898438 700 652.045898438 700 654.045898438 698 c 0
 662.045898438 692 667.045898438 684 668.045898438 675 c 0
 668.045898438 673 669.045898438 671 669.045898438 669 c 0
EndSplineSet
EndChar

StartChar: equal
Encoding: 61 61 39
Width: 620
GlyphClass: 2
Flags: HMW
HStem: 259 50 259 58 455 61<281.581 286.581>
LayerCount: 2
Fore
SplineSet
287.081054688 516 m 2x20
 289.081054688 516.000976562 l 2
 325.399414062 514.829101562 365.149414062 514.34375 408.331054688 514.34375 c 0
 438.865234375 514.34375 471.115234375 514.5859375 505.081054688 515 c 0
 537.081054688 515 555.081054688 516 562.081054688 516 c 0
 572.081054688 516 579.081054688 515 580.081054688 513 c 0
 581.081054688 511 582.081054688 507 582.081054688 502 c 0
 582.081054688 495 580.081054688 487 577.081054688 479 c 0
 573.081054688 470 568.081054688 463 561.081054688 461 c 0
 558.081054688 460 555.081054688 459 553.081054688 459 c 2
 546.081054688 459 l 2
 532.081054688 459 519.081054688 460 507.081054688 460 c 2
 473.081054688 460 l 1
 370.081054688 457 l 2
 328.081054688 456 297.081054688 455 276.081054688 455 c 0
 265.081054688 455 256.081054688 458 251.081054688 463 c 0
 248.081054688 466 246.081054688 470 246.081054688 475 c 0
 246.081054688 477 247.081054688 480 247.081054688 482 c 0
 249.081054688 492 255.081054688 500 262.081054688 507 c 0
 269.081054688 513 276.081054688 516 287.081054688 516 c 2x20
247.081054688 317.000976562 m 2x60
 267.081054688 317.000976562 290.081054688 316.000976562 318.081054688 316.000976562 c 0
 346.081054688 316.000976562 379.081054688 318.000976562 419.081054688 318.000976562 c 2
 517.081054688 320.000976562 l 2
 528.081054688 320.000976562 534.081054688 318.000976562 535.081054688 316.000976562 c 0
 537.081054688 313.000976562 537.081054688 307.000976562 536.081054688 298.000976562 c 0
 534.081054688 288.000976562 531.081054688 280.000976562 526.081054688 273.000976562 c 0
 524.081054688 269.000976562 520.081054688 266.000976562 516.081054688 265.000976562 c 0
 512.081054688 264.000976562 509.081054688 264.000976562 507.081054688 264.000976562 c 2
 500.081054688 264.000976562 l 2
 485.081054688 264.000976562 468.081054688 265.000976562 448.081054688 265.000976562 c 0
 428.081054688 265.000976562 387.081054688 263.000976562 323.081054688 261.000976562 c 0
 279.081054688 260.000976562 246.081054688 259.000976562 226.081054688 259.000976562 c 0
 215.081054688 259.000976562 207.081054688 261.000976562 204.081054688 266.000976562 c 0
 202.081054688 269.000976562 201.081054688 273.000976562 201.081054688 278.000976562 c 0
 201.081054688 281.000976562 202.081054688 285.000976562 202.081054688 288.000976562 c 0
 203.081054688 296.000976562 208.081054688 303.000976562 216.081054688 309.000976562 c 0xa0
 224.081054688 315.000976562 233.081054688 317.000976562 245.081054688 317.000976562 c 2
 247.081054688 317.000976562 l 2x60
EndSplineSet
EndChar

StartChar: greater
Encoding: 62 62 40
Width: 620
GlyphClass: 2
Flags: HMW
HStem: 687 20G<281.654 287.654 287.654 291.154>
LayerCount: 2
Fore
SplineSet
287.654296875 707 m 2
 294.654296875 707 302.654296875 705 311.654296875 702 c 0
 324.654296875 697 339.654296875 686 358.654296875 669 c 0
 377.654296875 652 395.654296875 631 415.654296875 606 c 0
 435.654296875 581 455.654296875 555 475.654296875 529 c 0
 495.654296875 503 517.654296875 477 539.654296875 449 c 0
 561.654296875 421 582.654296875 399 599.654296875 383 c 0
 602.654296875 380 604.654296875 374 604.654296875 366 c 0
 604.654296875 356 602.654296875 346 597.654296875 337 c 0
 592.654296875 328 587.654296875 322 580.654296875 318 c 0
 538.654296875 290 488.654296875 254 431.654296875 212 c 0
 374.654296875 170 322.654296875 131 275.654296875 97 c 0
 228.654296875 63 186.654296875 36 151.654296875 16 c 0
 140.654296875 10 131.654296875 7 123.654296875 7 c 0
 118.654296875 7 115.654296875 7 113.654296875 9 c 0
 109.654296875 12 105.654296875 16 103.654296875 20 c 0
 101.654296875 24 99.654296875 26 99.654296875 30 c 0
 99.654296875 34 98.654296875 37 98.654296875 38 c 0
 98.654296875 44 101.654296875 50 106.654296875 57 c 0
 115.654296875 68 131.654296875 81 155.654296875 96 c 0
 196.654296875 122 259.654296875 164 343.654296875 224 c 0
 427.654296875 284 486.654296875 324 517.654296875 345 c 1
 506.654296875 355 l 2
 486.654296875 375 466.654296875 400 443.654296875 428 c 0
 420.654296875 456 400.654296875 481 383.654296875 504 c 0
 366.654296875 527 347.654296875 552 326.654296875 576 c 0
 305.654296875 600 287.654296875 619 269.654296875 633 c 0
 249.654296875 649 240.654296875 662 240.654296875 672 c 0
 240.654296875 677 242.654296875 682 245.654296875 687 c 0
 248.654296875 692 253.654296875 697 259.654296875 700 c 0
 265.654296875 703 272.654296875 706 281.654296875 707 c 2
 287.654296875 707 l 2
EndSplineSet
EndChar

StartChar: question
Encoding: 63 63 41
Width: 620
GlyphClass: 2
Flags: HMW
HStem: -2 130<259.602 323.602 267.102 323.602> 650 60<443.102 456.102>
VStem: 226.102 132<37.5 90.5> 539.102 69<578.5 582>
LayerCount: 2
Fore
SplineSet
608.102539062 588 m 0
 608.102539062 569 605.102539062 548 600.102539062 525 c 0
 596.102539062 508 589.102539062 493 581.102539062 479 c 0
 573.102539062 465 564.102539062 453 554.102539062 443 c 0
 544.102539062 433 532.102539062 424 519.102539062 415 c 0
 506.102539062 406 493.102539062 396 479.102539062 387 c 0
 465.102539062 378 453.102539062 368 440.102539062 357 c 0
 427.102539062 346 416.102539062 333 404.102539062 318 c 0
 392.102539062 303 383.102539062 286 376.102539062 267 c 0
 370.102539062 252 362.102539062 240 353.102539062 232 c 0
 348.102539062 227 342.102539062 225 335.102539062 225 c 0
 333.102539062 225 329.102539062 227 324.102539062 227 c 0
 319.102539062 228 314.102539062 231 311.102539062 233 c 0
 306.102539062 237 304.102539062 242 304.102539062 249 c 0
 304.102539062 259 308.102539062 272 315.102539062 287 c 0
 323.102539062 304 333.102539062 320 345.102539062 335 c 0
 357.102539062 350 367.102539062 364 379.102539062 375 c 0
 391.102539062 386 404.102539062 397 417.102539062 407 c 0
 430.102539062 417 443.102539062 427 455.102539062 436 c 0
 467.102539062 445 479.102539062 454 490.102539062 464 c 0
 501.102539062 474 510.102539062 485 518.102539062 497 c 0
 526.102539062 509 532.102539062 522 535.102539062 535 c 0
 538.102539062 548 539.102539062 560 539.102539062 571 c 0
 539.102539062 593 533.102539062 610 521.102539062 623 c 0
 503.102539062 641 475.102539062 650 437.102539062 650 c 0
 427.102539062 650 417.102539062 648 406.102539062 643 c 0
 395.102539062 638 385.102539062 633 377.102539062 627 c 0
 369.102539062 621 360.102539062 613 350.102539062 604 c 0
 340.102539062 595 332.102539062 587 327.102539062 581 c 0
 322.102539062 575 315.102539062 567 307.102539062 558 c 0
 294.102539062 543 284.102539062 534 277.102539062 534 c 0
 276.102539062 534 273.102539062 533 272.102539062 533 c 0
 271.102539062 533 268.102539062 534 266.102539062 535 c 0
 264.102539062 536 259.102539062 538 254.102539062 540 c 0
 249.102539062 543 246.102539062 548 246.102539062 555 c 0
 246.102539062 564 251.102539062 576 262.102539062 592 c 0
 282.102539062 619 308.102539062 645 339.102539062 669 c 0
 355.102539062 681 373.102539062 691 393.102539062 699 c 0
 413.102539062 707 433.102539062 710 453.102539062 710 c 0
 516.102539062 710 560.102539062 695 585.102539062 664 c 0
 600.102539062 645 608.102539062 620 608.102539062 588 c 0
358.102539062 85 m 0
 358.102539062 80 357.102539062 74 356.102539062 68 c 0
 352.102539062 49 343.102539062 34 328.102539062 21 c 0
 313.102539062 8 295.102539062 0 275.102539062 -2 c 2
 267.102539062 -2 l 2
 252.102539062 -2 242.102539062 3 235.102539062 13 c 0
 229.102539062 22 226.102539062 32 226.102539062 43 c 0
 226.102539062 48 227.102539062 54 228.102539062 61 c 0
 233.102539062 79 243.102539062 94 260.102539062 107 c 0
 278.102539062 121 296.102539062 128 316.102539062 128 c 0
 331.102539062 128 343.102539062 123 350.102539062 113 c 0
 355.102539062 105 358.102539062 96 358.102539062 85 c 0
EndSplineSet
EndChar

StartChar: at
Encoding: 64 64 42
Width: 620
GlyphClass: 2
Flags: HMW
HStem: -117 61<252.823 300.323 267.823 300.323> 114 53<466.323 497.323> 130 56<331.323 339.323> 394 52<399.823 429.323 399.823 429.323> 625 65<452.323 488.823 465.823 481.823>
VStem: 113.822 60<100 118.5> 244.823 53<198 229> 429.823 33 580.823 51<460 533.5>
LayerCount: 2
Fore
SplineSet
503.823242188 49 m 2xdf80
 503.823242188 47 501.823242188 42 499.823242188 36 c 0
 497.823242188 30 493.823242188 22 487.823242188 12 c 0
 482.823242188 3 477.823242188 -6 472.823242188 -13 c 0
 467.823242188 -20 461.823242188 -28 453.823242188 -38 c 0
 445.823242188 -48 437.823242188 -55 429.823242188 -62 c 0
 421.823242188 -69 412.823242188 -77 400.823242188 -84 c 0
 388.823242188 -91 376.823242188 -97 364.823242188 -102 c 0
 352.823242188 -107 337.823242188 -111 321.823242188 -113 c 0
 305.823242188 -115 289.823242188 -117 272.823242188 -117 c 2
 267.823242188 -117 l 2
 237.823242188 -117 210.823242188 -109 188.823242188 -93 c 0
 166.823242188 -77 148.823242188 -55 135.823242188 -26 c 0
 120.823242188 8 113.823242188 50 113.823242188 99 c 0
 113.823242188 138 117.823242188 180 128.823242188 225 c 0
 142.823242188 283 159.823242188 338 179.823242188 388 c 0
 199.823242188 438 220.823242188 481 243.823242188 518 c 0
 266.823242188 555 293.823242188 586 319.823242188 612 c 0
 345.823242188 638 372.823242188 658 399.823242188 671 c 0
 426.823242188 684 452.823242188 690 478.823242188 690 c 0
 498.823242188 690 516.823242188 689 531.823242188 686 c 0
 546.823242188 683 561.823242188 677 573.823242188 669 c 0
 585.823242188 661 595.823242188 652 603.823242188 640 c 0
 611.823242188 628 618.823242188 611 623.823242188 591 c 0
 628.823242188 571 631.823242188 547 631.823242188 520 c 0
 631.823242188 463 620.823242188 388 599.823242188 295 c 0
 588.823242188 248 572.823242188 206 551.823242188 171 c 0
 540.823242188 153 528.823242188 139 515.823242188 129 c 0
 502.823242188 119 488.823242188 114 474.823242188 114 c 0
 457.823242188 114 445.823242188 119 438.823242188 128 c 0
 432.823242188 136 429.823242188 148 429.823242188 163 c 0
 429.823242188 169 429.823242188 176 430.823242188 184 c 2
 439.823242188 251 l 1
 407.823242188 192 l 2
 385.823242188 150 356.823242188 130 321.823242188 130 c 0xbf80
 289.823242188 130 267.823242188 140 255.823242188 161 c 0
 248.823242188 173 244.823242188 188 244.823242188 208 c 0
 244.823242188 225 247.823242188 245 252.823242188 268 c 0
 257.823242188 291 265.823242188 312 275.823242188 333 c 0
 285.823242188 354 295.823242188 370 307.823242188 384 c 0
 319.823242188 398 332.823242188 410 345.823242188 420 c 0
 358.823242188 430 372.823242188 436 385.823242188 440 c 0
 398.823242188 444 410.823242188 446 421.823242188 446 c 0
 436.823242188 446 451.823242188 443 465.823242188 436 c 0
 476.823242188 431 484.823242188 425 489.823242188 417 c 0
 490.823242188 414 491.823242188 411 491.823242188 409 c 0
 491.823242188 407 490.823242188 405 489.823242188 403 c 0
 483.823242188 394 477.823242188 389 471.823242188 387 c 0
 466.823242188 386 461.823242188 385 458.823242188 385 c 0
 453.823242188 385 442.823242188 387 426.823242188 392 c 0
 419.823242188 393 413.823242188 394 409.823242188 394 c 2
 399.823242188 394 l 2
 389.823242188 393 379.823242188 389 369.823242188 383 c 0
 359.823242188 377 350.823242188 371 342.823242188 362 c 0
 334.823242188 353 326.823242188 343 319.823242188 329 c 0
 312.823242188 315 307.823242188 300 303.823242188 283 c 0
 299.823242188 266 297.823242188 252 297.823242188 241 c 2
 297.823242188 229 l 2
 297.823242188 217 301.823242188 207 307.823242188 199 c 0
 314.823242188 190 324.823242188 186 337.823242188 186 c 0
 360.823242188 186 379.823242188 195 394.823242188 215 c 0
 407.823242188 233 419.823242188 261 429.823242188 301 c 0
 430.823242188 307 438.823242188 313 451.823242188 318 c 0
 461.823242188 322 469.823242188 324 476.823242188 324 c 0
 480.823242188 324 484.823242188 323 486.823242188 322 c 2
 487.823242188 321 l 1
 487.823242188 321 486.823242188 319 486.823242188 317 c 0
 474.823242188 281 466.823242188 253 464.823242188 232 c 0
 463.823242188 222 462.823242188 213 462.823242188 205 c 0
 462.823242188 197 463.823242188 191 465.823242188 186 c 0
 467.823242188 179 472.823242188 174 477.823242188 171 c 0
 482.823242188 169 487.823242188 167 492.823242188 167 c 0xdf80
 501.823242188 167 510.823242188 173 518.823242188 186 c 0xbf80
 524.823242188 196 530.823242188 208 535.823242188 223 c 0
 544.823242188 248 551.823242188 272 556.823242188 293 c 0
 563.823242188 327 570.823242188 360 574.823242188 391 c 0
 578.823242188 422 580.823242188 449 580.823242188 471 c 0
 580.823242188 489 578.823242188 506 575.823242188 522 c 0
 572.823242188 538 569.823242188 552 565.823242188 563 c 0
 561.823242188 574 555.823242188 584 547.823242188 592 c 0
 539.823242188 600 532.823242188 607 525.823242188 611 c 0
 518.823242188 615 511.823242188 619 502.823242188 621 c 0
 493.823242188 623 486.823242188 625 481.823242188 625 c 2
 465.823242188 625 l 2
 438.823242188 625 411.823242188 617 384.823242188 599 c 0
 357.823242188 581 331.823242188 557 307.823242188 526 c 0
 283.823242188 495 261.823242188 457 241.823242188 413 c 0
 221.823242188 369 205.823242188 320 193.823242188 267 c 0
 180.823242188 208 173.823242188 156 173.823242188 112 c 0
 173.823242188 88 175.823242188 68 179.823242188 51 c 0
 185.823242188 27 194.823242188 6 205.823242188 -11 c 0
 216.823242188 -28 229.823242188 -39 243.823242188 -46 c 0
 257.823242188 -53 274.823242188 -56 291.823242188 -56 c 0
 308.823242188 -56 325.823242188 -54 340.823242188 -51 c 0
 355.823242188 -48 367.823242188 -43 378.823242188 -38 c 0
 389.823242188 -33 399.823242188 -26 410.823242188 -18 c 0
 421.823242188 -10 429.823242188 -1 435.823242188 6 c 0
 441.823242188 13 449.823242188 22 457.823242188 32 c 0
 462.823242188 39 466.823242188 44 470.823242188 48 c 0
 475.823242188 54 479.823242188 58 481.823242188 59 c 0
 483.823242188 59 485.823242188 61 487.823242188 62 c 0
 489.823242188 63 492.823242188 63 494.823242188 62 c 0
 496.823242188 61 499.823242188 59 500.823242188 58 c 0
 501.823242188 57 503.823242188 53 503.823242188 51 c 2
 503.823242188 49 l 2xdf80
487.823242188 321 m 1024
EndSplineSet
EndChar

StartChar: A
Encoding: 65 65 43
Width: 620
GlyphClass: 2
Flags: HMW
HStem: 276 43<470.267 470.267 470.267 480.267>
VStem: 475.267 72<66 126> 480.267 57 494.267 62
LayerCount: 2
Fore
SplineSet
467.266601562 276 m 1xa0
 392.266601562 273 322.266601562 265 260.266601562 253 c 1
 227.266601562 196 193.266601562 131 158.266601562 58 c 0
 149.266601562 40 140.266601562 28 129.266601562 23 c 0
 124.266601562 21 118.266601562 19 114.266601562 19 c 0
 110.266601562 19 107.266601562 20 104.266601562 21 c 0
 101.266601562 22 98.2666015625 25 97.2666015625 28 c 0
 96.2666015625 31 95.2666015625 35 95.2666015625 39 c 0
 95.2666015625 49 100.266601562 63 108.266601562 81 c 0
 117.266601562 102 147.266601562 157 201.266601562 245 c 1
 199.266601562 256 196.266601562 258 194.266601562 252 c 1
 189.266601562 255 187.266601562 259 187.266601562 263 c 0
 187.266601562 264 188.266601562 266 188.266601562 268 c 0
 189.266601562 275 193.266601562 282 202.266601562 289 c 0
 211.266601562 296 222.266601562 301 233.266601562 305 c 1
 234.266601562 314 236.266601562 315 237.266601562 307 c 1
 346.266601562 499 427.266601562 627 480.266601562 691 c 0
 491.266601562 704 501.266601562 712 508.266601562 717 c 0
 515.266601562 722 522.266601562 725 528.266601562 725 c 2
 529.266601562 725 l 1
 533.266601562 725 l 2
 540.266601562 725 545.266601562 723 550.266601562 720 c 0
 554.266601562 718 556.266601562 712 556.266601562 705 c 2x90
 556.266601562 700 l 1
 549.266601562 617 545.266601562 500 541.266601562 348 c 0
 539.266601562 289 537.266601562 241 537.266601562 201 c 0xa0
 537.266601562 137 540.266601562 98 544.266601562 84 c 0
 546.266601562 78 547.266601562 72 547.266601562 68 c 0xc0
 547.266601562 64 546.266601562 60 545.266601562 56 c 0
 542.266601562 47 536.266601562 41 531.266601562 35 c 0
 526.266601562 29 520.266601562 24 513.266601562 22 c 0
 508.266601562 20 505.266601562 19 502.266601562 19 c 0
 498.266601562 19 493.266601562 20 490.266601562 22 c 0
 483.266601562 26 478.266601562 37 476.266601562 54 c 0
 476.266601562 62 475.266601562 81 475.266601562 111 c 0
 475.266601562 141 478.266601562 197 480.266601562 276 c 1
 476.266601562 285 472.266601562 285 467.266601562 276 c 1xa0
471.266601562 610 m 2
 434.266601562 565 378.266601562 470 303.266601562 324 c 1
 293.266601562 303 l 1
 315.266601562 306 l 2
 373.266601562 313 424.266601562 318 470.266601562 319 c 2
 482.266601562 320 l 1
 494.266601562 637 l 1
 471.266601562 610 l 2
EndSplineSet
EndChar

StartChar: B
Encoding: 66 66 44
Width: 620
GlyphClass: 2
Flags: HMW
HStem: 310 47<324.212 328.212 328.212 329.212> 642 43<400.212 417.212 417.212 420.212>
VStem: 484.212 72<211 215.5 211 215.5> 526.212 62<533.5 538.5>
LayerCount: 2
Fore
SplineSet
554.211914062 201 m 2xd0
 549.211914062 177 538.211914062 153 521.211914062 130 c 0
 504.211914062 107 482.211914062 85 457.211914062 65 c 0
 433.211914062 45 403.211914062 28 369.211914062 14 c 0
 335.211914062 0 299.211914062 -10 260.211914062 -14 c 1
 254.024414062 -19.0625 247.836914062 -21.59375 241.649414062 -21.59375 c 2
 227.211914062 -17 l 1
 221.024414062 -22.0625 215.153320312 -24.59375 209.243164062 -24.59375 c 0
 204.645507812 -24.59375 200.024414062 -23.0625 195.211914062 -20 c 0
 175.211914062 -22 161.211914062 -23 151.211914062 -23 c 0
 145.211914062 -23 139.211914062 -22 133.211914062 -21 c 2
 131.211914062 -21 l 1
 128.211914062 -21 l 2
 120.211914062 -21 114.211914062 -18 111.211914062 -13 c 0
 109.211914062 -11 108.211914062 -7 108.211914062 -2 c 0
 108.211914062 3 109.211914062 8 111.211914062 14 c 0
 120.211914062 42 133.211914062 95 150.211914062 174 c 0
 167.211914062 253 184.211914062 335 200.211914062 419 c 0
 209.211914062 463 216.211914062 493 219.211914062 508 c 0
 222.211914062 523 227.211914062 544 234.211914062 570 c 0
 239.211914062 579 243.211914062 597 248.211914062 623 c 0
 251.211914062 639 257.211914062 651 265.211914062 658 c 0
 273.211914062 665 281.211914062 669 290.211914062 669 c 2
 294.211914062 669 l 1
 295.211914062 669 l 2
 306.211914062 672 316.211914062 675 326.211914062 677 c 0
 345.211914062 681 362.211914062 684 379.211914062 684 c 0
 388.211914062 684 395.211914062 685 400.211914062 685 c 2
 417.211914062 685 l 1
 427.211914062 685 l 2
 464.211914062 685 496.211914062 678 523.211914062 662 c 0
 550.211914062 646 568.211914062 624 579.211914062 595 c 0
 585.211914062 578 588.211914062 561 588.211914062 541 c 0
 588.211914062 526 586.211914062 509 582.211914062 492 c 0
 574.211914062 455 559.211914062 423 537.211914062 397 c 0
 515.211914062 371 489.211914062 352 460.211914062 340 c 1
 451.211914062 329 443.211914062 325 434.211914062 329 c 1
 440.671875 320.38671875 446.6171875 315.89453125 452.786132812 315.89453125 c 0
 455.211914062 315.89453125 457.671875 316.588867188 460.211914062 318 c 0
 477.211914062 311 494.211914062 300 510.211914062 287 c 0
 526.211914062 274 538.211914062 259 547.211914062 242 c 0
 553.211914062 231 556.211914062 220 556.211914062 211 c 2xe0
 554.211914062 201 l 2xd0
314.211914062 629 m 2
 308.211914062 627 l 1
 290.211914062 553 278.211914062 501 271.211914062 470 c 0
 264.211914062 439 257.211914062 402 248.211914062 360 c 1
 283.211914062 358 312.211914062 357 336.211914062 357 c 0
 354.211914062 357 371.211914062 359 386.211914062 362 c 0
 401.211914062 365 415.211914062 369 426.211914062 375 c 0
 437.211914062 381 448.211914062 388 458.211914062 397 c 0
 468.211914062 406 477.211914062 414 484.211914062 423 c 0
 491.211914062 432 497.211914062 441 502.211914062 451 c 0
 507.211914062 461 511.211914062 471 514.211914062 479 c 0
 517.211914062 487 521.211914062 496 523.211914062 506 c 0
 525.211914062 516 526.211914062 525 526.211914062 534 c 0xd0
 526.211914062 543 525.211914062 550 524.211914062 557 c 0
 521.211914062 574 515.211914062 587 506.211914062 598 c 0
 497.211914062 609 487.211914062 617 474.211914062 624 c 0
 454.211914062 636 432.211914062 642 408.211914062 642 c 0
 377.211914062 642 345.211914062 638 314.211914062 629 c 2
452.211914062 261 m 0
 441.211914062 271 425.211914062 280 404.211914062 289 c 0
 383.211914062 298 358.211914062 305 329.211914062 310 c 1
 328.211914062 310 l 2
 286.211914062 310 257.211914062 308 238.211914062 308 c 1
 216.211914062 194 199.211914062 109 188.211914062 54 c 1
 205.211914062 55 221.211914062 56 236.211914062 56 c 0
 251.211914062 56 262.211914062 57 269.211914062 57 c 0
 296.211914062 58 322.211914062 64 348.211914062 74 c 0
 374.211914062 84 396.211914062 94 414.211914062 108 c 0
 432.211914062 122 447.211914062 137 459.211914062 152 c 0
 472.211914062 167 480.211914062 182 483.211914062 196 c 0
 483.211914062 199 484.211914062 203 484.211914062 206 c 0xe0
 484.211914062 225 473.211914062 243 452.211914062 261 c 0
EndSplineSet
EndChar

StartChar: C
Encoding: 67 67 45
Width: 620
GlyphClass: 2
Flags: HMW
HStem: -31 67<261.505 311.505 272.505 311.505> 654 59<524.505 529.005> 701 21G
VStem: 126.505 77<126.5 190.5>
LayerCount: 2
Fore
SplineSet
279.504882812 -31 m 2xd0
 272.504882812 -31 l 2
 250.504882812 -31 230.504882812 -27 211.504882812 -18 c 0
 192.504882812 -9 177.504882812 2 165.504882812 17 c 0
 153.504882812 32 144.504882812 49 137.504882812 70 c 0
 130.504882812 91 126.504882812 114 126.504882812 139 c 0
 126.504882812 159 128.504882812 179 133.504882812 200 c 0
 144.504882812 249 159.504882812 297 179.504882812 343 c 0
 199.504882812 389 220.504882812 432 244.504882812 469 c 0
 266.504882812 506 290.504882812 540 316.504882812 571 c 0
 342.504882812 602 368.504882812 627 393.504882812 648 c 0
 418.504882812 669 444.504882812 685 468.504882812 696 c 0
 492.504882812 707 514.504882812 713 534.504882812 713 c 0
 555.504882812 713 573.504882812 710 590.504882812 705 c 1
 593.504882812 711 597.504882812 710 600.504882812 701 c 1xb0
 602.504882812 712 604.504882812 716 605.504882812 711 c 1
 609.504882812 720 614.504882812 727 621.504882812 732 c 0
 628.504882812 737 634.504882812 740 641.504882812 740 c 2
 646.504882812 741 l 2
 651.504882812 741 656.504882812 739 661.504882812 735 c 0
 667.504882812 730 670.504882812 723 670.504882812 713 c 0
 670.504882812 697 668.504882812 678 664.504882812 656 c 0
 663.504882812 647 661.504882812 635 657.504882812 621 c 0
 653.504882812 607 650.504882812 598 650.504882812 596 c 0
 648.504882812 583 640.504882812 570 629.504882812 557 c 0
 618.504882812 544 609.504882812 537 602.504882812 537 c 2
 597.504882812 537 l 2
 590.504882812 537 584.504882812 539 579.504882812 544 c 0
 575.504882812 547 573.504882812 552 573.504882812 558 c 0
 573.504882812 559 574.504882812 562 574.504882812 565 c 0
 575.504882812 571 580.504882812 588 587.504882812 616 c 0
 586.504882812 623 584.504882812 625 582.504882812 621 c 1
 579.504882812 623 573.504882812 629 564.504882812 637 c 0
 562.504882812 639 558.504882812 642 553.504882812 645 c 0
 544.504882812 651 534.504882812 654 523.504882812 654 c 0
 503.504882812 654 480.504882812 647 456.504882812 632 c 0
 432.504882812 617 408.504882812 596 384.504882812 570 c 0
 360.504882812 544 335.504882812 514 313.504882812 481 c 0
 291.504882812 448 270.504882812 409 252.504882812 367 c 0
 232.504882812 325 218.504882812 281 209.504882812 239 c 0
 205.504882812 219 203.504882812 200 203.504882812 181 c 0
 203.504882812 169 204.504882812 157 206.504882812 145 c 0
 210.504882812 114 220.504882812 88 238.504882812 68 c 0
 255.504882812 47 276.504882812 36 301.504882812 36 c 0
 321.504882812 36 339.504882812 38 359.504882812 43 c 0
 379.504882812 48 396.504882812 54 412.504882812 62 c 0
 428.504882812 70 442.504882812 76 454.504882812 84 c 0
 466.504882812 92 477.504882812 100 488.504882812 109 c 0
 496.504882812 114 503.504882812 119 508.504882812 121 c 0
 513.504882812 123 518.504882812 125 523.504882812 125 c 0
 526.504882812 125 529.504882812 124 531.504882812 122 c 0
 535.504882812 117 537.504882812 113 537.504882812 108 c 0
 537.504882812 97 529.504882812 82 512.504882812 64 c 0
 452.504882812 1 375.504882812 -31 279.504882812 -31 c 2xd0
EndSplineSet
EndChar

StartChar: D
Encoding: 68 68 46
Width: 620
GlyphClass: 2
Flags: HMW
HStem: -31 61<309.56 356.06 322.06 356.06> 712 21G<306.06 310.06 306.06 306.06>
VStem: 306.06 4<688 688 712 712> 525.06 65<341 379>
LayerCount: 2
Fore
SplineSet
310.059570312 712 m 1
 306.059570312 712 l 1
 307.059570312 726 309.059570312 732 310.059570312 730 c 2
 310.059570312 712 l 1
310.059570312 687 m 1
 321.059570312 686 334.059570312 683 347.059570312 680 c 0
 364.059570312 676 380.059570312 671 397.059570312 664 c 0
 414.059570312 657 431.059570312 647 450.059570312 635 c 0
 469.059570312 623 486.059570312 609 503.059570312 593 c 0
 520.059570312 577 534.059570312 557 548.059570312 533 c 0
 562.059570312 509 572.059570312 484 579.059570312 457 c 0
 586.059570312 430 590.059570312 398 590.059570312 363 c 0
 590.059570312 319 585.059570312 272 573.059570312 222 c 0
 567.059570312 200 559.059570312 176 548.059570312 153 c 0
 537.059570312 130 524.059570312 107 507.059570312 85 c 0
 490.059570312 63 473.059570312 43 454.059570312 26 c 0
 436.059570312 9 416.059570312 -6 395.059570312 -16 c 0
 374.059570312 -26 351.059570312 -31 330.059570312 -31 c 2
 322.059570312 -31 l 2
 297.059570312 -31 272.059570312 -29 247.059570312 -27 c 0
 222.059570312 -25 202.059570312 -21 186.059570312 -17 c 0
 170.059570312 -13 155.059570312 -9 142.059570312 -5 c 0
 129.059570312 -1 121.059570312 0 118.059570312 0 c 0
 110.059570312 0 104.059570312 3 101.059570312 8 c 0
 99.0595703125 10 98.0595703125 15 98.0595703125 20 c 0
 98.0595703125 25 99.0595703125 30 101.059570312 36 c 0
 110.059570312 68 124.059570312 125 143.059570312 207 c 0
 162.059570312 289 179.059570312 377 198.059570312 472 c 0
 205.059570312 509 211.059570312 533 214.059570312 545 c 0
 217.059570312 557 221.059570312 575 227.059570312 600 c 0
 233.059570312 625 237.059570312 640 238.059570312 645 c 0
 241.059570312 660 247.059570312 672 255.059570312 679 c 0
 263.059570312 686 271.059570312 690 280.059570312 690 c 0
 288.059570312 690 297.059570312 689 306.059570312 688 c 1
 301.059570312 654 295.059570312 628 289.059570312 611 c 0
 268.059570312 525 249.059570312 433 232.059570312 338 c 0
 224.059570312 287 216.059570312 243 207.059570312 208 c 0
 195.059570312 151 186.059570312 104 179.059570312 69 c 0
 181.059570312 60 185.059570312 58 187.059570312 65 c 1
 210.059570312 52 234.059570312 43 259.059570312 38 c 0
 284.059570312 33 314.059570312 30 347.059570312 30 c 0
 365.059570312 30 383.059570312 36 401.059570312 50 c 0
 419.059570312 64 435.059570312 81 449.059570312 102 c 0
 463.059570312 123 475.059570312 145 487.059570312 169 c 0
 499.059570312 193 508.059570312 218 513.059570312 241 c 0
 521.059570312 275 525.059570312 307 525.059570312 337 c 0
 525.059570312 421 496.059570312 489 436.059570312 540 c 0
 411.059570312 562 372.059570312 586 321.059570312 611 c 1
 321.059570312 616 l 1
 318.059570312 616 l 1
 318.059570312 617 l 1
 316.059570312 617 l 1
 316.059570312 618 l 1
 314.059570312 618 l 1
 314.059570312 619 l 1
 310.059570312 619 l 1
 310.059570312 687 l 1
EndSplineSet
EndChar

StartChar: E
Encoding: 69 69 47
Width: 620
GlyphClass: 2
Flags: HMW
HStem: -20 63<185.7 266.2> -6 66<455.2 501.7 461.7 501.7> 312 62<242.7 280.7> 332 57<534.2 563.7> 615 59<486.7 508.2 462.7 514.7>
VStem: 107.7 77<27.5 74.5>
LayerCount: 2
Fore
SplineSet
473.700195312 -6 m 2x4c
 461.700195312 -6 l 2
 448.700195312 -6 427.700195312 -7 396.700195312 -9 c 0
 301.700195312 -16 233.700195312 -20 195.700195312 -20 c 0xac
 175.700195312 -20 161.700195312 -19 148.700195312 -18 c 0
 137.700195312 -18 128.700195312 -11 119.700195312 0 c 0
 112.700195312 9 107.700195312 21 107.700195312 34 c 0
 107.700195312 47 114.700195312 81 127.700195312 136 c 0
 137.700195312 180 148.700195312 228 161.700195312 279 c 0
 174.700195312 330 185.700195312 388 198.700195312 451 c 0
 206.700195312 491 212.700195312 517 215.700195312 530 c 0
 218.700195312 543 223.700195312 562 230.700195312 587 c 0
 237.700195312 612 240.700195312 627 241.700195312 634 c 0
 245.700195312 649 251.700195312 660 259.700195312 668 c 0
 267.700195312 676 276.700195312 680 285.700195312 680 c 1
 286.700195312 672 288.700195312 672 289.700195312 680 c 0
 293.700195312 680 296.700195312 679 299.700195312 678 c 0
 302.700195312 677 305.700195312 674 306.700195312 670 c 0
 307.700195312 659 309.700195312 656 310.700195312 661 c 1
 312.700195312 654 315.700195312 654 317.700195312 663 c 1
 365.700195312 670 426.700195312 674 498.700195312 674 c 0
 517.700195312 674 533.700195312 673 550.700195312 673 c 0
 586.700195312 672 614.700195312 669 635.700195312 667 c 0
 646.700195312 665 653.700195312 662 655.700195312 659 c 0
 655.700195312 658 656.700195312 655 656.700195312 653 c 0
 656.700195312 651 655.700195312 647 655.700195312 643 c 0
 655.700195312 639 653.700195312 634 651.700195312 630 c 0
 646.700195312 621 641.700195312 614 634.700195312 612 c 0
 631.700195312 610 628.700195312 609 626.700195312 609 c 0
 624.700195312 609 622.700195312 610 620.700195312 610 c 0
 577.700195312 613 535.700195312 615 493.700195312 615 c 0
 479.700195312 615 464.700195312 614 449.700195312 614 c 0
 394.700195312 613 347.700195312 609 305.700195312 602 c 1
 303.700195312 593 299.700195312 593 297.700195312 601 c 1
 277.700195312 526 261.700195312 450 245.700195312 373 c 1
 250.700195312 366 254.700195312 366 259.700195312 374 c 1
 301.700195312 374 360.700195312 376 433.700195312 381 c 0
 507.700195312 386 548.700195312 389 558.700195312 389 c 0x1c
 568.700195312 389 574.700195312 386 576.700195312 384 c 0
 578.700195312 380 578.700195312 374 577.700195312 366 c 0
 575.700195312 355 570.700195312 346 565.700195312 341 c 0
 559.700195312 335 550.700195312 332 539.700195312 332 c 0
 528.700195312 332 482.700195312 329 403.700195312 322 c 0
 324.700195312 315 271.700195312 312 242.700195312 312 c 1xac
 239.700195312 303 234.700195312 303 232.700195312 311 c 1
 222.700195312 267 214.700195312 225 205.700195312 184 c 0
 191.700195312 122 184.700195312 82 184.700195312 67 c 0
 184.700195312 63 185.700195312 57 185.700195312 50 c 0
 187.700195312 41 190.700195312 41 192.700195312 48 c 1
 197.700195312 46 204.700195312 44 214.700195312 44 c 0
 223.700195312 44 237.700195312 43 256.700195312 43 c 0
 275.700195312 43 301.700195312 44 333.700195312 45 c 0
 408.700195312 49 458.700195312 53 481.700195312 58 c 0
 489.700195312 59 495.700195312 60 499.700195312 60 c 0
 503.700195312 60 507.700195312 59 509.700195312 58 c 0
 511.700195312 57 513.700195312 55 514.700195312 54 c 0
 515.700195312 53 516.700195312 50 516.700195312 47 c 0
 516.700195312 44 517.700195312 41 517.700195312 39 c 0
 517.700195312 37 516.700195312 33 516.700195312 31 c 0
 514.700195312 20 509.700195312 11 501.700195312 3 c 0
 496.700195312 -4 488.700195312 -7 479.700195312 -7 c 0
 477.700195312 -7 475.700195312 -6 473.700195312 -6 c 2x4c
EndSplineSet
EndChar

StartChar: F
Encoding: 70 70 48
Width: 620
GlyphClass: 2
Flags: HMW
HStem: 323 60<341.53 354.53> 619 63
LayerCount: 2
Fore
SplineSet
638.530273438 677 m 0
 649.530273438 676 655.530273438 673 656.530273438 671 c 0
 658.530273438 668 659.530273438 662 658.530273438 654 c 0
 656.530273438 645 650.530273438 636 643.530273438 629 c 0
 637.530273438 622 629.530273438 619 618.530273438 619 c 2
 616.530273438 619 l 2
 583.530273438 621 549.530273438 622 514.530273438 622 c 0
 449.530273438 622 377.530273438 618 298.530273438 611 c 1
 282.530273438 544 271.530273438 498 265.530273438 472 c 0
 259.530273438 446 252.530273438 414 244.530273438 376 c 1
 249.530273438 369 255.530273438 369 260.530273438 378 c 1
 285.530273438 381 312.530273438 383 341.530273438 383 c 2
 362.530273438 383 l 2
 399.530273438 382 432.530273438 379 462.530273438 376 c 0
 492.530273438 373 515.530273438 370 532.530273438 367 c 0
 538.530273438 366 542.530273438 363 545.530273438 362 c 0
 548.530273438 361 551.530273438 359 551.530273438 359 c 2
 552.530273438 357 553.530273438 354 553.530273438 350 c 2
 553.530273438 344 l 2
 551.530273438 335 546.530273438 326 540.530273438 319 c 0
 536.530273438 313 529.530273438 310 520.530273438 310 c 2
 518.530273438 310 l 2
 501.530273438 313 475.530273438 317 443.530273438 319 c 0
 411.530273438 321 374.530273438 323 334.530273438 323 c 0
 296.530273438 323 265.530273438 320 239.530273438 316 c 1
 237.530273438 307 234.530273438 307 232.530273438 315 c 1
 212.530273438 207 192.530273438 107 172.530273438 15 c 0
 168.530273438 4 161.530273438 -5 151.530273438 -12 c 0
 141.530273438 -19 131.530273438 -22 121.530273438 -22 c 0
 120.530273438 -22 118.530273438 -21 118.530273438 -21 c 2
 110.530273438 -21 104.530273438 -18 101.530273438 -13 c 0
 99.5302734375 -11 98.5302734375 -7 98.5302734375 -2 c 0
 98.5302734375 3 99.5302734375 8 101.530273438 14 c 0
 110.530273438 43 122.530273438 100 141.530273438 183 c 0
 160.530273438 266 178.530273438 352 195.530273438 440 c 0
 204.530273438 484 211.530273438 515 214.530273438 530 c 0
 217.530273438 545 221.530273438 565 228.530273438 591 c 0
 233.530273438 601 238.530273438 619 243.530273438 645 c 0
 246.530273438 660 252.530273438 672 260.530273438 679 c 0
 268.530273438 686 277.530273438 690 286.530273438 690 c 2
 290.530273438 690 l 2
 295.530273438 690 298.530273438 689 301.530273438 688 c 0
 304.530273438 687 307.530273438 684 308.530273438 680 c 0
 308.530273438 669 310.530273438 667 311.530273438 672 c 1
 387.530273438 679 458.530273438 682 524.530273438 682 c 0
 569.530273438 682 607.530273438 680 638.530273438 677 c 0
EndSplineSet
EndChar

StartChar: G
Encoding: 71 71 49
Width: 620
GlyphClass: 2
Flags: HMW
HStem: -31 67<259.646 308.646 270.646 308.646> 289 59<521.146 561.646> 666 58<526.146 530.146>
VStem: 124.646 78<126.5 190.5>
LayerCount: 2
Fore
SplineSet
646.645507812 687 m 0
 654.645507812 682 659.645507812 677 661.645507812 674 c 0
 664.645507812 669 665.645507812 664 665.645507812 658 c 0
 665.645507812 650 663.645507812 640 657.645507812 629 c 0
 655.645507812 623 648.645507812 618 641.645507812 615 c 0
 637.645507812 614 634.645507812 613 632.645507812 613 c 0
 630.645507812 613 626.645507812 615 622.645507812 615 c 0
 619.645507812 616 612.645507812 621 601.645507812 630 c 0
 590.645507812 639 577.645507812 647 563.645507812 654 c 0
 549.645507812 662 536.645507812 666 523.645507812 666 c 0
 503.645507812 666 481.645507812 658 457.645507812 643 c 0
 433.645507812 628 409.645507812 607 384.645507812 580 c 0
 359.645507812 553 334.645507812 522 312.645507812 487 c 0
 290.645507812 452 269.645507812 413 251.645507812 370 c 0
 231.645507812 327 216.645507812 283 207.645507812 239 c 0
 203.645507812 219 202.645507812 200 202.645507812 181 c 0
 202.645507812 169 202.645507812 157 204.645507812 145 c 0
 208.645507812 114 220.645507812 89 237.645507812 68 c 0
 255.645507812 47 275.645507812 36 300.645507812 36 c 0
 316.645507812 36 332.645507812 42 350.645507812 54 c 0
 368.645507812 66 386.645507812 80 401.645507812 97 c 0
 416.645507812 114 431.645507812 132 446.645507812 153 c 0
 461.645507812 174 474.645507812 195 485.645507812 215 c 0
 496.645507812 235 506.645507812 253 513.645507812 270 c 0
 515.645507812 275 518.645507812 281 520.645507812 289 c 1
 513.645507812 287 507.645507812 287 501.645507812 288 c 0
 464.645507812 286 428.645507812 282 391.645507812 276 c 0
 354.645507812 270 328.645507812 263 312.645507812 254 c 0
 309.645507812 252 306.645507812 250 304.645507812 250 c 0
 302.645507812 250 300.645507812 251 298.645507812 253 c 0
 294.645507812 257 291.645507812 262 291.645507812 268 c 2
 291.645507812 270 l 2
 292.645507812 291 305.645507812 308 330.645507812 320 c 0
 347.645507812 329 383.645507812 337 436.645507812 342 c 0
 476.645507812 346 508.645507812 348 533.645507812 348 c 0
 559.645507812 348 574.645507812 347 580.645507812 345 c 2
 586.645507812 341 l 2
 588.645507812 339 590.645507812 336 590.645507812 331 c 2
 590.645507812 328 l 2
 589.645507812 318 586.645507812 310 582.645507812 304 c 0
 578.645507812 298 573.645507812 293 566.645507812 291 c 0
 564.645507812 289 562.645507812 289 560.645507812 289 c 0
 559.645507812 282 557.645507812 275 554.645507812 266 c 0
 551.645507812 257 549.645507812 249 548.645507812 244 c 0
 543.645507812 230 536.645507812 214 527.645507812 195 c 0
 518.645507812 176 506.645507812 157 492.645507812 136 c 0
 478.645507812 115 463.645507812 94 445.645507812 74 c 0
 427.645507812 54 409.645507812 36 390.645507812 20 c 0
 371.645507812 4 352.645507812 -9 331.645507812 -18 c 0
 310.645507812 -27 291.645507812 -31 272.645507812 -31 c 2
 270.645507812 -31 l 2
 248.645507812 -31 228.645507812 -27 209.645507812 -18 c 0
 190.645507812 -9 176.645507812 2 164.645507812 17 c 0
 152.645507812 32 143.645507812 49 136.645507812 70 c 0
 129.645507812 91 124.645507812 114 124.645507812 139 c 0
 124.645507812 159 127.645507812 179 132.645507812 200 c 0
 144.645507812 251 159.645507812 300 179.645507812 347 c 0
 199.645507812 394 220.645507812 437 244.645507812 475 c 0
 266.645507812 513 290.645507812 548 316.645507812 580 c 0
 342.645507812 612 367.645507812 638 393.645507812 659 c 0
 419.645507812 680 444.645507812 696 468.645507812 707 c 0
 492.645507812 718 515.645507812 724 536.645507812 724 c 0
 558.645507812 724 585.645507812 718 612.645507812 705 c 0
 627.645507812 698 638.645507812 692 646.645507812 687 c 0
EndSplineSet
EndChar

StartChar: H
Encoding: 72 72 50
Width: 620
GlyphClass: 2
Flags: HMW
HStem: 312 62<248.897 291.397 248.897 291.397>
LayerCount: 2
Fore
SplineSet
248.896484375 312 m 1
 246.896484375 304 244.896484375 297 243.896484375 293 c 0
 242.896484375 289 240.896484375 285 240.896484375 282 c 0
 221.896484375 215 201.896484375 126 179.896484375 15 c 0
 175.896484375 4 168.896484375 -5 158.896484375 -12 c 0
 148.896484375 -19 137.896484375 -22 128.896484375 -22 c 0
 127.896484375 -22 125.896484375 -21 125.896484375 -21 c 2
 118.896484375 -21 112.896484375 -18 108.896484375 -13 c 0
 106.896484375 -11 105.896484375 -7 105.896484375 -2 c 0
 105.896484375 3 106.896484375 8 108.896484375 14 c 0
 113.896484375 31 124.896484375 76 141.896484375 148 c 0
 150.896484375 186 164.896484375 248 186.896484375 334 c 0
 197.896484375 376 205.896484375 407 210.896484375 428 c 0
 215.896484375 449 221.896484375 479 230.896484375 520 c 0
 237.896484375 554 242.896484375 573 242.896484375 577 c 0
 244.896484375 586 246.896484375 597 250.896484375 612 c 0
 254.896484375 627 256.896484375 638 258.896484375 645 c 0
 262.896484375 660 269.896484375 672 277.896484375 679 c 0
 285.896484375 686 294.896484375 690 303.896484375 690 c 1
 303.896484375 682 305.896484375 682 305.896484375 690 c 1
 313.896484375 690 319.896484375 688 323.896484375 683 c 0
 325.896484375 680 327.896484375 675 327.896484375 670 c 0
 327.896484375 665 326.896484375 659 325.896484375 653 c 0
 324.896484375 647 319.896484375 633 313.896484375 611 c 0
 307.896484375 589 302.896484375 569 298.896484375 550 c 0
 294.896484375 531 289.896484375 506 282.896484375 470 c 0
 275.896484375 434 269.896484375 402 262.896484375 373 c 1
 267.896484375 366 270.896484375 366 275.896484375 374 c 1
 306.896484375 374 338.896484375 375 371.896484375 379 c 0
 404.896484375 383 433.896484375 388 460.896484375 392 c 0
 487.896484375 396 508.896484375 399 523.896484375 400 c 1
 525.896484375 411 527.896484375 421 528.896484375 430 c 0
 529.896484375 439 532.896484375 445 533.896484375 450 c 0
 539.896484375 470 544.896484375 497 550.896484375 533 c 0
 553.896484375 546 559.896484375 566 566.896484375 594 c 0
 573.896484375 622 579.896484375 639 580.896484375 645 c 0
 584.896484375 660 590.896484375 672 599.896484375 679 c 0
 608.896484375 686 616.896484375 690 625.896484375 690 c 1
 625.896484375 682 627.896484375 682 628.896484375 690 c 1
 637.896484375 690 644.896484375 688 648.896484375 683 c 0
 650.896484375 680 652.896484375 675 652.896484375 670 c 0
 652.896484375 665 651.896484375 657 649.896484375 648 c 0
 647.896484375 639 641.896484375 616 631.896484375 576 c 0
 621.896484375 536 613.896484375 502 606.896484375 472 c 0
 599.896484375 442 590.896484375 399 578.896484375 343 c 0
 569.896484375 297 554.896484375 236 534.896484375 161 c 0
 515.896484375 85 504.896484375 36 499.896484375 15 c 0
 496.896484375 4 489.896484375 -5 480.896484375 -12 c 0
 471.896484375 -19 462.896484375 -22 453.896484375 -22 c 0
 452.896484375 -22 450.896484375 -21 450.896484375 -21 c 2
 443.896484375 -21 437.896484375 -18 434.896484375 -13 c 0
 433.896484375 -11 431.896484375 -7 431.896484375 -2 c 0
 431.896484375 3 432.896484375 8 434.896484375 14 c 0
 460.896484375 107 484.896484375 211 508.896484375 327 c 1
 508.896484375 325 511.896484375 330 512.896484375 343 c 1
 507.896484375 334 502.896484375 334 497.896484375 342 c 1
 487.896484375 342 450.896484375 337 388.896484375 327 c 0
 326.896484375 317 280.896484375 312 255.896484375 312 c 2
 248.896484375 312 l 1
EndSplineSet
EndChar

StartChar: I
Encoding: 73 73 51
Width: 620
GlyphClass: 2
Flags: HMW
HStem: -14 56<118.327 141.327> -6 53<370.828 372.827 348.327 387.828> 625 59<283.827 285.327 285.327 290.327 283.827 328.327>
LayerCount: 2
Fore
SplineSet
411.327148438 -7 m 0x60
 407.327148438 -7 396.328125 -6 379.328125 -6 c 0
 362.328125 -6 340.328125 -7 311.328125 -8 c 1
 290.583984375 -13.333984375 269.83984375 -16.208984375 249.095703125 -16.208984375 c 2
 206.327148438 -12 l 1
 166.327148438 -13 139.327148438 -14 125.327148438 -14 c 0xa0
 111.327148438 -14 103.327148438 -12 99.3271484375 -8 c 0
 97.3271484375 -6 96.3271484375 -2 96.3271484375 1 c 0
 96.3271484375 3 97.3271484375 6 97.3271484375 8 c 0
 98.3271484375 17 102.327148438 26 109.327148438 32 c 0
 116.327148438 38 128.327148438 42 141.327148438 42 c 0
 168.327148438 43 215.327148438 45 283.327148438 47 c 1x60
 315.327148438 166 343.327148438 290 368.327148438 418 c 0
 374.327148438 448 377.327148438 465 377.327148438 470 c 0
 379.327148438 481 384.327148438 501 391.327148438 532 c 0
 393.327148438 541 396.327148438 555 401.327148438 575 c 0
 406.327148438 595 411.327148438 607 411.327148438 610 c 1
 411.327148438 607 413.327148438 611 414.327148438 624 c 1
 378.327148438 624 349.327148438 625 328.327148438 625 c 2
 285.327148438 625 l 2
 277.327148438 625 271.327148438 624 271.327148438 624 c 2
 261.327148438 624 254.327148438 626 251.327148438 631 c 0
 249.327148438 633 248.327148438 637 248.327148438 642 c 2
 248.327148438 649 l 2
 249.327148438 658 254.327148438 666 261.327148438 673 c 0
 268.327148438 680 277.327148438 684 290.327148438 684 c 0
 339.327148438 685 384.327148438 686 426.327148438 686 c 0
 509.327148438 686 579.327148438 683 637.327148438 676 c 0
 645.327148438 676 651.327148438 673 655.327148438 670 c 0
 659.327148438 667 661.327148438 663 661.327148438 657 c 0
 661.327148438 655 660.327148438 652 660.327148438 650 c 0
 658.327148438 641 652.327148438 631 644.327148438 622 c 0
 641.327148438 618 637.327148438 615 632.327148438 613 c 0
 629.327148438 612 626.327148438 611 624.327148438 611 c 0
 622.327148438 611 621.327148438 612 619.327148438 612 c 0
 602.327148438 614 554.327148438 618 477.327148438 623 c 1
 472.327148438 596 468.327148438 578 464.327148438 568 c 0
 448.327148438 504 433.327148438 436 420.327148438 365 c 0
 411.327148438 318 398.327148438 258 381.327148438 188 c 0
 364.327148438 118 353.327148438 71 348.327148438 47 c 1
 361.327148438 47 l 2
 384.327148438 47 431.327148438 46 500.327148438 46 c 0
 509.327148438 46 516.327148438 44 517.327148438 42 c 0xa0
 518.327148438 40 519.327148438 36 519.327148438 31 c 2
 519.327148438 23 l 2
 517.327148438 13 512.327148438 5 507.327148438 -2 c 0
 505.327148438 -6 502.327148438 -8 499.327148438 -9 c 0
 496.327148438 -10 493.327148438 -12 491.327148438 -12 c 0
 489.327148438 -12 486.327148438 -11 484.327148438 -11 c 0
 469.327148438 -9 446.327148438 -7 411.327148438 -7 c 0x60
EndSplineSet
EndChar

StartChar: J
Encoding: 74 74 52
Width: 620
GlyphClass: 2
Flags: HMW
HStem: -35 77<284.767 292.267> 611 65<625.767 643.767> 625 59<288.767 292.767 292.767 294.767 288.767 350.767>
VStem: 127.767 63<150 170.5 159.5 161.5>
LayerCount: 2
Fore
SplineSet
315.766601562 52 m 0xb0
 321.766601562 59 327.766601562 69 334.766601562 83 c 0
 347.766601562 112 362.766601562 159 377.766601562 224 c 0
 380.766601562 237 391.766601562 284 407.766601562 366 c 0
 423.766601562 445 440.766601562 531 461.766601562 623 c 1
 414.766601562 625 378.766601562 625 350.766601562 625 c 2
 292.766601562 625 l 2
 281.766601562 625 276.766601562 624 276.766601562 624 c 2
 266.766601562 624 259.766601562 626 256.766601562 631 c 0
 254.766601562 633 251.766601562 637 251.766601562 642 c 0
 251.766601562 644 252.766601562 647 252.766601562 649 c 0
 253.766601562 658 258.766601562 666 265.766601562 673 c 0
 272.766601562 680 282.766601562 684 294.766601562 684 c 0
 343.766601562 685 388.766601562 686 429.766601562 686 c 0
 511.766601562 686 581.766601562 683 639.766601562 676 c 0xd0
 647.766601562 676 653.766601562 673 657.766601562 670 c 0
 661.766601562 667 662.766601562 663 662.766601562 657 c 0
 662.766601562 655 661.766601562 652 661.766601562 650 c 0
 659.766601562 641 654.766601562 631 646.766601562 622 c 0
 642.766601562 618 639.766601562 615 634.766601562 613 c 0
 632.766601562 612 628.766601562 611 626.766601562 611 c 0
 624.766601562 611 621.766601562 612 619.766601562 612 c 0
 598.766601562 615 564.766601562 619 513.766601562 621 c 1
 507.766601562 595 500.766601562 563 493.766601562 523 c 0
 487.766601562 479 480.766601562 443 473.766601562 416 c 0
 467.766601562 384 460.766601562 349 452.766601562 309 c 0
 444.766601562 269 436.766601562 235 428.766601562 206 c 0
 411.766601562 146 393.766601562 98 376.766601562 62 c 0
 359.766601562 26 344.766601562 0 329.766601562 -14 c 0
 314.766601562 -28 299.766601562 -35 284.766601562 -35 c 0
 266.766601562 -35 248.766601562 -31 232.766601562 -24 c 0
 215.766601562 -17 201.766601562 -7 190.766601562 5 c 0
 179.766601562 17 169.766601562 31 160.766601562 46 c 0
 151.766601562 61 145.766601562 76 140.766601562 91 c 0
 135.766601562 106 131.766601562 118 130.766601562 129 c 0
 129.766601562 140 127.766601562 146 127.766601562 150 c 2
 127.766601562 159 l 2
 127.766601562 164 129.766601562 170 131.766601562 177 c 0
 133.766601562 184 136.766601562 191 139.766601562 197 c 0
 142.766601562 203 146.766601562 209 152.766601562 213 c 0
 158.766601562 217 165.766601562 221 172.766601562 222 c 0
 175.766601562 222 178.766601562 223 180.766601562 223 c 0
 185.766601562 223 189.766601562 221 191.766601562 218 c 0
 193.766601562 215 195.766601562 210 195.766601562 205 c 0
 195.766601562 203 194.766601562 199 194.766601562 196 c 0
 192.766601562 187 190.766601562 176 190.766601562 165 c 0
 190.766601562 154 192.766601562 142 195.766601562 128 c 0
 198.766601562 114 203.766601562 100 210.766601562 87 c 0
 217.766601562 74 229.766601562 64 244.766601562 55 c 0
 258.766601562 46 274.766601562 42 294.766601562 42 c 0
 301.766601562 42 309.766601562 45 315.766601562 52 c 0xb0
EndSplineSet
EndChar

StartChar: K
Encoding: 75 75 53
Width: 620
GlyphClass: 2
Flags: HMW
HStem: -22 21G<131.563 137.063> 695 20G<618.062 621.062>
LayerCount: 2
Fore
SplineSet
109.063476562 10 m 0
 109.063476562 13 110.0625 18 112.0625 23 c 0
 121.0625 53 134.0625 110 153.0625 193 c 0
 171.0625 277 188.0625 363 206.0625 452 c 0
 215.0625 496 222.0625 526 225.0625 541 c 0
 227.0625 556 233.0625 578 240.0625 607 c 0
 247.0625 635 252.0625 653 253.0625 660 c 0
 257.0625 678 263.0625 691 271.0625 700 c 0
 279.0625 709 287.0625 714 296.0625 714 c 1
 297.0625 722 299.0625 722 299.0625 714 c 1
 307.0625 714 313.0625 711 317.0625 703 c 0
 319.0625 698 320.0625 692 320.0625 683 c 0
 320.0625 678 319.0625 674 318.0625 669 c 0
 315.0625 653 307.0625 618 294.0625 564 c 0
 281.0625 509 268.0625 452 255.0625 391 c 1
 397.0625 530 l 2
 438.0625 573 478.0625 611 520.0625 642 c 0
 553.0625 670 574.0625 688 583.0625 695 c 0
 592.0625 704 601.0625 710 608.0625 712 c 0
 613.0625 714 617.0625 715 619.0625 715 c 0
 623.0625 715 627.0625 711 630.0625 703 c 0
 632.0625 698 633.0625 692 633.0625 685 c 0
 633.0625 676 624.0625 665 607.0625 651 c 0
 595.0625 639 555.0625 603 486.0625 542 c 1
 422.0625 478 362.0625 419 307.0625 366 c 1
 312.0625 357 l 2
 326.0625 334 351.0625 296 387.0625 245 c 0
 423.0625 191 453.0625 145 478.0625 106 c 0
 503.041015625 71.0302734375 518.041992188 48.0400390625 520.063476562 39.0234375 c 0
 519.948242188 28.3505859375 517.916015625 17.7333984375 513.063476562 9 c 0
 509.063476562 0 504.063476562 -8 497.063476562 -13 c 0
 490.063476562 -18 485.063476562 -21 480.063476562 -21 c 0
 472.063476562 -21 465.063476562 -13 459.063476562 4 c 0
 455.063476562 13 439.063476562 36 412.063476562 73 c 0
 385.063476562 110 356.063476562 152 325.063476562 196 c 0
 294.063476562 245 272.063476562 283 259.063476562 310 c 2
 245.063476562 337 l 1
 234.063476562 286 l 1
 183.063476562 24 l 2
 179.063476562 9 172.063476562 -2 162.063476562 -10 c 0
 152.063476562 -18 142.063476562 -22 132.063476562 -22 c 0
 131.063476562 -22 129.063476562 -21 129.063476562 -21 c 2
 121.063476562 -21 115.063476562 -17 112.063476562 -8 c 0
 110.063476562 -3 109.063476562 3 109.063476562 10 c 0
EndSplineSet
EndChar

StartChar: L
Encoding: 76 76 54
Width: 620
GlyphClass: 2
Flags: HMW
HStem: -15 62.9962
LayerCount: 2
Fore
SplineSet
522.440429688 72 m 0
 525.440429688 63 526.439453125 54 525.439453125 44 c 0
 523.439453125 35 518.439453125 27 513.439453125 22 c 0
 508.439453125 17 498.439453125 12 484.439453125 10 c 0
 441.439453125 1 381.439453125 -5 304.439453125 -9 c 0
 225.439453125 -13 165.439453125 -15 125.439453125 -15 c 0
 117.439453125 -15 111.439453125 -12 108.439453125 -7 c 0
 106.439453125 -5 105.439453125 -1 105.439453125 4 c 0
 105.439453125 9 106.439453125 14 108.439453125 20 c 0
 121.439453125 51 133.439453125 89 146.439453125 135 c 0
 169.439453125 206 190.439453125 275 208.439453125 341 c 0
 217.439453125 372 229.439453125 427 244.439453125 506 c 0
 259.439453125 585 267.439453125 629 268.439453125 636 c 0
 272.439453125 652 278.439453125 664 286.439453125 671 c 0
 294.439453125 678 302.439453125 682 310.439453125 682 c 1
 311.439453125 674 313.439453125 674 313.439453125 682 c 1
 320.439453125 682 326.439453125 679 330.439453125 674 c 0
 332.439453125 672 333.439453125 668 333.439453125 662 c 0
 333.439453125 656 332.439453125 650 331.439453125 645 c 0
 327.439453125 626 322.439453125 600 314.439453125 567 c 0
 305.439453125 517 295.439453125 475 285.439453125 441 c 0
 274.439453125 389 264.439453125 345 254.439453125 309 c 0
 248.439453125 281 238.439453125 240 223.439453125 187 c 0
 207.439453125 134 196.439453125 92 189.439453125 62 c 0
 188.8515625 54.35546875 187.91796875 49.8232421875 187.044921875 47.99609375 c 1
 201.0859375 47.9287109375 209.62109375 47 214.440429688 47 c 0
 258.440429688 47 310.440429688 51 370.440429688 58 c 0
 434.440429688 65 480.440429688 72 505.440429688 78 c 1
 512.440429688 78 l 2
 517.440429688 78 520.440429688 76 522.440429688 72 c 0
EndSplineSet
EndChar

StartChar: M
Encoding: 77 77 55
Width: 620
GlyphClass: 2
Flags: HMW
HStem: 664 20G
VStem: 104.735 1<-14.5 -10> 481.736 62<39 84 51.5 71>
LayerCount: 2
Fore
SplineSet
301.736328125 -7 m 1
 294.736328125 -7 289.736328125 -5 286.736328125 -1 c 0
 283.736328125 4 280.736328125 11 280.736328125 19 c 0
 280.736328125 51 285.736328125 124 294.736328125 239 c 0
 303.736328125 354 311.736328125 464 320.736328125 570 c 0
 322.736328125 610 327.736328125 648 330.736328125 684 c 1
 320.736328125 651 309.736328125 616 298.736328125 578 c 0
 283.736328125 529 268.736328125 470 250.736328125 403 c 0
 240.736328125 364 227.736328125 316 211.736328125 257 c 0
 202.736328125 224 193.736328125 194 185.736328125 167 c 0
 175.736328125 137 167.736328125 113 162.736328125 95 c 0
 157.736328125 78 152.736328125 65 151.736328125 58 c 0
 147.736328125 37 140.736328125 20 130.736328125 8 c 0
 121.736328125 -4 114.736328125 -10 105.736328125 -10 c 1
 105.736328125 -19 104.736328125 -19 104.736328125 -10 c 1
 103.736328125 -10 101.736328125 -8 100.736328125 -7 c 0
 96.736328125 -5 93.736328125 6 93.736328125 25 c 0
 93.736328125 33 96.736328125 44 99.736328125 58 c 0
 101.736328125 66 104.736328125 79 110.736328125 98 c 0
 116.736328125 118 125.736328125 144 136.736328125 178 c 0
 147.736328125 214 157.736328125 241 162.736328125 260 c 2
 209.736328125 412 l 2
 217.736328125 441 226.736328125 477 239.736328125 519 c 0
 263.736328125 601 281.736328125 649 292.736328125 666 c 0
 299.736328125 679 307.736328125 689 318.736328125 695 c 0
 329.736328125 701 339.736328125 704 347.736328125 704 c 2
 351.736328125 704 l 1
 352.736328125 704 l 2
 361.736328125 704 368.736328125 702 373.736328125 697 c 0
 378.736328125 691 379.736328125 681 379.736328125 667 c 2
 379.736328125 659 l 2
 379.736328125 606 368.736328125 483 346.736328125 291 c 0
 336.736328125 198 330.736328125 137 328.736328125 107 c 1
 335.736328125 97 343.736328125 95 350.736328125 102 c 1
 376.736328125 201 400.736328125 289 423.736328125 368 c 0
 440.736328125 425 459.736328125 482 480.736328125 539 c 0
 501.736328125 595 517.736328125 638 531.736328125 668 c 0
 535.736328125 678 541.736328125 686 548.736328125 692 c 0
 556.736328125 698 563.736328125 702 569.736328125 703 c 0
 575.736328125 703 581.736328125 704 584.736328125 704 c 2
 592.736328125 704 l 1
 596.736328125 704 l 1
 608.736328125 704 l 2
 610.736328125 704 615.736328125 703 619.736328125 702 c 0
 623.736328125 700 626.736328125 697 627.736328125 695 c 0
 628.736328125 693 629.736328125 689 630.736328125 683 c 0
 631.736328125 679 632.736328125 674 632.736328125 668 c 2
 632.736328125 665 l 2
 630.736328125 644 615.736328125 546 586.736328125 370 c 0
 558.736328125 195 543.736328125 96 543.736328125 72 c 0
 543.736328125 31 532.736328125 6 512.736328125 -4 c 0
 508.736328125 -6 505.736328125 -7 502.736328125 -7 c 0
 499.736328125 -7 494.736328125 -5 491.736328125 -2 c 0
 484.736328125 3 481.736328125 17 481.736328125 39 c 2
 481.736328125 44 l 2
 481.736328125 98 514.736328125 294 579.736328125 632 c 1
 572.736328125 642 563.736328125 644 555.736328125 639 c 1
 515.736328125 537 485.736328125 446 463.736328125 363 c 0
 441.736328125 286 419.736328125 212 396.736328125 143 c 0
 373.736328125 74 358.736328125 32 350.736328125 17 c 0
 343.736328125 1 327.736328125 -7 305.736328125 -7 c 1
 304.736328125 -15 302.736328125 -15 301.736328125 -7 c 1
EndSplineSet
EndChar

StartChar: N
Encoding: 78 78 56
Width: 620
GlyphClass: 2
Flags: HMW
HStem: -12 21G<117.241 123.741> 685 20G<301.741 304.741 631.741 638.741>
LayerCount: 2
Fore
SplineSet
548.241210938 190 m 0
 534.241210938 133 523.241210938 90 515.241210938 63 c 0
 506.241210938 35 500.241210938 18 497.241210938 11 c 0
 490.241210938 -6 476.241210938 -14 454.241210938 -14 c 1
 453.241210938 -22 451.241210938 -22 450.241210938 -14 c 1
 443.241210938 -14 438.241210938 -12 435.241210938 -7 c 0
 431.241210938 -2 428.241210938 5 428.241210938 13 c 0
 426.241210938 26 419.241210938 56 406.241210938 101 c 2
 367.241210938 246 l 2
 354.241210938 295 340.241210938 349 327.241210938 410 c 0
 314.241210938 471 306.241210938 523 302.241210938 565 c 0
 300.241210938 595 296.241210938 624 294.241210938 653 c 1
 289.241210938 626 284.241210938 597 279.241210938 567 c 0
 267.241210938 494 254.241210938 425 240.241210938 362 c 0
 225.241210938 298 209.241210938 233 192.241210938 167 c 0
 175.241210938 103 165.241210938 63 163.241210938 49 c 0
 160.241210938 27 153.241210938 11 144.241210938 2 c 0
 136.241210938 -7 128.241210938 -12 119.241210938 -12 c 0
 115.241210938 -12 112.241210938 -10 110.241210938 -8 c 0
 108.241210938 -6 106.241210938 3 106.241210938 17 c 0
 106.241210938 25 108.241210938 35 111.241210938 48 c 0
 113.241210938 62 127.241210938 114 149.241210938 204 c 2
 208.241210938 443 l 2
 224.241210938 512 238.241210938 578 249.241210938 640 c 0
 251.241210938 653 254.241210938 664 259.241210938 673 c 0
 263.241210938 683 268.241210938 690 274.241210938 695 c 0
 281.241210938 699 286.241210938 702 291.241210938 703 c 0
 296.241210938 704 300.241210938 705 303.241210938 705 c 0
 306.241210938 705 310.241210938 704 312.241210938 704 c 0
 321.241210938 704 328.241210938 702 333.241210938 697 c 0
 337.241210938 692 340.241210938 682 340.241210938 668 c 0
 342.241210938 625 359.241210938 543 389.241210938 422 c 0
 418.241210938 301 444.241210938 204 466.241210938 130 c 0
 470.241210938 115 474.241210938 102 478.241210938 92 c 1
 481.241210938 103 485.241210938 116 488.241210938 132 c 0
 503.241210938 195 524.241210938 288 549.241210938 409 c 0
 576.241210938 530 591.241210938 609 595.241210938 649 c 0
 597.241210938 664 602.241210938 677 610.241210938 688 c 0
 619.241210938 699 627.241210938 705 636.241210938 705 c 0
 641.241210938 705 646.241210938 704 648.241210938 703 c 0
 650.241210938 702 653.241210938 700 654.241210938 698 c 0
 655.241210938 693 656.241210938 685 656.241210938 673 c 0
 656.241210938 671 655.241210938 664 654.241210938 654 c 0
 654.241210938 643 642.241210938 590 620.241210938 495 c 0
 599.241210938 397 575.241210938 295 548.241210938 190 c 0
EndSplineSet
EndChar

StartChar: O
Encoding: 79 79 57
Width: 620
GlyphClass: 2
Flags: HMW
HStem: -24 72<284.379 285.379> 649 44<458.379 459.879>
VStem: 143.379 70<138.5 181.5> 550.379 65<517 533 517 534>
LayerCount: 2
Fore
SplineSet
590.37890625 367 m 0
 582.37890625 329 572.37890625 291 561.37890625 252 c 0
 550.37890625 213 539.37890625 183 528.37890625 161 c 0
 514.37890625 130 499.37890625 104 483.37890625 82 c 0
 468.37890625 61 452.37890625 43 437.37890625 29 c 0
 422.37890625 15 406.37890625 5 388.37890625 -3 c 0
 370.37890625 -11 352.37890625 -17 334.37890625 -20 c 0
 316.37890625 -23 296.37890625 -24 274.37890625 -24 c 0
 241.37890625 -24 212.37890625 -12 190.37890625 10 c 0
 168.37890625 32 153.37890625 62 146.37890625 101 c 0
 144.37890625 116 143.37890625 131 143.37890625 146 c 0
 143.37890625 161 147.37890625 189 154.37890625 231 c 0
 155.37890625 234 157.37890625 240 158.37890625 248 c 0
 165.37890625 278 170.37890625 302 175.37890625 320 c 0
 180.37890625 338 186.37890625 362 195.37890625 392 c 0
 212.37890625 448 234.37890625 501 263.37890625 551 c 0
 285.37890625 593 315.37890625 627 355.37890625 653 c 0
 395.37890625 679 437.37890625 693 479.37890625 693 c 0
 500.37890625 693 520.37890625 688 539.37890625 679 c 0
 558.37890625 670 573.37890625 657 586.37890625 639 c 0
 599.37890625 621 607.37890625 598 612.37890625 570 c 0
 614.37890625 556 615.37890625 541 615.37890625 525 c 0
 615.37890625 509 613.37890625 492 611.37890625 473 c 0
 606.37890625 440 598.37890625 405 590.37890625 367 c 0
339.37890625 55 m 0
 355.37890625 60 371.37890625 67 387.37890625 77 c 0
 403.37890625 87 417.37890625 101 431.37890625 118 c 0
 445.37890625 135 457.37890625 154 468.37890625 176 c 0
 473.37890625 184 480.37890625 204 489.37890625 237 c 0
 498.37890625 269 509.37890625 307 520.37890625 351 c 0
 531.37890625 395 540.37890625 439 547.37890625 481 c 0
 549.37890625 494 550.37890625 507 550.37890625 519 c 0
 550.37890625 549 545.37890625 576 532.37890625 598 c 0
 521.37890625 617 508.37890625 630 492.37890625 639 c 0
 481.37890625 646 467.37890625 649 452.37890625 649 c 0
 419.37890625 649 388.37890625 635 360.37890625 606 c 0
 333.37890625 579 310.37890625 541 290.37890625 492 c 0
 263.37890625 428 241.37890625 352 224.37890625 265 c 0
 217.37890625 225 213.37890625 194 213.37890625 169 c 0
 213.37890625 140 217.37890625 116 224.37890625 97 c 0
 229.37890625 83 238.37890625 71 250.37890625 62 c 0
 262.37890625 53 276.37890625 48 292.37890625 48 c 0
 308.37890625 48 323.37890625 50 339.37890625 55 c 0
EndSplineSet
EndChar

StartChar: P
Encoding: 80 80 58
Width: 620
GlyphClass: 2
Flags: HMW
HStem: 230 69<319.42 342.42 317.42 355.42> 642 45<420.92 466.42>
VStem: 252.92 3 548.92 62<538.5 539.5>
LayerCount: 2
Fore
SplineSet
313.919921875 633 m 1
 309.919921875 614 303.919921875 587 294.919921875 551 c 0
 285.919921875 515 276.919921875 478 268.919921875 440 c 0
 260.919921875 402 251.919921875 361 242.919921875 319 c 1
 251.919921875 315 l 2
 273.919921875 304 300.919921875 299 333.919921875 299 c 0
 350.919921875 299 365.919921875 301 380.919921875 304 c 0
 395.919921875 307 408.919921875 311 420.919921875 316 c 0
 432.919921875 321 442.919921875 328 452.919921875 336 c 0
 462.919921875 344 472.919921875 352 479.919921875 360 c 0
 486.919921875 368 493.919921875 378 500.919921875 389 c 0
 507.919921875 400 512.919921875 409 516.919921875 418 c 0
 520.919921875 427 524.919921875 437 528.919921875 448 c 0
 532.919921875 459 536.919921875 469 538.919921875 476 c 0
 540.919921875 483 543.919921875 493 545.919921875 504 c 0
 547.919921875 515 548.919921875 526 548.919921875 535 c 0
 548.919921875 544 548.919921875 551 547.919921875 558 c 0
 544.919921875 575 537.919921875 588 528.919921875 599 c 0
 519.919921875 610 510.919921875 618 497.919921875 625 c 0
 486.919921875 632 474.919921875 637 463.919921875 639 c 0
 452.919921875 641 441.919921875 642 430.919921875 642 c 0
 410.919921875 642 372.919921875 639 313.919921875 633 c 1
151.919921875 141 m 0
 158.919921875 163 164.920898438 193 170.920898438 231 c 0
 177.920898438 258 185.920898438 294 192.920898438 337 c 0
 201.920898438 379 207.920898438 414 213.920898438 442 c 0
 224.706054688 490.04296875 238.375 547.69921875 254.927734375 614.96875 c 0
 254.279296875 615.579101562 253.456054688 618.640625 252.919921875 624 c 1
 251.919921875 617 249.919921875 619 249.919921875 628 c 0
 249.919921875 630 248.919921875 632 248.919921875 634 c 0
 248.919921875 636 249.919921875 640 250.919921875 642 c 0
 252.919921875 649 255.919921875 655 260.919921875 660 c 0
 265.919921875 665 270.919921875 668 274.919921875 669 c 0
 295.919921875 674 325.919921875 679 365.919921875 682 c 0
 405.919921875 685 432.919921875 687 447.919921875 687 c 0
 484.919921875 687 518.919921875 680 545.919921875 665 c 0
 572.919921875 650 591.919921875 627 602.919921875 598 c 0
 608.919921875 581 610.919921875 563 610.919921875 543 c 0
 610.919921875 534 609.919921875 516 605.919921875 489 c 0
 596.919921875 453 583.919921875 420 564.919921875 388 c 0
 545.919921875 356 525.919921875 328 501.919921875 305 c 0
 479.919921875 282 453.919921875 263 425.919921875 250 c 0
 397.919921875 237 369.919921875 230 340.919921875 230 c 0
 297.919921875 230 263.919921875 233 241.919921875 240 c 1
 236.919921875 233 233.919921875 235 229.919921875 244 c 1
 222.919921875 207 217.919921875 176 213.919921875 151 c 0
 209.919921875 126 202.919921875 81 191.919921875 14 c 0
 189.919921875 4 182.919921875 -4 172.919921875 -10 c 0
 162.919921875 -16 153.919921875 -19 143.919921875 -19 c 0
 133.919921875 -19 126.919921875 -16 121.919921875 -11 c 0
 119.919921875 -9 117.919921875 -5 117.919921875 -1 c 0
 117.919921875 3 119.919921875 7 121.919921875 14 c 0
 128.919921875 42 138.919921875 84 151.919921875 141 c 0
EndSplineSet
EndChar

StartChar: Q
Encoding: 81 81 59
Width: 620
GlyphClass: 2
Flags: HMW
HStem: -39 20G -24 72 649 44
VStem: 146.617 71 318.617 46<146.5 196.5> 549.617 65
LayerCount: 2
Fore
SplineSet
322.6171875 48 m 1x7c
 336.6171875 48 l 1
 333.6171875 63 l 2
 326.6171875 92 321.6171875 115 319.6171875 132 c 0
 319.6171875 138 318.6171875 144 318.6171875 149 c 0
 318.6171875 174 325.6171875 193 340.6171875 204 c 0
 345.6171875 208 350.6171875 210 354.6171875 210 c 0
 356.6171875 210 357.6171875 210 359.6171875 208 c 0
 361.6171875 206 364.6171875 200 364.6171875 193 c 0
 366.6171875 160 375.6171875 123 387.6171875 82 c 2
 391.6171875 67 l 1
 402.6171875 75 l 2
 432.6171875 96 457.6171875 129 474.6171875 173 c 0
 479.6171875 183 485.6171875 203 493.6171875 234 c 0
 502.6171875 265 511.6171875 303 522.6171875 349 c 0
 533.6171875 395 541.6171875 439 546.6171875 481 c 0
 548.6171875 494 549.6171875 507 549.6171875 519 c 0
 549.6171875 552 543.6171875 579 530.6171875 601 c 0
 520.6171875 618 508.6171875 631 492.6171875 639 c 0
 481.6171875 646 467.6171875 649 452.6171875 649 c 0
 419.6171875 649 388.6171875 635 360.6171875 608 c 0
 332.6171875 581 310.6171875 543 290.6171875 494 c 0
 259.6171875 423 237.6171875 347 224.6171875 264 c 0
 220.6171875 240 217.6171875 218 217.6171875 197 c 0
 217.6171875 184 219.6171875 171 221.6171875 158 c 0
 226.6171875 125 235.6171875 99 251.6171875 79 c 0
 268.6171875 58 288.6171875 48 313.6171875 48 c 2
 322.6171875 48 l 1x7c
431.6171875 -211 m 0
 424.6171875 -209 419.618164062 -203.999023438 416.618164062 -194.999023438 c 0
 411.618164062 -182.999023438 402.618164062 -159.999023438 390.618164062 -127.999023438 c 0
 378.618164062 -95.9990234375 366.618164062 -59.9990234375 353.618164062 -18.9990234375 c 1xbc
 351.618164062 -27.9990234375 346.618164062 -27.9990234375 343.618164062 -20.9990234375 c 1
 328.618164062 -22.9990234375 312.618164062 -23.9990234375 295.618164062 -23.9990234375 c 0
 272.618164062 -23.9990234375 251.618164062 -19.9990234375 231.618164062 -10.9990234375 c 0
 211.618164062 -1.9990234375 196.618164062 10.0009765625 184.618164062 25.0009765625 c 0
 172.618164062 40.0009765625 162.618164062 60.0009765625 155.618164062 81.0009765625 c 0
 148.618164062 102.000976562 146.618164062 126.000976562 146.618164062 152.000976562 c 0
 146.618164062 178.000976562 148.618164062 205.000976562 153.618164062 232.000976562 c 0
 178.618164062 360.000976562 216.618164062 465.000976562 263.618164062 547.000976562 c 0
 285.618164062 589.000976562 316.618164062 623.000976562 356.618164062 651.000976562 c 0
 396.618164062 679.000976562 437.618164062 693.000976562 479.618164062 693.000976562 c 0
 524.618164062 693.000976562 559.618164062 677.000976562 584.618164062 644.000976562 c 0
 597.618164062 627.000976562 605.618164062 605.000976562 610.618164062 576.000976562 c 0
 612.618164062 561.000976562 614.618164062 545.000976562 614.618164062 528.000976562 c 0
 614.618164062 511.000976562 612.618164062 493.000976562 610.618164062 473.000976562 c 0
 604.618164062 427.000976562 593.618164062 372.000976562 577.618164062 307.000976562 c 0
 561.618164062 242.000976562 544.618164062 191.000976562 529.618164062 155.000976562 c 0
 501.618164062 86.0009765625 464.618164062 36.0009765625 417.618164062 7.0009765625 c 1
 415.044921875 -1.5751953125 411.736328125 -4.267578125 409.584960938 -0.4453125 c 1
 426.262695312 -42.5927734375 442.958984375 -83.77734375 460.6171875 -124 c 0
 465.6171875 -144 471.6171875 -155 476.6171875 -158 c 0
 476.6171875 -160 477.6171875 -163 477.6171875 -165 c 0
 477.6171875 -167 477.6171875 -170 476.6171875 -173 c 0
 474.6171875 -180 469.6171875 -187 464.6171875 -193 c 0
 459.6171875 -199 456.6171875 -205 452.6171875 -207 c 0
 447.6171875 -210 442.6171875 -212 437.6171875 -212 c 0
 435.6171875 -212 433.6171875 -211 431.6171875 -211 c 0
EndSplineSet
EndChar

StartChar: R
Encoding: 82 82 60
Width: 620
GlyphClass: 2
Flags: HMW
VStem: 139.886 1<-21 -19> 319.886 3 322.886 4<682 682> 548.886 64<459.5 483>
LayerCount: 2
Fore
SplineSet
476.885742188 -17 m 0xd0
 470.885742188 -15 465.885742188 -9 461.885742188 0 c 0
 454.885742188 15 445.885742188 32 432.885742188 53 c 0
 419.885742188 74 404.885742188 97 385.885742188 122 c 0
 366.885742188 147 345.885742188 172 319.885742188 197 c 0
 293.885742188 222 268.885742188 242 242.885742188 257 c 0
 241.182617188 255.296875 239.595703125 254.40625 238.045898438 254.40625 c 0
 235.044921875 254.40625 232.182617188 257.74609375 228.885742188 265 c 1
 228.885742188 253.838867188 227.411132812 248.57421875 226.361328125 248.57421875 c 0
 226.188476562 248.57421875 226.02734375 248.716796875 225.885742188 249 c 1
 218.885742188 210 210.885742188 165 203.885742188 112 c 0
 196.885742188 59 192.885742188 27 190.885742188 14 c 0
 188.885742188 4 182.885742188 -4 172.885742188 -10 c 0
 162.885742188 -16 153.885742188 -19 142.885742188 -19 c 2
 140.885742188 -19 l 1
 140.885742188 -23 140.635742188 -25 140.385742188 -25 c 0
 140.135742188 -25 139.885742188 -23 139.885742188 -19 c 1
 130.885742188 -19 123.885742188 -16 119.885742188 -11 c 0
 118.885742188 -9 116.885742188 -5 116.885742188 -1 c 0
 116.885742188 3 117.885742188 8 119.885742188 14 c 0
 130.885742188 49 138.885742188 79 144.885742188 104 c 0
 150.885742188 129 164.885742188 189 185.885742188 284 c 0
 187.885742188 298 194.885742188 325 205.885742188 365 c 0
 216.885742188 407 226.885742188 446 233.885742188 483 c 0
 237.885742188 505 241.885742188 537 247.885742188 576 c 0
 253.885742188 615 257.885742188 638 259.885742188 645 c 1
 207.922851562 468.625 181.922851562 380.375 181.885742188 380.375 c 1
 181.885742188 380.375 207.848632812 468.875 259.885742188 646 c 1
 259.885742188 643.215820312 260.043945312 641.85546875 260.234375 641.85546875 c 0
 260.522460938 641.85546875 260.885742188 644.9765625 260.885742188 651 c 0
 261.885742188 661 266.885742188 670 275.885742188 678 c 0
 282.885742188 686 291.885742188 690 301.885742188 690 c 0
 310.885742188 690 316.885742188 688 319.885742188 685 c 0
 320.448242188 679.9375 321.327148438 677.40625 321.98828125 677.40625 c 0
 322.502929688 677.40625 322.885742188 678.9375 322.885742188 682 c 1
 323.385742188 678 324.135742188 676 324.885742188 676 c 0
 325.635742188 676 326.385742188 678 326.885742188 682 c 1xb0
 370.885742188 680 411.885742188 672 446.885742188 661 c 0
 481.885742188 649 511.885742188 635 533.885742188 619 c 0
 555.885742188 603 574.885742188 584 587.885742188 563 c 0
 600.885742188 542 609.885742188 523 611.885742188 502 c 0
 611.885742188 495 612.885742188 487 612.885742188 479 c 0
 612.885742188 466 610.885742188 453 608.885742188 440 c 0
 601.885742188 409 588.885742188 383 568.885742188 363 c 0
 559.885742188 354 548.885742188 345 535.885742188 337 c 0
 522.885742188 329 509.885742188 323 495.885742188 318 c 0
 482.885742188 313 467.885742188 308 450.885742188 304 c 0
 433.885742188 300 417.885742188 295 400.885742188 293 c 0
 383.885742188 291 364.885742188 289 343.885742188 287 c 1
 337.698242188 281.9375 331.510742188 279.40625 325.323242188 279.40625 c 2
 310.885742188 284 l 1
 319.249023438 270.060546875 328.4765625 263.893554688 336.961914062 263.893554688 c 0
 337.607421875 263.893554688 338.249023438 263.9296875 338.885742188 264 c 0
 387.885742188 230 427.885742188 190 460.885742188 146 c 0
 494.885742188 102 515.885742188 64 522.885742188 33 c 1
 522.885742188 30 l 2
 522.885742188 22 520.885742188 15 516.885742188 8 c 0
 511.885742188 -1 504.885742188 -7 497.885742188 -12 c 0
 491.885742188 -16 486.885742188 -18 481.885742188 -18 c 0
 480.885742188 -18 478.885742188 -17 476.885742188 -17 c 0xd0
468.885742188 368 m 0
 480.885742188 372 491.885742188 377 502.885742188 384 c 0
 524.885742188 397 539.885742188 417 545.885742188 442 c 0
 547.885742188 449 548.885742188 456 548.885742188 463 c 0
 548.885742188 477 545.885742188 491 538.885742188 504 c 0
 528.885742188 524 514.885742188 540 497.885742188 554 c 0
 481.885742188 568 462.885742188 581 441.885742188 592 c 0
 401.885742188 613 363.885742188 628 323.885742188 636 c 2
 313.885742188 638 l 1
 302.885742188 581 293.885742188 535 287.885742188 500 c 0
 286.885742188 493 283.885742188 480 278.885742188 462 c 0
 273.885742188 444 263.885742188 407 246.885742188 350 c 1
 258.885742188 347 l 2
 265.885742188 346 275.885742188 345 286.885742188 345 c 2
 289.885742188 345 l 2
 291.885742188 345 301.885742188 346 320.885742188 347 c 0
 390.885742188 350 439.885742188 357 468.885742188 368 c 0
EndSplineSet
EndChar

StartChar: S
Encoding: 83 83 61
Width: 620
GlyphClass: 2
Flags: HMW
HStem: -29 62<276.911 280.911> 668 56<485.911 530.911>
VStem: 237.411 70<474 520.5> 501.411 71<234.5 287.5>
LayerCount: 2
Fore
SplineSet
140.411132812 117 m 0
 147.411132812 120 153.411132812 123 156.411132812 123 c 0
 159.411132812 123 163.411132812 124 164.411132812 124 c 2
 169.411132812 124 l 2
 170.411132812 124 172.411132812 122 174.411132812 119 c 0
 176.411132812 116 180.411132812 110 183.411132812 103 c 0
 191.411132812 82 204.411132812 65 224.411132812 52 c 0
 242.411132812 39 264.411132812 33 289.411132812 33 c 0
 304.411132812 33 320.411132812 36 337.411132812 41 c 0
 354.411132812 46 370.411132812 52 387.411132812 62 c 0
 404.411132812 72 420.411132812 84 435.411132812 97 c 0
 450.411132812 110 462.411132812 125 473.411132812 143 c 0
 484.411132812 161 492.411132812 180 496.411132812 200 c 0
 499.411132812 216 501.411132812 229 501.411132812 240 c 0
 501.411132812 259 498.411132812 275 491.411132812 290 c 0
 486.411132812 299 479.411132812 308 470.411132812 317 c 0
 461.411132812 326 451.411132812 334 438.411132812 341 c 0
 425.411132812 348 410.411132812 353 391.411132812 358 c 0
 372.411132812 363 351.411132812 368 328.411132812 371 c 0
 310.411132812 373 294.411132812 380 281.411132812 389 c 0
 268.411132812 398 259.411132812 409 252.411132812 422 c 0
 242.411132812 442 237.411132812 463 237.411132812 485 c 0
 237.411132812 492 237.411132812 499 239.411132812 508 c 0
 244.411132812 530 251.411132812 551 262.411132812 572 c 0
 273.411132812 593 287.411132812 612 304.411132812 631 c 0
 321.411132812 650 341.411132812 666 362.411132812 680 c 0
 383.411132812 694 408.411132812 704 436.411132812 712 c 0
 464.411132812 720 492.411132812 724 523.411132812 724 c 0
 538.411132812 724 560.411132812 722 587.411132812 719 c 0
 614.411132812 716 633.411132812 712 642.411132812 708 c 0
 649.411132812 706 654.411132812 701 656.411132812 694 c 0
 656.411132812 691 657.411132812 687 657.411132812 683 c 0
 657.411132812 679 656.411132812 673 654.411132812 667 c 0
 652.411132812 661 649.411132812 656 646.411132812 654 c 0
 643.411132812 652 639.411132812 649 635.411132812 649 c 0
 631.411132812 649 628.411132812 648 624.411132812 648 c 0
 620.411132812 648 616.411132812 649 611.411132812 650 c 0
 609.411132812 650 605.411132812 652 603.411132812 653 c 0
 592.411132812 656 584.411132812 660 577.411132812 661 c 0
 570.411132812 662 560.411132812 664 546.411132812 665 c 0
 532.411132812 667 516.411132812 668 499.411132812 668 c 0
 472.411132812 668 445.411132812 663 419.411132812 653 c 0
 393.411132812 643 369.411132812 628 348.411132812 608 c 0
 327.411132812 588 315.411132812 566 310.411132812 540 c 0
 308.411132812 532 307.411132812 524 307.411132812 517 c 0
 307.411132812 495 315.411132812 476 328.411132812 460 c 0
 345.411132812 439 373.411132812 428 411.411132812 426 c 0
 441.411132812 424 467.411132812 418 488.411132812 409 c 0
 509.411132812 400 526.411132812 389 537.411132812 376 c 0
 549.411132812 363 558.411132812 348 564.411132812 331 c 0
 570.411132812 314 572.411132812 296 572.411132812 279 c 0
 572.411132812 262 571.411132812 243 566.411132812 223 c 0
 559.411132812 192 548.411132812 164 533.411132812 137 c 0
 518.411132812 110 502.411132812 87 482.411132812 67 c 0
 462.411132812 47 441.411132812 30 418.411132812 15 c 0
 395.411132812 0 369.411132812 -11 344.411132812 -18 c 0
 319.411132812 -25 293.411132812 -29 268.411132812 -29 c 0
 228.411132812 -29 196.411132812 -20 169.411132812 -2 c 0
 142.411132812 16 125.411132812 36 119.411132812 60 c 0
 118.411132812 67 117.411132812 74 117.411132812 80 c 0
 117.411132812 86 119.411132812 92 121.411132812 97 c 0
 125.411132812 106 131.411132812 112 140.411132812 117 c 0
EndSplineSet
EndChar

StartChar: T
Encoding: 84 84 62
Width: 620
GlyphClass: 2
Flags: HMW
HStem: 612 64<610.9 638.4 610.9 638.4>
LayerCount: 2
Fore
SplineSet
351.900390625 303 m 0
 379.900390625 459 397.900390625 560 406.900390625 606 c 1
 406.900390625 603 408.900390625 607 409.900390625 620 c 1
 325.900390625 625 278.900390625 628 266.900390625 630 c 0
 246.900390625 633 236.900390625 640 236.900390625 649 c 0
 236.900390625 651 237.900390625 653 237.900390625 655 c 0
 238.900390625 665 244.900390625 674 253.900390625 682 c 0
 259.900390625 687 266.900390625 690 273.900390625 690 c 0
 275.900390625 690 277.900390625 689 279.900390625 689 c 0
 312.900390625 682 429.900390625 678 632.900390625 676 c 0
 643.900390625 676 650.900390625 674 652.900390625 670 c 0
 654.900390625 666 655.900390625 662 655.900390625 657 c 0
 655.900390625 655 654.900390625 652 654.900390625 650 c 0
 652.900390625 640 646.900390625 631 638.900390625 622 c 0
 631.900390625 615 623.900390625 612 614.900390625 612 c 2
 610.900390625 612 l 2
 592.150390625 609.75 573.822265625 608.625 555.916015625 608.625 c 0
 526.072265625 608.625 497.400390625 611.75 469.900390625 618 c 1
 441.900390625 475 404.900390625 277 359.900390625 24 c 0
 356.900390625 13 349.900390625 4 339.900390625 -3 c 0
 329.900390625 -10 319.900390625 -13 310.900390625 -13 c 2
 307.900390625 -13 l 2
 299.900390625 -13 293.900390625 -10 289.900390625 -5 c 0
 288.900390625 -3 287.900390625 1 287.900390625 6 c 0
 287.900390625 11 288.900390625 16 290.900390625 23 c 0
 299.900390625 54 320.900390625 147 351.900390625 303 c 0
EndSplineSet
EndChar

StartChar: U
Encoding: 85 85 63
Width: 620
GlyphClass: 2
Flags: HMW
HStem: -29 67<275.28 332.28>
VStem: 135.28 68<141.5 183.5> 235.28 62
LayerCount: 2
Fore
SplineSet
567.280273438 251 m 0
 560.280273438 222 551.280273438 194 538.280273438 168 c 0
 527.280273438 143 514.280273438 121 501.280273438 102 c 0
 488.280273438 83 475.280273438 66 460.280273438 51 c 0
 445.280273438 36 430.280273438 24 415.280273438 14 c 0
 400.280273438 4 385.280273438 -5 369.280273438 -11 c 0
 353.280273438 -17 339.280273438 -21 325.280273438 -24 c 0
 311.280273438 -27 296.280273438 -29 282.280273438 -29 c 0
 268.280273438 -29 253.280273438 -27 238.280273438 -22 c 0
 222.280273438 -17 206.280273438 -8 191.280273438 4 c 0
 176.280273438 16 164.280273438 31 154.280273438 49 c 0
 144.280273438 67 138.280273438 91 136.280273438 121 c 0
 136.280273438 129 135.280273438 137 135.280273438 146 c 0
 135.280273438 170 137.280273438 196 142.280273438 224 c 0
 184.280273438 427 215.280273438 564 235.280273438 637 c 0
 239.280273438 653 246.280273438 665 255.280273438 673 c 0
 264.280273438 681 273.280273438 685 282.280273438 685 c 0
 288.280273438 685 292.280273438 684 294.280273438 681 c 0
 296.280273438 678 297.280273438 673 297.280273438 667 c 0
 297.280273438 661 295.280273438 655 294.280273438 648 c 0
 244.280273438 422 215.280273438 285 208.280273438 238 c 0
 204.280273438 214 203.280273438 193 203.280273438 174 c 0
 203.280273438 160 204.280273438 146 206.280273438 131 c 0
 209.280273438 113 216.280273438 97 224.280273438 83 c 0
 232.280273438 69 244.280273438 59 259.280273438 50 c 0
 274.280273438 42 290.280273438 38 310.280273438 38 c 0
 354.280273438 38 393.280273438 54 427.280273438 88 c 0
 461.280273438 122 486.280273438 172 504.280273438 239 c 0
 513.280273438 267 523.280273438 303 532.280273438 345 c 0
 542.280273438 387 551.280273438 426 558.280273438 459 c 0
 581.280273438 566 594.280273438 623 595.280273438 629 c 0
 602.280273438 656 610.280273438 673 618.280273438 679 c 0
 622.280273438 682 625.280273438 685 628.280273438 685 c 0
 631.280273438 685 635.280273438 686 640.280273438 686 c 0
 645.280273438 686 648.280273438 685 650.280273438 684 c 0
 652.280273438 683 655.280273438 680 657.280273438 676 c 0
 659.280273438 672 660.280273438 669 660.280273438 664 c 0
 660.280273438 659 659.280273438 652 658.280273438 645 c 0
 639.280273438 541 609.280273438 410 567.280273438 251 c 0
EndSplineSet
EndChar

StartChar: V
Encoding: 86 86 64
Width: 620
GlyphClass: 2
Flags: HMW
VStem: 222.874 64<623 664 631 664>
LayerCount: 2
Fore
SplineSet
672.874023438 674 m 2
 672.874023438 668 l 2
 671.874023438 662 666.874023438 654 659.874023438 645 c 0
 637.874023438 610 585.874023438 512 502.874023438 352 c 1
 425.874023438 193 374.874023438 85 350.874023438 27 c 0
 346.874023438 15 341.874023438 6 334.874023438 -1 c 0
 327.874023438 -8 319.874023438 -12 310.874023438 -12 c 2
 304.874023438 -12 l 2
 294.874023438 -12 286.874023438 -10 281.874023438 -5 c 0
 275.874023438 0 271.874023438 10 270.874023438 24 c 0
 261.874023438 96 250.874023438 204 239.874023438 350 c 0
 228.874023438 494 222.874023438 585 222.874023438 623 c 2
 222.874023438 631 l 2
 222.874023438 672 231.874023438 697 251.874023438 707 c 0
 256.874023438 709 259.874023438 711 263.874023438 711 c 0
 267.874023438 711 271.874023438 709 274.874023438 706 c 0
 281.874023438 700 285.874023438 686 286.874023438 664 c 0
 286.874023438 659 289.874023438 599 295.874023438 486 c 2
 303.874023438 359 l 1
 311.874023438 226 l 2
 314.874023438 184 317.874023438 151 319.874023438 126 c 0
 319.874023438 109 321.874023438 94 322.874023438 82 c 1
 329.874023438 90 335.874023438 102 342.874023438 117 c 0
 378.874023438 192 430.874023438 301 497.874023438 445 c 2
 604.874023438 664 l 2
 614.874023438 685 625.874023438 699 636.874023438 705 c 0
 641.874023438 709 646.874023438 711 651.874023438 711 c 0
 653.874023438 711 656.874023438 710 661.874023438 708 c 0
 664.874023438 704 667.874023438 699 669.874023438 692 c 0
 671.874023438 687 672.874023438 681 672.874023438 674 c 2
EndSplineSet
EndChar

StartChar: W
Encoding: 87 87 65
Width: 620
GlyphClass: 2
Flags: HMW
VStem: 613.24 57
LayerCount: 2
Fore
SplineSet
144.240234375 27 m 2
 144.240234375 30 l 1
 144.240234375 30 145.240234375 31 145.240234375 32 c 0
 145.240234375 34 146.240234375 58 149.240234375 105 c 0
 151.240234375 136 155.240234375 168 159.240234375 199 c 0
 169.240234375 276 190.240234375 420 221.240234375 632 c 0
 227.240234375 675 239.240234375 702 259.240234375 711 c 0
 261.240234375 713 266.240234375 714 268.240234375 714 c 2
 270.240234375 714 l 2
 274.240234375 713 277.240234375 710 280.240234375 708 c 0
 282.240234375 707 284.240234375 702 284.240234375 693 c 0
 284.240234375 690 285.240234375 686 285.240234375 681 c 0
 285.240234375 679 284.240234375 676 283.240234375 672 c 0
 274.240234375 633 252.240234375 490 217.240234375 242 c 0
 214.240234375 219 211.240234375 187 206.240234375 147 c 0
 201.240234375 103 197.240234375 75 196.240234375 65 c 1
 203.240234375 55 211.240234375 53 219.240234375 59 c 1
 226.240234375 81 236.240234375 108 246.240234375 140 c 0
 255.240234375 169 276.240234375 237 309.240234375 342 c 2
 309.240234375 342 323.240234375 392 355.240234375 493 c 0
 372.240234375 545 387.240234375 588 399.240234375 622 c 0
 411.240234375 657 419.240234375 678 424.240234375 687 c 0
 431.240234375 703 446.240234375 711 467.240234375 711 c 1
 468.240234375 720 470.240234375 720 471.240234375 712 c 1
 486.240234375 712 493.240234375 703 493.240234375 685 c 0
 493.240234375 668 489.240234375 621 481.240234375 544 c 0
 479.240234375 517 474.240234375 479 468.240234375 428 c 0
 463.240234375 378 459.240234375 340 457.240234375 313 c 0
 452.240234375 273 445.240234375 208 439.240234375 116 c 0
 437.240234375 81 436.240234375 49 434.240234375 18 c 1
 443.240234375 45 452.240234375 75 461.240234375 108 c 0
 491.240234375 204 528.240234375 332 571.240234375 493 c 0
 595.240234375 572 609.240234375 623 613.240234375 645 c 0
 616.240234375 667 623.240234375 684 633.240234375 696 c 0
 642.240234375 707 650.240234375 713 658.240234375 713 c 0
 660.240234375 713 664.240234375 712 665.240234375 711 c 0
 669.240234375 708 670.240234375 697 670.240234375 678 c 0
 670.240234375 670 669.240234375 659 666.240234375 645 c 0
 658.240234375 611 643.240234375 560 621.240234375 491 c 2
 576.240234375 347 l 1
 576.240234375 347 565.240234375 303 538.240234375 217 c 0
 521.240234375 161 508.240234375 118 497.240234375 89 c 0
 486.240234375 59 477.240234375 39 470.240234375 28 c 0
 463.240234375 14 453.240234375 4 442.240234375 -3 c 0
 431.240234375 -8 423.240234375 -11 416.240234375 -11 c 2
 412.240234375 -11 l 1
 410.240234375 -11 l 2
 401.240234375 -11 394.240234375 -8 389.240234375 -3 c 0
 384.240234375 2 382.240234375 12 382.240234375 26 c 2
 382.240234375 30 l 2
 382.240234375 92 389.240234375 175 403.240234375 279 c 2
 421.240234375 411 l 2
 433.240234375 504 441.240234375 566 444.240234375 595 c 1
 437.240234375 605 429.240234375 607 422.240234375 601 c 1
 391.240234375 490 357.240234375 374 321.240234375 255 c 0
 286.240234375 137 261.240234375 61 246.240234375 26 c 0
 243.240234375 15 237.240234375 7 229.240234375 1 c 0
 221.240234375 -4 213.240234375 -8 205.240234375 -9 c 0
 197.240234375 -10 191.240234375 -11 184.240234375 -11 c 0
 173.240234375 -10 163.240234375 -9 155.240234375 -8 c 0
 152.240234375 -6 150.240234375 -4 149.240234375 -2 c 0
 147.240234375 0 146.240234375 4 145.240234375 11 c 0
 144.240234375 16 144.240234375 21 144.240234375 27 c 2
178.240234375 -11 m 1024
EndSplineSet
EndChar

StartChar: X
Encoding: 88 88 66
Width: 620
GlyphClass: 2
Flags: HMW
VStem: 254.902 66
LayerCount: 2
Fore
SplineSet
483.90234375 -18 m 0
 476.90234375 -15 470.90234375 -7 464.90234375 5 c 0
 457.90234375 19 448.90234375 41 439.90234375 71 c 0
 430.90234375 100 419.90234375 137 407.90234375 183 c 0
 395.90234375 230 384.90234375 271 375.90234375 305 c 1
 362.90234375 288 l 2
 337.90234375 255 297.90234375 200 244.90234375 123 c 0
 188.90234375 48 157.90234375 7 150.90234375 0 c 0
 141.90234375 -11 133.90234375 -18 126.90234375 -21 c 0
 122.90234375 -23 118.90234375 -24 116.90234375 -24 c 0
 111.90234375 -24 107.90234375 -19 102.90234375 -9 c 0
 99.90234375 -3 97.90234375 4 97.90234375 11 c 0
 97.90234375 18 104.90234375 31 116.90234375 48 c 0
 123.90234375 56 159.90234375 98 223.90234375 175 c 1
 283.90234375 255 326.90234375 315 355.90234375 357 c 1
 259.90234375 627 l 2
 256.90234375 635 254.90234375 642 254.90234375 649 c 0
 254.90234375 667 260.90234375 682 271.90234375 693 c 0
 279.90234375 702 287.90234375 706 295.90234375 706 c 0
 297.90234375 706 301.90234375 704 305.90234375 702 c 0
 311.90234375 698 316.90234375 690 320.90234375 679 c 0
 333.90234375 651 360.90234375 567 402.90234375 427 c 2
 409.90234375 405 l 1
 422.90234375 424 l 2
 520.90234375 568 582.90234375 654 608.90234375 683 c 0
 616.90234375 694 624.90234375 701 632.90234375 705 c 0
 637.90234375 707 642.90234375 709 646.90234375 709 c 0
 651.90234375 709 655.90234375 707 659.90234375 700 c 0
 661.90234375 695 664.90234375 689 664.90234375 683 c 0
 664.90234375 682 665.90234375 679 665.90234375 676 c 2
 662.90234375 667 l 2
 660.90234375 661 656.90234375 655 649.90234375 648 c 2
 555.90234375 532 l 1
 496.90234375 450 457.90234375 395 436.90234375 364 c 0
 434.90234375 362 431.90234375 358 427.90234375 351 c 1
 437.90234375 321 453.90234375 269 474.90234375 195 c 0
 495.90234375 121 510.90234375 75 519.90234375 55 c 0
 524.90234375 45 526.90234375 36 526.90234375 28 c 0
 526.90234375 22 525.90234375 16 524.90234375 11 c 0
 523.90234375 6 520.90234375 1 516.90234375 -5 c 0
 508.90234375 -16 500.90234375 -22 493.90234375 -22 c 0
 491.90234375 -22 487.90234375 -20 483.90234375 -18 c 0
EndSplineSet
EndChar

StartChar: Y
Encoding: 89 89 67
Width: 620
GlyphClass: 2
Flags: HMW
VStem: 225.756 76<613 653.5 626 653.5>
LayerCount: 2
Fore
SplineSet
648.755859375 623 m 0
 643.755859375 615 634.755859375 601.999023438 621.755859375 582.999023438 c 0
 608.755859375 563.999023438 596.755859375 546.999023438 588.755859375 533.999023438 c 0
 580.755859375 520.999023438 563.755859375 496.999023438 538.755859375 461.999023438 c 0
 516.755859375 426.999023438 496.755859375 396.999023438 482.755859375 374.999023438 c 0
 450.713867188 324.647460938 415.103515625 298.091796875 386.755859375 209 c 0
 365.755859375 143 370.576171875 95.607421875 322.755859375 -17 c 0
 317.659179688 -29.0009765625 296.755859375 -35 285.755859375 -38 c 0
 283.755859375 -38 279.755859375 -39 277.755859375 -39 c 0
 272.755859375 -39 267.755859375 -37 262.755859375 -33 c 0
 257.755859375 -28 253.755859375 -21 253.755859375 -13 c 0
 253.755859375 -10 255.755859375 -6 255.755859375 -4 c 0
 256.755859375 3 262.061523438 8.7080078125 265.755859375 18 c 0
 298.755859375 101 265.755859375 18 329.755859375 231 c 1
 323.755859375 258 315.755859375 291 304.755859375 329 c 0
 293.755859375 367 286.755859375 393 282.755859375 407 c 0
 278.755859375 421 271.755859375 443 261.755859375 475 c 0
 252.755859375 504 244.755859375 530 238.755859375 551 c 0
 232.755859375 572 227.755859375 593 225.755859375 613 c 2
 225.755859375 626 l 2
 225.755859375 634 226.755859375 641 228.755859375 647 c 0
 231.755859375 657 236.755859375 665 241.755859375 670 c 0
 246.755859375 675 251.755859375 680 258.755859375 682 c 0
 264.755859375 684 269.755859375 686 274.755859375 686 c 0
 278.755859375 686 282.755859375 685 286.755859375 684 c 0
 290.755859375 683 293.755859375 679 295.755859375 673 c 0
 297.755859375 667 301.755859375 659 301.755859375 648 c 0
 302.755859375 625 305.755859375 600 309.755859375 573 c 0
 310.755859375 564 312.755859375 552 316.755859375 536 c 0
 320.755859375 520 323.755859375 510 324.755859375 506 c 0
 335.755859375 464 342.755859375 442 342.755859375 442 c 2
 353.755859375 403 361.755859375 365 367.755859375 328 c 0
 368.755859375 311 370.755859375 301 371.755859375 300 c 0
 376.755859375 300 382.755859375 308 387.755859375 323 c 0
 389.755859375 327 398.755859375 340 411.755859375 362 c 0
 424.755859375 384 446.755859375 418 475.755859375 465 c 0
 504.755859375 512 525.755859375 548 540.755859375 574 c 0
 545.755859375 583 553.755859375 595 564.755859375 611 c 0
 576.755859375 627 586.755859375 640 591.755859375 649 c 0
 597.755859375 660 603.755859375 668 609.755859375 675 c 0
 615.755859375 682 621.755859375 686 626.755859375 688 c 0
 636.755859375 692 644.755859375 692 651.755859375 689 c 0
 653.755859375 687 657.755859375 684 659.755859375 682 c 0
 662.755859375 677 663.755859375 670 663.755859375 663 c 0
 663.755859375 661 663.755859375 656 662.755859375 651 c 0
 660.755859375 642 654.755859375 633 648.755859375 623 c 0
EndSplineSet
EndChar

StartChar: Z
Encoding: 90 90 68
Width: 620
GlyphClass: 2
Flags: HMW
HStem: 9 63 627 69<270.856 317.356 274.356 317.356> 629 55
LayerCount: 2
Fore
SplineSet
525.35546875 40 m 2xa0
 523.35546875 29 518.35546875 21 511.35546875 14 c 0
 504.35546875 7 495.35546875 3 481.35546875 3 c 0
 478.35546875 3 445.35546875 4 385.35546875 6 c 0
 325.35546875 8 269.35546875 9 216.35546875 9 c 0
 193.35546875 9 163.35546875 8 124.35546875 7 c 2
 123.35546875 7 l 2
 121.35546875 7 117.35546875 8 116.35546875 9 c 0
 115.35546875 10 112.35546875 15 110.35546875 20 c 0
 108.35546875 25 108.35546875 31 108.35546875 36 c 2
 108.35546875 49 l 2
 109.35546875 55 115.35546875 66 124.35546875 81 c 0
 133.35546875 96 148.35546875 117 169.35546875 144 c 0
 197.35546875 181 255.35546875 256 345.35546875 368 c 0
 434.35546875 480 502.35546875 561 546.35546875 612 c 2
 566.35546875 634 l 1
 517.35546875 632 462.35546875 630 400.35546875 629 c 0
 338.35546875 628 296.35546875 627 275.35546875 627 c 2xc0
 274.35546875 627 l 2
 267.35546875 627 261.35546875 628 260.35546875 632 c 0
 259.35546875 636 257.35546875 640 257.35546875 644 c 0
 257.35546875 648 258.35546875 651 258.35546875 655 c 0
 260.35546875 664 267.35546875 674 277.35546875 683 c 0
 287.35546875 692 299.35546875 696 311.35546875 696 c 0
 323.35546875 696 340.35546875 694 361.35546875 690 c 0
 382.35546875 686 401.35546875 684 416.35546875 684 c 2
 433.35546875 684 l 2
 472.35546875 684 523.35546875 686 587.35546875 691 c 0
 625.35546875 693 646.35546875 695 646.35546875 695 c 2
 648.35546875 695 651.35546875 694 652.35546875 693 c 0
 653.35546875 692 655.35546875 689 656.35546875 687 c 0
 658.35546875 682 661.35546875 676 661.35546875 670 c 0
 661.35546875 667 659.35546875 663 659.35546875 658 c 0
 657.35546875 654 653.35546875 648 644.35546875 639 c 0
 635.35546875 630 622.35546875 618 608.35546875 605 c 0
 594.35546875 592 585.35546875 581 578.35546875 573 c 0
 551.35546875 540 512.35546875 493 462.35546875 431 c 0
 412.35546875 369 363.35546875 308 315.35546875 247 c 0
 267.35546875 186 225.35546875 131 192.35546875 84 c 2
 177.35546875 63 l 1
 204.35546875 65 l 2
 273.35546875 70 336.35546875 72 395.35546875 72 c 0
 442.35546875 72 477.35546875 70 499.35546875 66 c 0
 511.35546875 64 519.35546875 60 523.35546875 55 c 0
 525.35546875 53 525.35546875 50 525.35546875 46 c 2
 525.35546875 40 l 2xa0
EndSplineSet
EndChar

StartChar: bracketleft
Encoding: 91 91 69
Width: 620
GlyphClass: 2
Flags: HMW
HStem: -69 47 773 64<607.292 609.292>
LayerCount: 2
Fore
SplineSet
531.291992188 837 m 1
 602.291992188 837 l 2
 616.291992188 837 624.291992188 838 624.291992188 838 c 2
 633.291992188 838 639.291992188 837 641.291992188 833 c 0
 643.291992188 829 644.291992188 824 644.291992188 819 c 2
 644.291992188 812 l 2
 643.291992188 807 640.291992188 803 638.291992188 798 c 0
 632.291992188 786 625.291992188 778 616.291992188 775 c 0
 613.291992188 774 610.291992188 773 608.291992188 773 c 0
 606.291992188 773 603.291992188 774 602.291992188 774 c 0
 579.291992188 778 541.291992188 780 489.291992188 780 c 0
 466.291992188 780 436.291992188 779 401.291992188 778 c 1
 396.291992188 758 387.291992188 719 372.291992188 661 c 0
 357.291992188 603 345.291992188 555 335.291992188 516 c 0
 325.291992188 477 314.291992188 431 302.291992188 377 c 0
 295.291992188 337 279.291992188 268 255.291992188 170 c 0
 231.291992188 72 216.291992188 8 209.291992188 -22 c 1
 252.291992188 -22 l 2
 282.291992188 -22 318.291992188 -21 360.291992188 -20 c 0
 402.291992188 -19 425.291992188 -17 430.291992188 -17 c 0
 440.291992188 -17 446.291992188 -19 448.291992188 -21 c 0
 450.291992188 -25 450.291992188 -31 449.291992188 -39 c 0
 447.291992188 -49 443.291992188 -58 437.291992188 -65 c 0
 435.291992188 -68 431.291992188 -71 428.291992188 -72 c 0
 425.291992188 -73 422.291992188 -74 420.291992188 -74 c 0
 418.291992188 -74 415.291992188 -73 413.291992188 -73 c 0
 398.291992188 -71 378.291992188 -70 353.291992188 -70 c 0
 351.291992188 -70 343.291992188 -69 332.291992188 -69 c 0
 321.291992188 -69 306.291992188 -70 289.291992188 -71 c 0
 226.291992188 -75 183.291992188 -77 161.291992188 -77 c 0
 148.291992188 -77 140.291992188 -74 136.291992188 -70 c 0
 134.291992188 -68 133.291992188 -65 133.291992188 -61 c 0
 133.291992188 -55 135.291992188 -47 140.291992188 -37 c 1
 140.291992188 -36 l 1
 143.291992188 -27 l 2
 154.291992188 8 171.291992188 71 193.291992188 161 c 0
 215.291992188 251 236.291992188 341 255.291992188 431 c 0
 258.291992188 452 263.291992188 474 269.291992188 500 c 0
 275.291992188 526 287.291992188 579 307.291992188 660 c 0
 312.291992188 681 317.291992188 703 324.291992188 729 c 0
 331.291992188 755 335.291992188 772 337.291992188 781 c 2
 338.291992188 784 l 2
 338.291992188 788 337.291992188 791 337.291992188 793 c 0
 337.291992188 805 342.291992188 815 352.291992188 824 c 0
 359.291992188 831 370.291992188 835 383.291992188 835 c 0
 427.291992188 836 468.291992188 837 504.291992188 837 c 2
 531.291992188 837 l 1
EndSplineSet
EndChar

StartChar: backslash
Encoding: 92 92 70
Width: 620
GlyphClass: 2
Flags: HMW
VStem: 447.443 71<4.29497e+09 4.29497e+09>
LayerCount: 2
Fore
SplineSet
470.442382812 -45 m 0
 459.442382812 -39 452.442382812 -29 447.442382812 -14 c 0
 445.442382812 -3 437.442382812 27 426.442382812 76 c 0
 415.442382812 125 407.442382812 160 402.442382812 181 c 0
 393.442382812 214 366.442382812 296 323.442382812 429 c 0
 280.442382812 562 254.442382812 645 246.442382812 679 c 0
 245.442382812 684 244.442382812 689 244.442382812 694 c 0
 244.442382812 702 246.442382812 709 248.442382812 715 c 0
 253.442382812 724 260.442382812 731 270.442382812 736 c 0
 278.442382812 739 285.442382812 741 292.442382812 741 c 0
 297.442382812 741 303.442382812 739 307.442382812 735 c 0
 311.442382812 731 314.442382812 726 316.442382812 718 c 0
 339.442382812 621 363.442382812 535 385.442382812 458 c 0
 420.442382812 333 465.442382812 190 519.442382812 30 c 0
 521.442382812 24 522.442382812 17 522.442382812 10 c 0
 522.442382812 3 520.442382812 -6 518.442382812 -15 c 0
 513.442382812 -31 506.442382812 -41 498.442382812 -45 c 0
 493.442382812 -47 489.442382812 -49 484.442382812 -49 c 0
 479.442382812 -49 475.442382812 -47 470.442382812 -45 c 0
EndSplineSet
EndChar

StartChar: bracketright
Encoding: 93 93 71
Width: 620
GlyphClass: 2
Flags: HMW
HStem: -69 49 780 57<468.595 483.095>
LayerCount: 2
Fore
SplineSet
495.594726562 837 m 2
 532.594726562 837 572.594726562 836 614.594726562 835 c 0
 626.594726562 835 634.594726562 832 637.594726562 827 c 0
 639.594726562 824 641.594726562 820 641.594726562 816 c 0
 641.594726562 812 640.594726562 809 640.594726562 806 c 0
 638.594726562 801 636.594726562 796 634.594726562 792 c 2
 632.594726562 789 l 1
 632.594726562 787 l 1
 630.594726562 781 l 1
 630.594726562 780 l 2
 630.594726562 775 625.594726562 760 620.594726562 735 c 2
 590.594726562 591 l 2
 578.594726562 535 565.594726562 483 552.594726562 436 c 0
 530.594726562 346 509.594726562 256 489.594726562 166 c 0
 469.594726562 76 457.594726562 14 452.594726562 -21 c 2
 450.594726562 -30 l 1
 450.594726562 -32 l 2
 450.594726562 -39 449.594726562 -45 448.594726562 -50 c 0
 447.594726562 -58 442.594726562 -64 435.594726562 -69 c 0
 428.594726562 -74 418.594726562 -77 405.594726562 -77 c 0
 383.594726562 -77 341.594726562 -74 280.594726562 -71 c 0
 262.594726562 -71 241.594726562 -69 218.594726562 -69 c 0
 195.594726562 -69 175.594726562 -71 155.594726562 -73 c 0
 152.594726562 -73 148.594726562 -74 147.594726562 -74 c 0
 142.594726562 -74 138.594726562 -72 137.594726562 -70 c 0
 136.594726562 -63 136.594726562 -55 138.594726562 -44 c 0
 140.594726562 -35 145.594726562 -29 150.594726562 -24 c 0
 155.594726562 -19 164.594726562 -17 175.594726562 -17 c 0
 179.594726562 -17 201.594726562 -19 243.594726562 -20 c 0
 285.594726562 -21 320.594726562 -22 350.594726562 -22 c 2
 387.594726562 -22 l 1
 393.594726562 4 407.594726562 67 428.594726562 165 c 0
 449.594726562 263 465.594726562 331 476.594726562 371 c 1
 476.594726562 372 l 1
 489.594726562 425 501.594726562 472 509.594726562 511 c 0
 517.594726562 550 535.594726562 639 564.594726562 778 c 1
 525.594726562 779 494.594726562 780 471.594726562 780 c 0
 421.594726562 780 384.594726562 778 358.594726562 774 c 0
 356.594726562 774 352.594726562 773 350.594726562 773 c 0
 348.594726562 773 345.594726562 773 343.594726562 774 c 0
 341.594726562 775 339.594726562 778 339.594726562 780 c 0
 336.594726562 789 335.594726562 798 337.594726562 807 c 0
 339.594726562 816 343.594726562 823 350.594726562 830 c 0
 356.594726562 835 364.594726562 838 375.594726562 838 c 2
 376.594726562 838 l 2
 404.594726562 838 435.594726562 837 468.594726562 837 c 2
 495.594726562 837 l 2
EndSplineSet
EndChar

StartChar: asciicircum
Encoding: 94 94 72
Width: 620
GlyphClass: 2
Flags: HMW
HStem: 607 326<233.613 516.113>
LayerCount: 2
Fore
SplineSet
626.112304688 614 m 0
 621.112304688 619 612.112304688 630 600.112304688 648 c 0
 598.112304688 650 594.112304688 654 592.112304688 658 c 0
 565.112304688 698 548.112304688 726 538.112304688 743 c 0
 528.112304688 760 516.112304688 787 499.112304688 824 c 2
 490.112304688 841 l 1
 478.112304688 828 l 2
 456.112304688 803 437.112304688 783 420.112304688 767 c 0
 403.112304688 751 390.112304688 739 380.112304688 731 c 0
 370.112304688 723 357.112304688 713 341.112304688 699 c 0
 325.112304688 685 309.112304688 670 291.112304688 653 c 0
 288.112304688 651 283.112304688 647 278.112304688 642 c 0
 260.112304688 625 247.112304688 615 240.112304688 610 c 0
 238.112304688 608 235.112304688 607 234.112304688 607 c 0
 233.112304688 607 232.112304688 609 230.112304688 609 c 0
 223.112304688 613 217.112304688 620 214.112304688 631 c 0
 214.112304688 632 213.112304688 634 213.112304688 636 c 0
 213.112304688 647 221.112304688 659 233.112304688 672 c 0
 248.112304688 689 269.112304688 709 295.112304688 734 c 0
 321.112304688 759 350.112304688 786 382.112304688 817 c 0
 414.112304688 848 446.112304688 882 479.112304688 918 c 0
 485.112304688 925 493.112304688 929 502.112304688 931 c 0
 506.112304688 932 510.112304688 933 514.112304688 933 c 0
 518.112304688 933 522.112304688 932 526.112304688 931 c 0
 531.112304688 929 536.112304688 926 537.112304688 922 c 2
 537.112304688 921 l 1
 553.112304688 886 567.112304688 857 579.112304688 834 c 0
 591.112304688 811 600.112304688 794 607.112304688 783 c 0
 614.112304688 772 624.112304688 756 637.112304688 735 c 0
 650.112304688 714 662.112304688 696 673.112304688 679 c 0
 676.112304688 674 678.112304688 668 678.112304688 663 c 0
 678.112304688 655 675.112304688 648 670.112304688 642 c 0
 660.112304688 629 649.112304688 621 637.112304688 616 c 0
 634.112304688 614 631.112304688 613 630.112304688 613 c 0
 629.112304688 613 627.112304688 614 626.112304688 614 c 0
EndSplineSet
EndChar

StartChar: underscore
Encoding: 95 95 73
Width: 620
GlyphClass: 2
Flags: HMW
HStem: -87 60<93.002 114.502>
LayerCount: 2
Fore
SplineSet
76.5029296875 -72 m 0
 76.5029296875 -68 77.5029296875 -64 78.5029296875 -59 c 0
 80.5029296875 -49 83.5029296875 -41 88.5029296875 -36 c 0
 93.5029296875 -30 101.502929688 -27 112.502929688 -27 c 2
 114.502929688 -27 l 2
 171.502929688 -28 219.502929688 -29 259.502929688 -29 c 0
 299.502929688 -29 348.502929688 -28 409.502929688 -27 c 0
 458.502929688 -27 487.502929688 -25 498.502929688 -25 c 0
 509.502929688 -25 515.502929688 -27 516.502929688 -30 c 0
 518.502929688 -35 519.502929688 -42 518.502929688 -51 c 0
 516.502929688 -62 511.502929688 -70 506.502929688 -75 c 0
 499.502929688 -82 490.502929688 -85 479.502929688 -85 c 0
 250.502929688 -86 123.502929688 -87 96.5029296875 -87 c 0
 89.5029296875 -87 84.5029296875 -86 81.5029296875 -84 c 0
 78.5029296875 -82 76.5029296875 -78 76.5029296875 -72 c 0
EndSplineSet
EndChar

StartChar: grave
Encoding: 96 96 74
Width: 620
GlyphClass: 2
Flags: HMW
HStem: 636 161<413.38 513.38>
LayerCount: 2
Fore
SplineSet
512.379882812 636 m 0
 504.379882812 636 496.379882812 639 487.379882812 644 c 0
 458.379882812 665 439.379882812 678 432.379882812 683 c 0
 425.379882812 688 416.379882812 695 405.379882812 704 c 0
 394.379882812 713 384.379882812 721 377.379882812 728 c 0
 372.379882812 734 369.379882812 743 369.379882812 754 c 0
 369.379882812 763 372.379882812 772 377.379882812 781 c 0
 384.379882812 788 394.379882812 794 405.379882812 796 c 0
 408.379882812 796 412.379882812 797 414.379882812 797 c 0
 420.379882812 797 425.379882812 796 430.379882812 792 c 0
 432.379882812 790 448.379882812 773 477.379882812 742 c 0
 482.379882812 736 490.379882812 729 500.379882812 720 c 0
 510.379882812 711 520.379882812 703 528.379882812 698 c 0
 538.379882812 692 544.379882812 684 546.379882812 673 c 0
 546.379882812 670 547.379882812 666 547.379882812 664 c 0
 547.379882812 658 544.379882812 653 541.379882812 649 c 0
 536.379882812 642 528.379882812 638 518.379882812 637 c 0
 516.379882812 637 514.379882812 636 512.379882812 636 c 0
EndSplineSet
EndChar

StartChar: a
Encoding: 97 97 75
Width: 620
GlyphClass: 2
Flags: HMW
HStem: -28 69 438 72
VStem: 440.886 51
LayerCount: 2
Fore
SplineSet
278.885742188 450 m 0
 303.885742188 471 338.885742188 486.999023438 381.885742188 499.999023438 c 0
 402.885742188 505.999023438 424.885742188 509.999023438 447.885742188 509.999023438 c 2
 455.885742188 509.999023438 l 2
 507.885742188 508.999023438 539.885742188 492.999023438 549.885742188 464.999023438 c 0
 557.086914062 444.74609375 560.641601562 420.64453125 560.641601562 392.51171875 c 0
 560.641601562 358.13671875 555.333984375 317.743164062 544.885742188 270.999023438 c 0
 544.885742188 268.999023438 542.885742188 260.999023438 539.885742188 247.999023438 c 0
 536.885742188 234.999023438 531.885742188 212.999023438 523.885742188 182.999023438 c 0
 515.885742188 152.999023438 512.885742188 136.999023438 512.885742188 135.999023438 c 0
 508.885742188 118.999023438 503.885742188 86.9990234375 497.885742188 36.9990234375 c 0
 496.885742188 21.9990234375 493.885742188 8.9990234375 491.885742188 -2.0009765625 c 0
 486.885742188 -26.0009765625 479.885742188 -38.0009765625 471.885742188 -38.0009765625 c 0
 450.885742188 -38.0009765625 440.885742188 -34.0009765625 440.885742188 -25.0009765625 c 0
 439.713867188 -7.427734375 439.228515625 12.205078125 439.228515625 34.09765625 c 0
 439.228515625 49.578125 439.470703125 66.1884765625 439.884765625 84 c 1
 432.884765625 71 427.884765625 64 423.884765625 64 c 0
 395.884765625 29 370.884765625 5 347.884765625 -10 c 0
 328.884765625 -22 301.884765625 -28 264.884765625 -28 c 0
 248.884765625 -28 231.884765625 -23 213.884765625 -12 c 0
 194.884765625 -1 179.884765625 17 168.884765625 40 c 0
 157.884765625 63 152.884765625 87 150.884765625 111 c 1
 154.884765625 128 160.884765625 146 168.884765625 165 c 0
 177.884765625 186 189.884765625 203 205.884765625 217 c 0
 228.884765625 238 244.884765625 251 252.884765625 255 c 0
 287.884765625 273 307.884765625 284 312.884765625 285 c 0
 354.884765625 298 377.884765625 306 382.884765625 307 c 0
 411.884765625 311 429.884765625 314 437.884765625 316 c 0
 440.884765625 317 458.884765625 323 490.884765625 335 c 0
 491.884765625 339 493.884765625 340 493.884765625 340 c 2
 496.884765625 346 498.884765625 353 499.884765625 359 c 0
 500.884765625 365 502.884765625 370 502.884765625 376 c 0
 502.884765625 382 501.884765625 389 497.884765625 398 c 0
 492.884765625 410 484.884765625 419 475.884765625 425 c 0
 468.884765625 431 454.884765625 436 435.884765625 437 c 0
 432.884765625 437 429.884765625 438 426.884765625 438 c 0
 413.884765625 438 400.884765625 435 384.884765625 430 c 0
 368.884765625 425 355.884765625 417 343.884765625 409 c 0
 321.884765625 395 304.884765625 383 293.884765625 373 c 0
 273.884765625 352 258.884765625 340 245.884765625 340 c 0
 239.884765625 340 233.884765625 343 228.884765625 348 c 0
 221.650390625 354.430664062 218.29296875 361.5078125 218.29296875 369.75 c 0
 218.29296875 371.76171875 218.493164062 373.842773438 218.885742188 376 c 0
 220.885742188 387 229.885742188 401 241.885742188 415 c 0
 252.885742188 428 264.885742188 439 278.885742188 450 c 0
367.885742188 67.9990234375 m 0
 380.885742188 77.9990234375 392.885742188 89.9990234375 403.885742188 103.999023438 c 0
 415.885742188 117.999023438 427.885742188 135.999023438 438.885742188 156.999023438 c 0
 449.885742188 177.999023438 459.885742188 200.999023438 466.885742188 225.999023438 c 2
 469.885742188 236.999023438 l 1
 458.885742188 235.999023438 l 2
 343.885742188 224.999023438 264.885742188 191.999023438 221.885742188 136.999023438 c 1
 218.885742188 131.999023438 l 1
 219.885742188 126.999023438 l 2
 227.885742188 94.9990234375 237.885742188 72.9990234375 251.885742188 59.9990234375 c 0
 263.885742188 46.9990234375 278.885742188 40.9990234375 297.885742188 40.9990234375 c 0
 319.885742188 40.9990234375 343.885742188 48.9990234375 367.885742188 67.9990234375 c 0
EndSplineSet
EndChar

StartChar: b
Encoding: 98 98 76
Width: 620
GlyphClass: 2
Flags: HMW
HStem: -14 74<303.521 326.021> 425 65<369.521 444.021>
VStem: 135.521 60 484.521 69<295.5 370.5>
LayerCount: 2
Fore
SplineSet
542.521484375 263 m 0
 535.521484375 227 524.521484375 194 511.521484375 164 c 0
 498.521484375 134 482.521484375 107 466.521484375 86 c 0
 450.521484375 65 433.521484375 46 416.521484375 31 c 0
 399.521484375 16 383.521484375 4 366.521484375 -3 c 0
 349.521484375 -10 333.521484375 -14 318.521484375 -14 c 0
 276.521484375 -14 241.521484375 2 215.521484375 31 c 1
 210.521484375 29 206.521484375 34 201.521484375 47 c 1
 199.521484375 32 197.521484375 26 195.521484375 26 c 0
 190.521484375 12 185.521484375 2 178.521484375 -3 c 0
 171.521484375 -8 163.521484375 -11 154.521484375 -11 c 0
 147.521484375 -11 141.521484375 -9 139.521484375 -6 c 0
 137.521484375 -3 135.521484375 2 135.521484375 8 c 0
 135.521484375 14 136.521484375 22 138.521484375 30 c 0
 156.521484375 115 183.521484375 237 219.521484375 396 c 0
 254.521484375 555 277.521484375 663 290.521484375 722 c 0
 294.521484375 741 299.521484375 753 305.521484375 759 c 0
 311.521484375 765 319.521484375 768 329.521484375 768 c 0
 335.521484375 768 340.521484375 766 343.521484375 761 c 0
 345.521484375 759 346.521484375 754 346.521484375 748 c 0
 346.521484375 742 345.521484375 733 343.521484375 723 c 0
 336.521484375 698 329.521484375 666 322.521484375 624 c 0
 309.521484375 564 296.521484375 499 283.521484375 428 c 1
 291.521484375 437 299.521484375 443 306.521484375 445 c 0
 343.521484375 475 384.521484375 490 427.521484375 490 c 0
 460.521484375 490 488.521484375 480 509.521484375 461 c 0
 538.521484375 436 553.521484375 397 553.521484375 344 c 0
 553.521484375 319 549.521484375 292 542.521484375 263 c 0
452.521484375 397 m 0
 435.521484375 416 413.521484375 425 387.521484375 425 c 0
 351.521484375 425 314.521484375 408 275.521484375 374 c 2
 272.521484375 371 l 1
 255.521484375 288 234.521484375 201 212.521484375 109 c 1
 215.521484375 105 l 2
 226.521484375 88 240.521484375 77 258.521484375 70 c 0
 273.521484375 63 292.521484375 60 314.521484375 60 c 0
 354.521484375 60 387.521484375 78 415.521484375 113 c 0
 444.521484375 147 465.521484375 193 478.521484375 251 c 0
 482.521484375 269 484.521484375 287 484.521484375 304 c 0
 484.521484375 344 473.521484375 375 452.521484375 397 c 0
EndSplineSet
EndChar

StartChar: c
Encoding: 99 99 77
Width: 620
GlyphClass: 2
Flags: HMW
HStem: -31 68<283.941 330.941> 458 69<421.941 477.941>
VStem: 171.941 70<123.5 126.5> 481.941 70<358.5 405>
LayerCount: 2
Fore
SplineSet
527.94140625 492 m 0
 544.94140625 468 551.94140625 440 551.94140625 407 c 2
 551.94140625 405 l 2
 551.94140625 389 549.94140625 376 544.94140625 365 c 0
 538.94140625 352 528.94140625 343 515.94140625 337 c 0
 509.94140625 335 504.94140625 333 499.94140625 333 c 0
 496.94140625 333 492.94140625 334 490.94140625 335 c 0
 488.94140625 335 486.94140625 338 484.94140625 343 c 0
 482.94140625 348 481.94140625 354 481.94140625 363 c 0
 481.94140625 366 479.94140625 377 479.94140625 397 c 0
 479.94140625 402 479.94140625 408 478.94140625 415 c 0
 477.94140625 422 475.94140625 428 473.94140625 432 c 0
 471.94140625 436 467.94140625 440 463.94140625 444 c 0
 455.94140625 453 443.94140625 458 426.94140625 458 c 0
 416.94140625 458 406.94140625 456 395.94140625 451 c 0
 384.94140625 446 372.94140625 438 359.94140625 426 c 0
 346.94140625 414 334.94140625 399 322.94140625 382 c 0
 310.94140625 365 298.94140625 343 287.94140625 315 c 0
 274.94140625 287 263.94140625 256 254.94140625 221 c 0
 245.94140625 189 241.94140625 161 241.94140625 137 c 0
 241.94140625 110 247.94140625 88 258.94140625 71 c 0
 273.94140625 50 294.94140625 39 321.94140625 37 c 2
 330.94140625 37 l 2
 353.94140625 37 374.94140625 42 392.94140625 52 c 0
 413.94140625 64 428.94140625 78 435.94140625 93 c 0
 441.94140625 104 447.94140625 112 453.94140625 118 c 0
 459.94140625 124 462.94140625 128 466.94140625 129 c 0
 470.94140625 130 474.94140625 131 477.94140625 131 c 0
 480.94140625 131 483.94140625 129 488.94140625 127 c 0
 491.94140625 125 494.94140625 122 496.94140625 120 c 0
 498.94140625 118 499.94140625 114 499.94140625 110 c 0
 499.94140625 100 494.94140625 86 483.94140625 69 c 0
 468.94140625 44 444.94140625 22 413.94140625 2 c 0
 398.94140625 -9 380.94140625 -17 360.94140625 -23 c 0
 340.94140625 -28 318.94140625 -31 296.94140625 -31 c 0
 270.94140625 -31 248.94140625 -26 228.94140625 -14 c 0
 210.94140625 -3 197.94140625 12 188.94140625 32 c 0
 177.94140625 57 171.94140625 85 171.94140625 116 c 0
 171.94140625 137 174.94140625 158 179.94140625 180 c 0
 190.94140625 227 204.94140625 269 221.94140625 308 c 0
 238.94140625 347 257.94140625 379 278.94140625 406 c 0
 298.94140625 433 317.94140625 455 337.94140625 474 c 0
 376.94140625 509 418.94140625 527 464.94140625 527 c 0
 490.94140625 527 511.94140625 515 527.94140625 492 c 0
EndSplineSet
EndChar

StartChar: d
Encoding: 100 100 78
Width: 620
GlyphClass: 2
Flags: HMW
HStem: -14 76<287.948 322.948> 436 75<394.948 398.948 394.948 394.948>
VStem: 167.948 62<171 182> 438.948 65<20.5 50>
LayerCount: 2
Fore
SplineSet
350.948242188 65 m 0
 359.948242188 67 367.948242188 71 374.948242188 74 c 0
 381.948242188 77 387.948242188 81 394.948242188 87 c 0
 401.948242188 93 406.948242188 99 411.948242188 103 c 0
 416.948242188 107 421.948242188 113 427.948242188 121 c 0
 433.948242188 129 439.948242188 135 441.948242188 139 c 0
 443.948242188 143 446.948242188 147 449.948242188 152 c 0
 452.948242188 157 455.948242188 162 457.948242188 164 c 0
 470.948242188 226 477.948242188 261 479.948242188 268 c 0
 480.948242188 275 482.948242188 286 486.948242188 301 c 0
 490.948242188 316 492.948242188 329 494.948242188 338 c 1
 493.948242188 341 l 2
 486.948242188 368 475.948242188 391 458.948242188 409 c 0
 441.948242188 427 421.948242188 436 398.948242188 436 c 2
 394.948242188 436 l 2
 370.948242188 435 347.948242188 426 326.948242188 410 c 0
 305.948242188 394 289.948242188 373 274.948242188 348 c 0
 259.948242188 323 247.948242188 296 240.948242188 267 c 0
 232.948242188 235 229.948242188 207 229.948242188 183 c 0
 229.948242188 159 231.948242188 137 238.948242188 120 c 0
 246.948242188 99 260.948242188 83 277.948242188 74 c 0
 290.948242188 66 304.948242188 62 321.948242188 62 c 2
 322.948242188 62 l 2
 331.948242188 62 341.948242188 63 350.948242188 65 c 0
167.948242188 166 m 0
 167.948242188 198 171.948242188 233 180.948242188 271 c 0
 189.948242188 316 206.948242188 358 228.948242188 394 c 0
 250.948242188 430 276.948242188 458 307.948242188 479 c 0
 336.948242188 500 368.948242188 511 400.948242188 511 c 0
 444.948242188 511 480.948242188 498 505.948242188 472 c 1
 510.948242188 475 514.948242188 471 519.948242188 458 c 1
 550.948242188 595 572.948242188 681 583.948242188 716 c 0
 588.948242188 733 595.948242188 745 602.948242188 754 c 0
 611.948242188 764 620.948242188 769 632.948242188 769 c 0
 639.948242188 769 646.948242188 766 648.948242188 761 c 0
 649.948242188 760 650.948242188 757 650.948242188 753 c 0
 650.948242188 746 647.948242188 736 644.948242188 723 c 0
 633.948242188 681 614.948242188 606 586.948242188 495 c 0
 558.948242188 384 539.948242188 299 526.948242188 242 c 1
 526.948242188 241 l 1
 519.948242188 202 513.948242188 168 509.948242188 139 c 0
 505.948242188 110 504.948242188 89 504.948242188 77 c 0
 504.948242188 65 503.948242188 54 503.948242188 46 c 0
 503.948242188 38 502.948242188 32 500.948242188 27 c 0
 496.948242188 16 491.948242188 8 484.948242188 2 c 0
 479.948242188 -3 472.948242188 -7 463.948242188 -9 c 0
 460.948242188 -9 455.948242188 -10 453.948242188 -10 c 0
 451.948242188 -10 448.948242188 -9 446.948242188 -8 c 0
 444.948242188 -7 443.948242188 -4 442.948242188 -1 c 0
 440.948242188 6 438.948242188 15 438.948242188 26 c 0
 438.948242188 34 439.948242188 43 440.948242188 52 c 0
 441.948242188 60 443.948242188 74 445.948242188 95 c 1
 437.948242188 78 429.948242188 67 421.948242188 62 c 0
 413.948242188 51 405.948242188 42 397.948242188 34 c 0
 389.948242188 26 380.948242188 17 369.948242188 10 c 0
 348.948242188 -6 324.948242188 -14 295.948242188 -14 c 0
 279.948242188 -14 263.948242188 -10 248.948242188 -3 c 0
 233.948242188 4 218.948242188 15 206.948242188 30 c 0
 194.948242188 45 184.948242188 64 177.948242188 85 c 0
 170.948242188 106 167.948242188 134 167.948242188 166 c 0
EndSplineSet
EndChar

StartChar: e
Encoding: 101 101 79
Width: 620
GlyphClass: 2
Flags: HMW
HStem: -28 60<295.568 328.568 295.568 328.568> 455 66<398.568 446.568>
VStem: 174.568 61<134 140.5>
LayerCount: 2
Fore
SplineSet
479.567382812 60 m 0
 467.567382812 45 455.567382812 33 444.567382812 24 c 0
 433.567382812 14 421.567382812 5 407.567382812 -4 c 0
 381.567382812 -20 346.567382812 -28 304.567382812 -28 c 2
 295.567382812 -28 l 2
 243.567382812 -27 208.567382812 -4 189.567382812 39 c 0
 179.567382812 63 174.567382812 91 174.567382812 124 c 0
 174.567382812 157 179.567382812 193 188.567382812 234 c 0
 198.567382812 279 213.567382812 320 233.567382812 356 c 0
 253.567382812 392 274.567382812 423 297.567382812 447 c 0
 318.567382812 471 340.567382812 489 364.567382812 502 c 0
 388.567382812 515 413.567382812 521 438.567382812 521 c 0
 454.567382812 521 470.567382812 516 487.567382812 505 c 0
 504.567382812 494 518.567382812 479 531.567382812 458 c 0
 544.567382812 437 551.567382812 416 552.567382812 393 c 0
 552.567382812 378 544.567382812 362 530.567382812 343 c 0
 516.567382812 324 502.567382812 310 489.567382812 300 c 0
 463.567382812 280 431.567382812 261 391.567382812 241 c 0
 371.567382812 232 355.567382812 224 341.567382812 217 c 0
 327.567382812 210 311.567382812 202 290.567382812 193 c 0
 272.567382812 184 254.567382812 178 237.567382812 173 c 1
 236.567382812 158 235.567382812 146 235.567382812 138 c 0
 235.567382812 130 236.567382812 123 236.567382812 116 c 0
 238.567382812 101 242.567382812 88 248.567382812 75 c 0
 254.567382812 62 262.567382812 51 275.567382812 44 c 0
 288.567382812 36 304.567382812 32 322.567382812 32 c 0
 334.567382812 32 347.567382812 35 361.567382812 40 c 0
 375.567382812 45 387.567382812 51 398.567382812 60 c 0
 418.567382812 77 432.567382812 89 439.567382812 98 c 0
 450.567382812 110 459.567382812 119 467.567382812 124 c 0
 472.567382812 127 478.567382812 129 482.567382812 129 c 0
 486.567382812 129 490.567382812 127 493.567382812 124 c 0
 498.567382812 119 501.567382812 112 501.567382812 105 c 0
 501.567382812 93 494.567382812 78 479.567382812 60 c 0
346.567382812 427 m 0
 335.567382812 417 324.567382812 405 314.567382812 391 c 0
 304.567382812 377 294.567382812 360 284.567382812 339 c 0
 273.567382812 318 264.567382812 295 257.567382812 270 c 2
 252.567382812 249 l 1
 272.567382812 255 l 2
 375.567382812 287 445.567382812 319 482.567382812 352 c 2
 488.567382812 357 l 1
 486.567382812 364 l 2
 479.567382812 396 470.567382812 419 457.567382812 433 c 0
 443.567382812 448 427.567382812 455 408.567382812 455 c 0
 388.567382812 455 367.567382812 446 346.567382812 427 c 0
EndSplineSet
EndChar

StartChar: f
Encoding: 102 102 80
Width: 620
GlyphClass: 2
Flags: HMW
HStem: -16 63 422 65 428 61 703 62
LayerCount: 2
Fore
SplineSet
428.288085938 -5 m 0xb0
 421.288085938 -12 414.287109375 -16.0009765625 403.287109375 -16.0009765625 c 0
 347.287109375 -17.0009765625 310.287109375 -18.0009765625 292.287109375 -18.0009765625 c 0
 238.287109375 -18.0009765625 198.287109375 -16.0009765625 171.287109375 -14.0009765625 c 1
 171.287109375 -22.0009765625 170.287109375 -22.0009765625 170.287109375 -14.0009765625 c 1
 160.287109375 -14.0009765625 153.287109375 -11.0009765625 151.287109375 -6.0009765625 c 0
 149.287109375 -2.0009765625 148.287109375 1.9990234375 148.287109375 5.9990234375 c 0
 148.287109375 9.9990234375 149.287109375 13.9990234375 150.287109375 18.9990234375 c 0
 152.287109375 29.9990234375 156.287109375 38.9990234375 163.287109375 45.9990234375 c 0
 169.287109375 51.9990234375 179.287109375 54.9990234375 190.287109375 54.9990234375 c 2
 195.287109375 54.9990234375 l 2
 199.287109375 54.9990234375 206.287109375 53.9990234375 218.287109375 53.9990234375 c 0
 230.287109375 53.9990234375 243.287109375 51.9990234375 256.287109375 51.9990234375 c 0
 257.287109375 48.9990234375 258.287109375 51.9990234375 258.287109375 61.9990234375 c 0
 261.287109375 74.9990234375 264.287109375 87.9990234375 265.287109375 98.9990234375 c 0
 266.287109375 109.999023438 268.287109375 123.999023438 271.287109375 137.999023438 c 0
 274.287109375 151.999023438 277.287109375 171.999023438 281.287109375 198.999023438 c 0
 299.287109375 311.999023438 312.287109375 386.999023438 318.287109375 423.999023438 c 1
 313.287109375 428.999023438 308.287109375 427.999023438 303.287109375 422.999023438 c 1
 294.287109375 422.999023438 281.287109375 421.999023438 265.287109375 421.999023438 c 0
 259.287109375 421.999023438 255.287109375 422.999023438 253.287109375 424.999023438 c 0
 251.287109375 426.999023438 249.287109375 431.999023438 249.287109375 437.999023438 c 0
 249.287109375 441.999023438 250.287109375 446.999023438 251.287109375 451.999023438 c 0
 253.287109375 462.999023438 256.287109375 471.999023438 261.287109375 477.999023438 c 0
 266.287109375 483.999023438 273.287109375 486.999023438 282.287109375 486.999023438 c 2
 329.287109375 486.999023438 l 1xd0
 331.287109375 505.999023438 336.287109375 524.999023438 340.287109375 545.999023438 c 0
 347.287109375 576.999023438 355.287109375 603.999023438 368.287109375 628.999023438 c 0
 381.287109375 653.999023438 395.287109375 673.999023438 412.287109375 690.999023438 c 0
 429.287109375 707.999023438 447.287109375 720.999023438 468.287109375 731.999023438 c 0
 489.287109375 742.999023438 510.287109375 751.999023438 532.287109375 756.999023438 c 0
 556.287109375 761.999023438 582.287109375 764.999023438 607.287109375 764.999023438 c 0
 616.287109375 764.999023438 622.287109375 761.999023438 626.287109375 757.999023438 c 0
 628.287109375 755.999023438 629.287109375 752.999023438 629.287109375 749.999023438 c 0
 629.287109375 746.999023438 628.287109375 742.999023438 628.287109375 739.999023438 c 0
 626.287109375 728.999023438 620.287109375 719.999023438 614.287109375 712.999023438 c 0
 608.287109375 705.999023438 601.287109375 702.999023438 596.287109375 702.999023438 c 0
 543.287109375 702.999023438 499.287109375 687.999023438 462.287109375 657.999023438 c 0
 426.287109375 627.999023438 402.287109375 588.999023438 392.287109375 540.999023438 c 0
 389.287109375 525.999023438 386.287109375 513.999023438 385.287109375 502.999023438 c 2
 385.287109375 502.999023438 384.287109375 500.999023438 384.287109375 488.999023438 c 1xb0
 412.159179688 492.901367188 440.341796875 494.939453125 469.008789062 494.939453125 c 0
 491.767578125 494.939453125 514.83203125 493.655273438 538.288085938 491 c 0
 547.288085938 491 552.288085938 489 553.288085938 487 c 0xd0
 555.288085938 482 556.288085938 476 555.288085938 467 c 0
 553.288085938 456 549.288085938 446 544.288085938 440 c 0
 539.288085938 434 531.288085938 431 521.288085938 431 c 0
 508.288085938 431 480.288085938 430 437.288085938 428 c 0
 415.288085938 428 394.288085938 426 373.288085938 426 c 1
 368.288085938 401 363.288085938 370 357.288085938 334 c 0
 351.288085938 298 339.288085938 226 320.288085938 116 c 0
 315.288085938 83 312.288085938 65 312.288085938 63 c 2
 312.288085938 51 l 2
 315.288085938 44 318.288085938 44 321.288085938 50 c 1
 365.288085938 48 400.288085938 47 422.288085938 47 c 0
 431.288085938 47 438.288085938 45 440.288085938 41 c 0
 442.288085938 39 443.288085938 35 443.288085938 32 c 0
 443.288085938 29 442.288085938 25 442.288085938 22 c 0
 440.288085938 11 435.288085938 2 428.288085938 -5 c 0xb0
EndSplineSet
EndChar

